<svg id="Group_377" data-name="Group 377" xmlns="http://www.w3.org/2000/svg" width="40.263" height="28.31" viewBox="0 0 40.263 28.31">
  <path id="Path_1132" data-name="Path 1132" d="M406.087,649.74a1.573,1.573,0,0,1,1.573-1.572h16.514a1.573,1.573,0,0,1,0,3.145H407.66a1.573,1.573,0,0,1-1.573-1.573Zm-.393,7.864a1.966,1.966,0,1,1,1.966,1.966,1.966,1.966,0,0,1-1.966-1.966Zm9.436,0a1.966,1.966,0,1,1-1.966-1.966,1.966,1.966,0,0,1,1.966,1.966Zm11.01,0a1.966,1.966,0,1,1-1.966-1.966,1.966,1.966,0,0,1,1.966,1.966Zm-5.5,0a1.966,1.966,0,1,1-1.966-1.966,1.966,1.966,0,0,1,1.966,1.966Zm12.267,8.06H398.931V643.646H432.9v22.018Zm1.573-25.164H397.358a1.573,1.573,0,0,0-1.572,1.573v25.164a1.573,1.573,0,0,0,1.572,1.573h37.118a1.573,1.573,0,0,0,1.573-1.573V642.073a1.573,1.573,0,0,0-1.573-1.573Z" transform="translate(-395.786 -640.5)" fill="#f3eff4"/>
</svg>
