<svg xmlns="http://www.w3.org/2000/svg" xmlns:xlink="http://www.w3.org/1999/xlink" width="39.297" height="36.376" viewBox="0 0 39.297 36.376">
  <defs>
    <linearGradient id="linear-gradient" x1="0.5" x2="0.5" y2="1" gradientUnits="objectBoundingBox">
      <stop offset="0" stop-color="#001e2a"/>
      <stop offset="1" stop-color="#011629"/>
    </linearGradient>
  </defs>
  <g id="Group_105" data-name="Group 105" transform="translate(-349.971 -1255.346)">
    <path id="Path_183" data-name="Path 183" d="M400.488,1265.873a4.612,4.612,0,1,0-4.612,4.238,4.443,4.443,0,0,0,4.612-4.238Z" transform="translate(-12.415 -1.88)" fill="url(#linear-gradient)"/>
    <path id="Path_184" data-name="Path 184" d="M351.194,1303.469l9.2.033a1.108,1.108,0,0,0,1.154-1.06l.021-6.453a1.11,1.11,0,0,0-1.146-1.068l-9.2-.033a1.179,1.179,0,0,0-1.23,1.059l-.022,6.453a1.181,1.181,0,0,0,1.223,1.068Z" transform="translate(0 -11.881)" fill="url(#linear-gradient)"/>
    <path id="Path_185" data-name="Path 185" d="M380.2,1282.828l-9.2-.034a1.109,1.109,0,0,0-1.153,1.06l-.049,14.963a1.109,1.109,0,0,0,1.146,1.068l9.2.034a1.109,1.109,0,0,0,1.154-1.06l.049-14.963a1.109,1.109,0,0,0-1.146-1.068Z" transform="translate(-5.958 -8.247)" fill="url(#linear-gradient)"/>
    <path id="Path_186" data-name="Path 186" d="M399.984,1288.983l-9.274-.034a1.107,1.107,0,0,0-1.153,1.059l-.036,10.708a1.109,1.109,0,0,0,1.147,1.068l9.273.034a1.108,1.108,0,0,0,1.154-1.06l.035-10.709a1.109,1.109,0,0,0-1.146-1.068Z" transform="translate(-11.884 -10.097)" fill="url(#linear-gradient)"/>
    <path id="Path_187" data-name="Path 187" d="M395.366,1273.766a5.55,5.55,0,0,0-5.766,5.3l-.007,2.127a1.109,1.109,0,0,0,1.146,1.068l9.274.034a1.108,1.108,0,0,0,1.153-1.06l.007-2.127a5.625,5.625,0,0,0-5.807-5.34Z" transform="translate(-11.905 -5.535)" fill="url(#linear-gradient)"/>
    <path id="Path_188" data-name="Path 188" d="M380.788,1259.689a4.607,4.607,0,0,0-9.2-.034,4.612,4.612,0,0,0,9.2.034Z" transform="translate(-6.496)" fill="url(#linear-gradient)"/>
    <path id="Path_189" data-name="Path 189" d="M369.9,1272.91l-.007,2.128a1.109,1.109,0,0,0,1.146,1.068l9.2.034a1.108,1.108,0,0,0,1.153-1.06l.007-2.127a5.766,5.766,0,0,0-11.5-.042Z" transform="translate(-5.985 -3.686)" fill="url(#linear-gradient)"/>
    <path id="Path_190" data-name="Path 190" d="M361.027,1271.812a4.612,4.612,0,1,0-4.613,4.238,4.443,4.443,0,0,0,4.613-4.238Z" transform="translate(-0.559 -3.664)" fill="url(#linear-gradient)"/>
    <path id="Path_191" data-name="Path 191" d="M351.245,1288.2l9.2.034a1.108,1.108,0,0,0,1.153-1.059l.007-2.128a5.555,5.555,0,0,0-5.731-5.34,5.62,5.62,0,0,0-5.842,5.3l-.007,2.127a1.18,1.18,0,0,0,1.223,1.068Z" transform="translate(-0.015 -7.319)" fill="url(#linear-gradient)"/>
  </g>
</svg>
