<svg xmlns="http://www.w3.org/2000/svg" width="74.5" height="58.636" viewBox="0 0 74.5 58.636">
  <g id="Group_245" data-name="Group 245" transform="translate(-312.8 -681.184)">
    <path id="Path_659" data-name="Path 659" d="M383.546,731.465a4.593,4.593,0,0,1-4.6,4.6H321.157a4.594,4.594,0,0,1-4.6-4.6V696.2a4.594,4.594,0,0,1,4.6-4.6h13.668a1.9,1.9,0,0,0,1.912-1.912v-2.054a2.781,2.781,0,0,1,.779-1.983h0a2.782,2.782,0,0,1,1.983-.779h21.174a2.666,2.666,0,0,1,2.762,2.762v2.054a1.9,1.9,0,0,0,1.912,1.912h13.667a4.593,4.593,0,0,1,4.6,4.6v35.268Zm-4.6-43.624H367.188V687.7a6.36,6.36,0,0,0-1.912-4.6h0a6.48,6.48,0,0,0-4.6-1.912H339.427a6.523,6.523,0,0,0-4.674,1.912h0a6.481,6.481,0,0,0-1.912,4.6v.142H321.157a8.009,8.009,0,0,0-5.878,2.479A8.419,8.419,0,0,0,312.8,696.2v35.268a8.009,8.009,0,0,0,2.479,5.877,8.42,8.42,0,0,0,5.878,2.479h57.787a8.009,8.009,0,0,0,5.877-2.479,8.417,8.417,0,0,0,2.479-5.877V696.2a8.465,8.465,0,0,0-8.356-8.356Z" transform="translate(0 0)" fill="#fcfcfc"/>
    <path id="Path_660" data-name="Path 660" d="M378.133,737.7a13.679,13.679,0,0,1-19.263,0,13.539,13.539,0,0,1-3.966-9.631,13.841,13.841,0,0,1,3.966-9.631,13.54,13.54,0,0,1,9.631-3.966,13.84,13.84,0,0,1,9.631,3.966,13.539,13.539,0,0,1,3.966,9.631,13.252,13.252,0,0,1-3.966,9.631ZM368.5,710.579a17.408,17.408,0,1,0,12.322,5.1,17.453,17.453,0,0,0-12.322-5.1Z" transform="translate(-18.452 -14.169)" fill="#fcfcfc"/>
    <path id="Path_661" data-name="Path 661" d="M430.157,710.442a3.47,3.47,0,1,1-3.47,3.47,3.47,3.47,0,0,1,3.47-3.47Z" transform="translate(-54.896 -14.103)" fill="#fcfcfc"/>
  </g>
</svg>
