<svg id="Group_160" data-name="Group 160" xmlns="http://www.w3.org/2000/svg" xmlns:xlink="http://www.w3.org/1999/xlink" width="45.142" height="51.35" viewBox="0 0 45.142 51.35">
  <defs>
    <linearGradient id="linear-gradient" x1="0.5" y1="0.916" x2="0.5" y2="0.077" gradientUnits="objectBoundingBox">
      <stop offset="0.065" stop-color="#fdffff"/>
      <stop offset="0.258" stop-color="#ebf7ff"/>
      <stop offset="0.642" stop-color="#bce4ff"/>
      <stop offset="0.998" stop-color="#8dd1ff"/>
    </linearGradient>
    <linearGradient id="linear-gradient-2" x1="0.5" y1="-5.215" x2="0.5" y2="0.049" gradientUnits="objectBoundingBox">
      <stop offset="0" stop-color="#940c22"/>
      <stop offset="0.249" stop-color="#e3051a"/>
      <stop offset="0.316" stop-color="#b91435"/>
      <stop offset="0.432" stop-color="#762c61"/>
      <stop offset="0.529" stop-color="#463e81"/>
      <stop offset="0.603" stop-color="#284995"/>
      <stop offset="0.644" stop-color="#1d4e9d"/>
      <stop offset="1" stop-color="#0096d0"/>
    </linearGradient>
    <linearGradient id="linear-gradient-3" x1="0.217" y1="-0.147" x2="0.483" y2="0.481" gradientUnits="objectBoundingBox">
      <stop offset="0" stop-color="#fff"/>
      <stop offset="1" stop-color="#0096d0"/>
    </linearGradient>
    <linearGradient id="linear-gradient-4" x1="0.5" y1="0.008" x2="0.5" y2="0.881" xlink:href="#linear-gradient-3"/>
  </defs>
  <path id="Path_275" data-name="Path 275" d="M68.6,1021.917c-.545-1.4.2.522,0,0-.836-2.143-3.4-2.359-5.238-1.787a2.972,2.972,0,0,0-2.247-3.7c-1.637-.407-3.445.315-4.9,1.057,1.125-3-2.383-4.022-4.44-3.612-2.33.463-4.642,1.991-6.72,3.146a2.833,2.833,0,0,0-1.762-4.222c-5.528-1.441-18.112,8.412-16.681,11.2a2.007,2.007,0,0,0,2.169.928c-1.693,2.13-7.68,11.03-.783,11.4q-1.227,1.543-2.4,3.128c-.7.949-1.8,2.046-1.921,3.309-.284,2.872,3.275,4.047,5.262,2.765-1.153,1.383-2.855,3.4-1.992,5.361a3.576,3.576,0,0,0,5.024,1.435c2.962,4.476,7.658-1.117,10.08-3.1.3,4.8,6.2,2.83,8.385,1.12-.836,2.189-.9,4.615,1.7,5.3s5.1-1.173,7.036-2.773a66.653,66.653,0,0,1,6.721-4.928,2.949,2.949,0,0,0-1.051-5.357c1.74-2.256,3.313-6.162-.334-7.432,2.015-2.068,2.338-5.487-.907-6.454C65.56,1027.447,69.756,1024.94,68.6,1021.917Z" transform="translate(-23.654 -1008.759)" fill="url(#linear-gradient)"/>
  <g id="Group_129" data-name="Group 129" transform="translate(25.076 6.894)">
    <path id="Path_276" data-name="Path 276" d="M83.244,1027.093v-.024l-.78.5.008.162,1,.514-.06-1.07Zm-.4.542.317-.205.021.38Z" transform="translate(-78.368 -1022.918)" fill="#fff"/>
    <path id="Path_277" data-name="Path 277" d="M84.882,1028.239l.91-.576-.012-.245.014-.01-.752-.385v.016l-.219.141Zm.606-.693-.369.234-.025-.436Z" transform="translate(-79.558 -1022.895)" fill="#fff"/>
    <path id="Path_278" data-name="Path 278" d="M84.909,1024.8l.011.209.864.443.175-.114.225.115,1.19-.755-2.778-1.424.078,1.4Zm1.938-.078-.677.429-.091-.047-.134-.069-.127.082-.049.032-.594-.306,0-.057-.008-.151-.134-.069-.1-.052-.044-.8Z" transform="translate(-79.443 -1021.004)" fill="#fff"/>
    <path id="Path_279" data-name="Path 279" d="M83.637,1030.247l-.862.547.011.223-.045.029.785.4,0-.054.17-.11Zm-.57.671.334-.211.022.393Z" transform="translate(-78.509 -1024.52)" fill="#fff"/>
    <path id="Path_280" data-name="Path 280" d="M81.839,1032.616l-.008-.173-.9-.46-.145.094-.2-.1-1.221.774,2.74,1.4-.08-1.442Zm-1.949.108.708-.449.071.036.135.069.126-.082.018-.012.627.321v.022l.007.151.134.069.051.025.047.837Z" transform="translate(-76.806 -1025.39)" fill="#fff"/>
    <path id="Path_281" data-name="Path 281" d="M87.829,1027.3l.01.2-.171.11.05,1.005.214.11.01.208,1.221.625-.151-3.011Zm.368,1.47,0-.057-.008-.151-.134-.069-.08-.041-.035-.7.044-.028.127-.082-.008-.151,0-.048.676-.428.106,2.11Z" transform="translate(-80.991 -1022.655)" fill="#fff"/>
    <path id="Path_282" data-name="Path 282" d="M86.393,1031.894l-.229-.117-.8.517.009.185-.206.133.079,1.419,2.558-1.652-1.2-.618Zm.142.22.077-.05.667.342-1.8,1.162-.046-.818.078-.051.127-.082-.007-.151,0-.034.548-.354.095.049.134.069Z" transform="translate(-79.73 -1025.283)" fill="#fff"/>
    <path id="Path_283" data-name="Path 283" d="M84.1,1026.634l.281-.148a.371.371,0,0,0,.155-.5.37.37,0,0,0-.3-.2c0-.012.009-.025.014-.038a.929.929,0,0,1-.325-.749.371.371,0,0,0-.5-.156l-.588.31-.107-2.142.608.3a.371.371,0,0,0,.5-.172.372.372,0,0,1,.258-.5.346.346,0,0,1,.274-.528.371.371,0,0,0-.133-.505l-.3-.172.02-.29a.371.371,0,0,0-.2-.356.364.364,0,0,0-.144-.04.368.368,0,0,0-.324.151.372.372,0,0,0-.135-.118.372.372,0,0,1-.555.008.363.363,0,0,0-.144-.04.371.371,0,0,0-.394.345l-.049.7-2.035-1.043.538-.447a.371.371,0,0,0,.049-.521.38.38,0,0,0-.117-.093.359.359,0,0,0-.126-.038.319.319,0,0,0,.009-.053.367.367,0,0,0-.084-.271.361.361,0,0,0-.116-.093.367.367,0,0,0-.175-.041.35.35,0,0,0,.017-.082.368.368,0,0,0-.084-.271.352.352,0,0,0-.116-.093.369.369,0,0,0-.406.045l-.223.185-.312-.139a2.123,2.123,0,0,1-.758.718.373.373,0,0,1-.258.5.37.37,0,0,0,.15.5l.552.3-1.908,1.232-.106-.772a.371.371,0,0,0-.2-.28.371.371,0,0,0-.458.1.354.354,0,0,0-.1-.07.368.368,0,0,0-.219-.037.372.372,0,0,0-.267.177.361.361,0,0,0-.115-.092.369.369,0,0,0-.536.379l.039.288-.283.191a.372.372,0,0,0-.1.514.391.391,0,0,0,.139.123.086.086,0,1,1,.134.1.372.372,0,0,0,.188.428.359.359,0,0,0,.11.036.369.369,0,0,0,.028.3.379.379,0,0,0,.153.147.371.371,0,0,0,.353-.008l.683-.39.111,2.208-.612-.251a8.105,8.105,0,0,1-.736.7.372.372,0,0,1-.261.545.373.373,0,0,0,.172.469.255.255,0,0,0,.032.015l.292.12,0,.3a1.029,1.029,0,0,1,.824.318.377.377,0,0,0,.167.042.369.369,0,0,0,.288-.137.385.385,0,0,0,.112.087.373.373,0,0,0,.165.041.37.37,0,0,0,.374-.369l0-.6,1.906.977-.534.389a.371.371,0,0,0-.081.517.359.359,0,0,0,.131.112.363.363,0,0,0,.134.04.371.371,0,0,0,.058.313.361.361,0,0,0,.13.112.374.374,0,0,0,.18.041.4.4,0,0,0-.024.085.369.369,0,0,0,.067.276.38.38,0,0,0,.129.111.369.369,0,0,0,.387-.03l.245-.178.269.168a.259.259,0,0,0,.029.016,2.386,2.386,0,0,1,.771-.663.369.369,0,0,1,.253-.493.371.371,0,0,0,.047-.28.365.365,0,0,0-.165-.23l-.586-.367,1.808-1.168.067.647a.367.367,0,0,0,.2.292.377.377,0,0,0,.207.039.364.364,0,0,0,.249-.135l.014-.018a.368.368,0,0,0,.094.068.378.378,0,0,0,.207.039.22.22,0,0,1,.413-.086.377.377,0,0,0,.207.039.372.372,0,0,0,.33-.407Zm.159-.38-.437.23.05.477a.109.109,0,0,1-.1.119.11.11,0,0,1-.06-.011.107.107,0,0,1-.059-.086l-.053-.509-.43-.221.078.755a.109.109,0,0,1-.1.12.109.109,0,0,1-.12-.1l-.092-.895-.37-.19.114,1.109a.109.109,0,0,1-.1.119.1.1,0,0,1-.061-.012.107.107,0,0,1-.059-.085l-.111-1.072-2.512,1.623.936.585a.109.109,0,0,1-.106.189l-.009-.005-.925-.578.022.41.764.477a.109.109,0,0,1-.108.189l-.008,0-.634-.4.027.47.434.271a.109.109,0,0,1-.106.19l-.009-.005-.419-.262-.387.283a.111.111,0,0,1-.114.008.1.1,0,0,1-.038-.033.108.108,0,0,1,.023-.151l.4-.291-.027-.482-.6.435a.108.108,0,0,1-.114.009.1.1,0,0,1-.038-.033.108.108,0,0,1,.024-.151l.71-.518-.023-.414-.882.643a.109.109,0,0,1-.114.009.113.113,0,0,1-.038-.033.109.109,0,0,1,.024-.152l.877-.639-2.663-1.365-.006,1.024a.109.109,0,0,1-.11.109.117.117,0,0,1-.049-.012.11.11,0,0,1-.06-.1l.007-1.088-.35.222-.006.876a.109.109,0,1,1-.217,0l0-.737-.406.258,0,.493a.109.109,0,0,1-.109.108.107.107,0,0,1-.049-.012.109.109,0,0,1-.06-.1l0-.478-.458-.187-.01,0a.109.109,0,0,1,.093-.2l.474.193.4-.253-.693-.284-.01,0a.109.109,0,0,1,.092-.2l.836.342.347-.22-1.012-.415-.008,0a.109.109,0,0,1,.09-.2l.993.407-.152-3.044-1.054.6a.11.11,0,0,1-.1,0,.113.113,0,0,1-.045-.043.11.11,0,0,1,.041-.149l.981-.56-.371-.189-.794.452a.111.111,0,0,1-.1,0,.105.105,0,0,1-.044-.043.108.108,0,0,1,.041-.148l.671-.382-.47-.242-.409.276a.11.11,0,0,1-.151-.029.109.109,0,0,1,.029-.151l.417-.282-.061-.449a.11.11,0,0,1,.093-.122.108.108,0,0,1,.123.093l.065.475.418.214-.1-.706a.109.109,0,0,1,.093-.122.1.1,0,0,1,.064.011.111.111,0,0,1,.059.082l.117.857.364.186-.143-1.042a.11.11,0,0,1,.093-.122.111.111,0,0,1,.064.011.109.109,0,0,1,.059.082l.161,1.18,2.625-1.7-.941-.509a.109.109,0,0,1-.044-.147.1.1,0,0,1,.142-.047l.005,0,.931.5-.022-.409-.754-.408a.109.109,0,0,1-.044-.147.107.107,0,0,1,.143-.046l0,0,.636.344-.029-.516-.423-.189-.006,0a.109.109,0,0,1,.095-.2l.46.206.349-.291a.109.109,0,0,1,.119-.013.11.11,0,0,1,.019.181l-.394.328.027.478.586-.487a.109.109,0,0,1,.119-.013.116.116,0,0,1,.034.028.108.108,0,0,1-.014.153l-.71.59.023.416.865-.718a.108.108,0,0,1,.119-.013.1.1,0,0,1,.034.027.109.109,0,0,1-.014.153l-.844.7,2.741,1.405.076-1.094a.109.109,0,0,1,.117-.1.1.1,0,0,1,.042.011.111.111,0,0,1,.059.1l-.074,1.063.351-.223.06-.864a.109.109,0,0,1,.116-.1.106.106,0,0,1,.043.012.108.108,0,0,1,.059.1l-.049.7.387-.246a.09.09,0,0,1,.016-.006l.032-.461a.109.109,0,0,1,.117-.1.106.106,0,0,1,.042.011.11.11,0,0,1,.059.1l-.032.452.436.254a.109.109,0,0,1-.1.191l0,0-.444-.258-.44.28.7.339,0,0a.111.111,0,0,1,.046.144.109.109,0,0,1-.145.05l-.82-.4-.346.219,1,.487,0,0a.107.107,0,0,1,.046.143.11.11,0,0,1-.146.05l-1-.488.149,2.993.949-.5a.109.109,0,0,1,.147.045.108.108,0,0,1-.045.147l-.944.5.364.186.778-.41a.106.106,0,0,1,.1,0,.1.1,0,0,1,.046.046.108.108,0,0,1-.045.147l-.643.339.419.214.435-.23a.11.11,0,0,1,.1,0,.107.107,0,0,1,.046.046A.109.109,0,0,1,84.259,1026.255Z" transform="translate(-74.208 -1018.7)" fill="#fff"/>
    <path id="Path_284" data-name="Path 284" d="M85.261,1031.335l0,.041.722-.467-.01-.211-.994-.509.059,1.033Zm.38-.514-.35.226-.023-.417Z" transform="translate(-79.637 -1024.49)" fill="#fff"/>
    <path id="Path_285" data-name="Path 285" d="M86.33,1028.741l-.019.012-.183-.093-.906.574.99.507.163-.105Zm-.582.469.332-.21.019.391Z" transform="translate(-79.758 -1023.72)" fill="#fff"/>
    <path id="Path_286" data-name="Path 286" d="M82.085,1029.786l.2.1.874-.555-1.007-.516-.15.1.044.893Zm.551-.427-.336.213-.02-.4Z" transform="translate(-78.138 -1023.8)" fill="#fff"/>
    <path id="Path_287" data-name="Path 287" d="M80.21,1029.088l.155-.1-.048-.954-.258-.132-.012-.243-1.177-.6.151,3.016,1.2-.761Zm-.95.522-.106-2.115.638.327,0,.092.008.151.133.069.124.063.032.652-.028.018-.126.082.007.151,0,.07Z" transform="translate(-76.557 -1022.911)" fill="#fff"/>
    <path id="Path_288" data-name="Path 288" d="M80.438,1025.505l.242.124.847-.546-.01-.2.158-.1-.078-1.4-2.526,1.632,1.191.61Zm-.142-.22-.049.031-.654-.335,1.767-1.141.044.8-.03.019-.126.082.007.151,0,.052-.593.382-.108-.056-.135-.069Z" transform="translate(-76.658 -1021.057)" fill="#fff"/>
  </g>
  <g id="Group_130" data-name="Group 130" transform="translate(5.278 24.288)">
    <path id="Path_289" data-name="Path 289" d="M41.513,1060.472v-.019l-.623.4.006.129.8.411-.048-.854Zm-.315.433.253-.164.016.3Z" transform="translate(-37.618 -1057.137)" fill="#fff"/>
    <path id="Path_290" data-name="Path 290" d="M42.822,1061.388l.727-.461-.01-.2.011-.007-.6-.308v.013l-.175.113Zm.484-.555-.295.188-.02-.348Z" transform="translate(-38.569 -1057.118)" fill="#fff"/>
    <path id="Path_291" data-name="Path 291" d="M42.844,1058.639l.008.167.69.354.141-.091.179.092.951-.6-2.22-1.137.063,1.122Zm1.548-.062-.541.343-.073-.037-.107-.055-.1.065-.039.025-.475-.244,0-.046-.006-.12-.108-.056-.081-.041-.035-.639Z" transform="translate(-38.477 -1055.608)" fill="#fff"/>
    <path id="Path_292" data-name="Path 292" d="M41.827,1062.992l-.688.437.009.179-.036.023.627.321,0-.043.136-.088Zm-.455.536.266-.169.017.314Z" transform="translate(-37.731 -1058.417)" fill="#fff"/>
    <path id="Path_293" data-name="Path 293" d="M40.392,1064.885l-.007-.138-.716-.367-.116.075-.163-.083-.975.619,2.188,1.122-.064-1.152Zm-1.557.086.565-.359.057.029.107.055.1-.065.014-.01.5.257v.018l.005.12.108.055.04.021.038.668Z" transform="translate(-36.371 -1059.112)" fill="#fff"/>
    <path id="Path_294" data-name="Path 294" d="M45.176,1060.636l.008.16-.137.088.04.8.172.088.008.167.975.5-.12-2.405Zm.294,1.175,0-.046-.006-.12-.108-.056-.064-.032-.028-.562.035-.022.1-.066-.006-.121,0-.038.54-.343.084,1.686Z" transform="translate(-39.714 -1056.927)" fill="#fff"/>
    <path id="Path_295" data-name="Path 295" d="M44.029,1064.308l-.183-.094-.64.414.007.148-.165.106.063,1.134,2.044-1.32-.962-.493Zm.114.176.062-.04.533.273-1.437.929-.036-.654.062-.041.1-.065-.006-.12v-.027l.438-.283.075.039.107.055Z" transform="translate(-38.706 -1059.026)" fill="#fff"/>
    <path id="Path_296" data-name="Path 296" d="M42.2,1060.106l.224-.119a.3.3,0,0,0-.116-.557.256.256,0,0,0,.011-.03.3.3,0,0,0-.147-.351.282.282,0,0,0-.089-.028.3.3,0,0,0-.023-.219.288.288,0,0,0-.126-.125.3.3,0,0,0-.273,0l-.469.248-.085-1.711.486.236a.3.3,0,0,0,.4-.137.3.3,0,0,0,.008-.244.641.641,0,0,1,.417-.58.3.3,0,0,0-.107-.4l-.236-.137.016-.232a.3.3,0,0,0-.16-.283.3.3,0,0,0-.116-.032.294.294,0,0,0-.258.121.3.3,0,0,0-.108-.095.3.3,0,0,0-.359.07.3.3,0,0,0-.2-.1.3.3,0,0,0-.314.275l-.039.558L38.9,1055.4l.43-.357a.3.3,0,0,0-.054-.491.3.3,0,0,0-.1-.031.235.235,0,0,0,.007-.043.292.292,0,0,0-.067-.216.3.3,0,0,0-.092-.074.3.3,0,0,0-.139-.032.319.319,0,0,0,.013-.065.291.291,0,0,0-.067-.216.281.281,0,0,0-.092-.074.3.3,0,0,0-.324.036l-.178.148-.249-.112a1.682,1.682,0,0,1-.605.574.3.3,0,0,1-.206.4.3.3,0,0,0,.12.4l.441.239-1.524.985-.084-.617a.3.3,0,0,0-.525-.144.279.279,0,0,0-.076-.056.29.29,0,0,0-.175-.03.3.3,0,0,0-.213.141.3.3,0,0,0-.092-.074.3.3,0,0,0-.428.3l.031.229-.226.153a.3.3,0,0,0-.08.411.307.307,0,0,0,.111.1.289.289,0,0,0,.126.032.33.33,0,0,0-.019.051.292.292,0,0,0,.028.225.3.3,0,0,0,.122.117.314.314,0,0,0,.088.029.3.3,0,0,0,.023.242.3.3,0,0,0,.122.117.3.3,0,0,0,.282-.006l.546-.312.088,1.763-.489-.2a.3.3,0,0,0-.388.382.293.293,0,0,0-.2.173.3.3,0,0,0,.014.256.3.3,0,0,0-.085.554l.026.011.233.1v.241a.294.294,0,0,0,.161.266.3.3,0,0,0,.136.033.3.3,0,0,0,.25-.141.294.294,0,0,0,.111.1.3.3,0,0,0,.133.033.3.3,0,0,0,.23-.109.308.308,0,0,0,.089.069.3.3,0,0,0,.431-.262l0-.478,1.522.78-.426.311a.3.3,0,0,0,.039.5.282.282,0,0,0,.108.031.294.294,0,0,0,.15.34.291.291,0,0,0,.144.033.276.276,0,0,0-.019.068.293.293,0,0,0,.054.22.305.305,0,0,0,.1.089.3.3,0,0,0,.309-.024l.2-.142.215.134.023.012a1.925,1.925,0,0,1,.616-.53.295.295,0,0,1,.2-.394.3.3,0,0,0,.037-.224.291.291,0,0,0-.132-.184l-.468-.293,1.444-.933.054.517a.294.294,0,0,0,.159.233.3.3,0,0,0,.166.031.293.293,0,0,0,.2-.108l.012-.015a.287.287,0,0,0,.075.054.3.3,0,0,0,.165.031.3.3,0,0,0,.23-.154.3.3,0,0,0,.267.116.3.3,0,0,0,.263-.325Zm.126-.3-.349.184.04.381a.087.087,0,0,1-.077.1.089.089,0,0,1-.049-.009.087.087,0,0,1-.047-.068l-.042-.407-.343-.176.062.6a.087.087,0,0,1-.077.1.089.089,0,0,1-.049-.009.088.088,0,0,1-.047-.069l-.073-.715-.3-.151.091.885a.087.087,0,0,1-.077.1.085.085,0,0,1-.049-.009.087.087,0,0,1-.047-.068l-.089-.857-2.007,1.3.747.468a.086.086,0,0,1,.028.119.087.087,0,0,1-.112.033l-.007-.005-.739-.462.018.327.611.381a.087.087,0,0,1,.027.12.089.089,0,0,1-.114.032l-.006,0-.506-.317.021.376.346.216a.087.087,0,0,1-.085.152l-.007,0-.335-.209-.31.225a.087.087,0,0,1-.1-.141l.319-.232-.021-.384-.477.347a.086.086,0,0,1-.091.007.078.078,0,0,1-.03-.026.085.085,0,0,1,.019-.12l.567-.414-.019-.33-.7.513a.088.088,0,0,1-.092.007.084.084,0,0,1-.03-.026.087.087,0,0,1,.019-.121l.7-.511-2.126-1.09,0,.818a.087.087,0,0,1-.087.087.1.1,0,0,1-.039-.01.087.087,0,0,1-.048-.078l.006-.87-.28.177,0,.7a.087.087,0,0,1-.174,0l0-.588-.325.206,0,.394a.087.087,0,0,1-.087.086.086.086,0,0,1-.039-.009.087.087,0,0,1-.048-.078l0-.382-.366-.15-.008,0a.087.087,0,0,1,.074-.157l.378.155.318-.2-.554-.227-.008,0a.087.087,0,0,1,.073-.157l.668.273.277-.176-.809-.331-.006,0a.087.087,0,0,1,.072-.158l.793.325-.122-2.432-.841.48a.085.085,0,0,1-.083,0,.084.084,0,0,1-.036-.034.086.086,0,0,1,.032-.118l.784-.448-.3-.151-.634.361a.088.088,0,0,1-.083,0,.087.087,0,0,1,0-.152l.536-.306-.376-.193-.326.22a.085.085,0,0,1-.088.006.087.087,0,0,1-.009-.149l.333-.225-.049-.359a.087.087,0,0,1,.074-.1.085.085,0,0,1,.051.008.088.088,0,0,1,.047.066l.052.379.334.171-.077-.564a.087.087,0,0,1,.074-.1.085.085,0,0,1,.051.008.088.088,0,0,1,.047.066l.093.685.29.149-.114-.833a.087.087,0,0,1,.074-.1.089.089,0,0,1,.051.008.086.086,0,0,1,.047.067l.128.943,2.1-1.355-.752-.407a.087.087,0,0,1-.035-.118.085.085,0,0,1,.114-.038l0,0,.744.4-.018-.326-.6-.325a.088.088,0,0,1-.035-.118.086.086,0,0,1,.115-.037l0,0,.508.275-.022-.412-.338-.151,0,0a.087.087,0,0,1,.075-.157l.368.165.279-.232a.086.086,0,0,1,.1-.01.067.067,0,0,1,.027.021.086.086,0,0,1-.011.122l-.315.262.021.382.469-.389a.087.087,0,0,1,.1-.01.082.082,0,0,1,.027.022.086.086,0,0,1-.011.122l-.567.472.018.332.691-.574a.086.086,0,0,1,.1-.01.085.085,0,0,1,.027.021.088.088,0,0,1-.011.123l-.674.56,2.189,1.122.061-.874a.087.087,0,0,1,.093-.081.082.082,0,0,1,.033.009.087.087,0,0,1,.047.083l-.059.85.281-.179.048-.69a.087.087,0,0,1,.093-.08.087.087,0,0,1,.081.093l-.039.562.309-.2a.05.05,0,0,1,.013-.005l.026-.368a.087.087,0,0,1,.093-.081.083.083,0,0,1,.034.01.087.087,0,0,1,.047.083l-.025.362.348.2a.089.089,0,0,1,.031.119.088.088,0,0,1-.115.034l0,0-.354-.206-.352.223.559.271,0,0a.087.087,0,0,1-.079.155l-.655-.318-.276.176.8.388,0,0a.087.087,0,0,1,.037.115.088.088,0,0,1-.117.04l-.8-.39.12,2.391.758-.4a.088.088,0,0,1,.08,0,.083.083,0,0,1,.037.036.087.087,0,0,1-.036.118l-.754.4.291.149.622-.327a.085.085,0,0,1,.08,0,.082.082,0,0,1,.037.037.086.086,0,0,1-.036.117l-.513.271.334.171.347-.184a.089.089,0,0,1,.081,0,.087.087,0,0,1,0,.154Z" transform="translate(-34.295 -1053.768)" fill="#fff"/>
    <path id="Path_297" data-name="Path 297" d="M43.125,1063.861v.032l.577-.373-.008-.169-.794-.407.046.825Zm.3-.411-.279.18-.018-.334Z" transform="translate(-38.633 -1058.393)" fill="#fff"/>
    <path id="Path_298" data-name="Path 298" d="M43.978,1061.789l-.015.009-.146-.075-.724.459.791.405.13-.084Zm-.464.374.265-.168.015.312Z" transform="translate(-38.729 -1057.778)" fill="#fff"/>
    <path id="Path_299" data-name="Path 299" d="M40.587,1062.623l.163.083.7-.443-.805-.412-.12.077.036.713Zm.44-.341-.268.171-.016-.316Z" transform="translate(-37.434 -1057.842)" fill="#fff"/>
    <path id="Path_300" data-name="Path 300" d="M39.09,1062.066l.124-.08-.038-.762-.206-.106-.01-.194-.939-.482.12,2.409.958-.608Zm-.759.417-.084-1.689.51.262,0,.073.006.12.107.055.1.051.026.521-.022.015-.1.065.006.12,0,.056Z" transform="translate(-36.172 -1057.131)" fill="#fff"/>
    <path id="Path_301" data-name="Path 301" d="M39.272,1059.2l.194.1.676-.436-.008-.162.126-.081-.062-1.12-2.018,1.3.952.488Zm-.114-.176-.039.025-.522-.268,1.412-.912.036.64-.024.015-.1.066.006.12v.041l-.473.305-.086-.044-.108-.055Z" transform="translate(-36.252 -1055.65)" fill="#fff"/>
  </g>
  <g id="Group_131" data-name="Group 131" transform="translate(29.135 20.589)">
    <path id="Path_302" data-name="Path 302" d="M87.832,1051.363v-.014l-.469.3,0,.1.6.31-.036-.644Zm-.238.327.191-.124.012.228Z" transform="translate(-84.896 -1048.849)" fill="#fff"/>
    <path id="Path_303" data-name="Path 303" d="M88.819,1052.054l.548-.348-.008-.147.008-.006-.453-.232v.01l-.131.085Zm.365-.418-.222.141-.015-.262Z" transform="translate(-85.612 -1048.835)" fill="#fff"/>
    <path id="Path_304" data-name="Path 304" d="M88.835,1049.981l.006.126.52.267.106-.069.135.069.717-.454-1.674-.858.048.846Zm1.167-.047-.408.259-.055-.028-.081-.042-.076.05-.03.019-.358-.183v-.035l0-.091-.081-.041-.062-.032-.026-.481Z" transform="translate(-85.543 -1047.697)" fill="#fff"/>
    <path id="Path_305" data-name="Path 305" d="M88.069,1053.262l-.519.329.007.135-.027.018.473.242v-.032l.1-.066Zm-.344.4.2-.127.013.237Z" transform="translate(-84.981 -1049.813)" fill="#fff"/>
    <path id="Path_306" data-name="Path 306" d="M86.987,1054.689l-.005-.1-.54-.277-.087.057-.123-.063-.735.466,1.65.846-.049-.868Zm-1.174.065.426-.27.043.021.081.042.076-.049.011-.007.378.193v.014l0,.091.081.041.03.016.028.5Z" transform="translate(-83.956 -1050.337)" fill="#fff"/>
    <path id="Path_307" data-name="Path 307" d="M90.593,1051.487l.006.12-.1.066.03.606.129.066.006.126.735.377-.091-1.813Zm.221.886,0-.035,0-.091-.081-.042-.048-.024-.021-.424.026-.016.076-.05,0-.091v-.028l.407-.258.064,1.271Z" transform="translate(-86.476 -1048.691)" fill="#fff"/>
    <path id="Path_308" data-name="Path 308" d="M89.729,1054.255l-.138-.071-.482.312.005.111-.124.08.048.855,1.54-.995-.725-.372Zm.085.132.047-.03.4.206-1.083.7-.027-.493.047-.031.077-.049,0-.091v-.02l.33-.213.057.029.081.042Z" transform="translate(-85.716 -1050.273)" fill="#fff"/>
    <path id="Path_309" data-name="Path 309" d="M88.348,1051.087l.169-.089a.224.224,0,0,0,.093-.3.219.219,0,0,0-.1-.094.212.212,0,0,0-.085-.024.178.178,0,0,0,.008-.023.219.219,0,0,0-.016-.17.226.226,0,0,0-.1-.094.2.2,0,0,0-.067-.021.227.227,0,0,0-.017-.165.223.223,0,0,0-.1-.094.225.225,0,0,0-.206,0l-.353.187-.064-1.29.366.178a3.765,3.765,0,0,1,.454-.407.208.208,0,0,1,.165-.318.224.224,0,0,0-.08-.3l-.178-.1.012-.175a.722.722,0,0,1-.484-.218.231.231,0,0,0-.088-.024.223.223,0,0,0-.184.077.213.213,0,0,0-.062-.048.218.218,0,0,0-.087-.024.223.223,0,0,0-.238.207l-.03.42-1.225-.628.324-.269a.223.223,0,0,0-.04-.37.226.226,0,0,0-.076-.023.23.23,0,0,0,.005-.032.225.225,0,0,0-.121-.219.217.217,0,0,0-.105-.024.2.2,0,0,0,.01-.05.22.22,0,0,0-.051-.163.221.221,0,0,0-.314-.029l-.134.112-.187-.084a1.26,1.26,0,0,1-.456.432.226.226,0,0,0-.01.191.224.224,0,0,0-.056.415l.333.18-1.149.742-.064-.465a.662.662,0,0,1-.453-.151.218.218,0,0,0-.131-.022.222.222,0,0,0-.161.106.211.211,0,0,0-.069-.056.222.222,0,0,0-.322.229l.023.173-.17.116a.224.224,0,0,0-.061.31.227.227,0,0,0,.083.073.212.212,0,0,0,.1.024.3.3,0,0,0-.014.039.225.225,0,0,0,.021.17.23.23,0,0,0,.092.088.22.22,0,0,0,.066.021.223.223,0,0,0,.321.266l.412-.235.066,1.329-.369-.151a4.706,4.706,0,0,1-.443.419.223.223,0,0,1-.157.328.224.224,0,0,0,.1.283l.02.009.176.072v.181a.221.221,0,0,0,.121.2.23.23,0,0,0,.1.025.222.222,0,0,0,.189-.106.225.225,0,0,0,.083.073.229.229,0,0,0,.1.025.224.224,0,0,0,.174-.082.247.247,0,0,0,.067.052.226.226,0,0,0,.1.024.223.223,0,0,0,.225-.222l0-.361,1.147.588-.321.234a.224.224,0,0,0-.049.312.217.217,0,0,0,.079.067.221.221,0,0,0,.081.024.226.226,0,0,0,.035.189.215.215,0,0,0,.078.067.224.224,0,0,0,.108.025.251.251,0,0,0-.014.051.224.224,0,0,0,.041.166.237.237,0,0,0,.078.067.223.223,0,0,0,.233-.018l.147-.107.162.1.017.009a1.437,1.437,0,0,1,.465-.4.223.223,0,0,1,.152-.3.221.221,0,0,0,.028-.169.219.219,0,0,0-.1-.138l-.353-.221,1.088-.7.041.39a.223.223,0,0,0,.12.176.232.232,0,0,0,.125.023.221.221,0,0,0,.15-.081l.008-.011a.224.224,0,0,0,.182.064.223.223,0,0,0,.173-.115.227.227,0,0,0,.2.087.224.224,0,0,0,.2-.245Zm.1-.229-.263.139.03.287a.065.065,0,0,1-.059.071.069.069,0,0,1-.036-.006.066.066,0,0,1-.036-.052l-.031-.307-.259-.133.047.455a.066.066,0,0,1-.058.072.069.069,0,0,1-.036-.007.066.066,0,0,1-.036-.052l-.055-.539-.223-.114.068.668a.065.065,0,0,1-.059.072.063.063,0,0,1-.036-.007.063.063,0,0,1-.035-.051l-.067-.645-1.513.977.564.353a.065.065,0,0,1-.064.114l-.005,0-.557-.348.014.247.46.287a.066.066,0,0,1-.065.114l0,0-.382-.239.016.283.261.163a.066.066,0,0,1-.063.115l-.006,0-.252-.158-.234.17a.067.067,0,0,1-.068.005.073.073,0,0,1-.023-.02.066.066,0,0,1,.014-.092l.24-.175-.016-.29-.36.262a.065.065,0,0,1-.068.005.057.057,0,0,1-.023-.02.066.066,0,0,1,.014-.091l.428-.312-.014-.25-.531.387a.066.066,0,0,1-.069.005.06.06,0,0,1-.023-.019.065.065,0,0,1,.014-.091l.528-.385-1.6-.822,0,.617a.065.065,0,0,1-.065.066.067.067,0,0,1-.065-.066l0-.655-.21.134,0,.528a.065.065,0,0,1-.065.065.063.063,0,0,1-.029-.007.065.065,0,0,1-.036-.059l0-.443-.245.155,0,.3a.066.066,0,0,1-.066.065.058.058,0,0,1-.029-.007.066.066,0,0,1-.036-.059l0-.288-.275-.113-.006,0a.066.066,0,0,1-.03-.083.067.067,0,0,1,.086-.036l.285.117.241-.152-.418-.171-.006,0a.066.066,0,0,1,.056-.119l.5.206.209-.133-.61-.25-.005,0a.066.066,0,0,1,.055-.119l.6.245-.092-1.833-.634.362a.065.065,0,0,1-.062,0,.067.067,0,0,1-.027-.026.066.066,0,0,1,.025-.089l.591-.337-.223-.114-.478.272a.064.064,0,0,1-.063,0,.069.069,0,0,1-.027-.026.066.066,0,0,1,.024-.089l.4-.23-.283-.145-.246.166a.064.064,0,0,1-.066,0,.06.06,0,0,1-.024-.022.065.065,0,0,1,.017-.091l.251-.17-.037-.27a.065.065,0,0,1,.056-.073.059.059,0,0,1,.039.007.066.066,0,0,1,.035.049l.039.286.252.129-.058-.425a.065.065,0,0,1,.056-.073.056.056,0,0,1,.038.007.066.066,0,0,1,.036.05l.07.515.219.113-.086-.627a.066.066,0,0,1,.095-.068.063.063,0,0,1,.035.05l.1.711,1.58-1.021-.566-.306a.067.067,0,0,1-.027-.089.064.064,0,0,1,.086-.028l0,0,.561.3-.013-.246-.454-.245a.066.066,0,0,1-.026-.089.064.064,0,0,1,.086-.028h0l.383.207-.017-.31-.254-.114h0a.066.066,0,0,1,.058-.118l.277.124.21-.175a.065.065,0,0,1,.071-.008.059.059,0,0,1,.021.017.065.065,0,0,1-.009.092l-.237.2.016.288.354-.293a.065.065,0,0,1,.092.008.066.066,0,0,1-.008.093l-.428.355.013.25.521-.432a.066.066,0,0,1,.072-.007.052.052,0,0,1,.02.016.065.065,0,0,1-.008.092l-.508.422,1.651.846.046-.659a.066.066,0,0,1,.07-.061.059.059,0,0,1,.025.007.067.067,0,0,1,.036.063l-.045.641.211-.134.036-.521a.065.065,0,0,1,.07-.06.059.059,0,0,1,.025.007.066.066,0,0,1,.036.063l-.03.424.233-.148.01,0,.019-.277a.066.066,0,0,1,.1-.054.066.066,0,0,1,.035.063l-.019.273.262.153a.065.065,0,0,1-.063.115l0,0-.267-.155-.266.168.422.2h0a.066.066,0,0,1-.06.117l-.494-.24-.208.132.6.293h0a.065.065,0,0,1,.028.086.065.065,0,0,1-.087.03l-.606-.294.09,1.8.571-.3a.065.065,0,0,1,.061,0,.071.071,0,0,1,.028.028.065.065,0,0,1-.027.088l-.569.3.22.113.468-.247a.064.064,0,0,1,.061,0,.06.06,0,0,1,.028.028.065.065,0,0,1-.027.088l-.387.2.252.129.262-.138a.068.068,0,0,1,.061,0,.064.064,0,0,1,.028.028A.065.065,0,0,1,88.443,1050.858Z" transform="translate(-82.391 -1046.309)" fill="#fff"/>
    <path id="Path_310" data-name="Path 310" d="M89.047,1053.917v.025l.435-.281-.006-.127-.6-.307.035.622Zm.229-.31-.21.136-.014-.25Z" transform="translate(-85.661 -1049.796)" fill="#fff"/>
    <path id="Path_311" data-name="Path 311" d="M89.69,1052.356l-.011.007-.11-.057-.546.346.6.306.1-.063Zm-.35.282.2-.127.011.236Z" transform="translate(-85.733 -1049.332)" fill="#fff"/>
    <path id="Path_312" data-name="Path 312" d="M87.135,1052.984l.123.063.527-.334-.607-.311-.09.059.027.538Zm.332-.257-.2.128-.012-.239Z" transform="translate(-84.758 -1049.38)" fill="#fff"/>
    <path id="Path_313" data-name="Path 313" d="M86.005,1052.564l.093-.06-.029-.575-.155-.079-.007-.146-.709-.364.091,1.816.723-.459Zm-.572.315-.063-1.274.385.2,0,.055,0,.091.081.042.075.038.019.393-.017.011-.076.05,0,.091,0,.042Z" transform="translate(-83.806 -1048.845)" fill="#fff"/>
    <path id="Path_314" data-name="Path 314" d="M86.142,1050.407l.146.075.51-.329-.006-.122.1-.062-.047-.844-1.521.982.718.368Zm-.085-.132-.03.019-.394-.2,1.064-.687.027.482-.018.011-.076.05,0,.091v.031l-.357.23-.065-.033-.081-.042Z" transform="translate(-83.866 -1047.728)" fill="#fff"/>
  </g>
  <g id="Group_132" data-name="Group 132" transform="translate(9.59 3.274)">
    <path id="Path_315" data-name="Path 315" d="M49.911,1017.833v-.018l-.6.386.006.124.769.394-.046-.82Zm-.3.416.243-.157.016.29Z" transform="translate(-46.175 -1014.634)" fill="#fff"/>
    <path id="Path_316" data-name="Path 316" d="M51.166,1018.711l.7-.442-.009-.188.01-.007-.576-.3v.013l-.168.108Zm.464-.532-.283.18-.019-.334Z" transform="translate(-47.086 -1014.615)" fill="#fff"/>
    <path id="Path_317" data-name="Path 317" d="M51.187,1016.074l.008.16.662.339.134-.087.172.088.912-.578-2.129-1.091.06,1.076Zm1.486-.06-.519.329-.07-.035-.1-.053-.1.063-.037.024-.456-.234,0-.044-.005-.116-.1-.053-.078-.04-.034-.613Z" transform="translate(-46.999 -1013.167)" fill="#fff"/>
    <path id="Path_318" data-name="Path 318" d="M50.212,1020.249l-.66.419.009.171-.034.022.6.308,0-.041.13-.084Zm-.436.514.255-.162.017.3Z" transform="translate(-46.283 -1015.861)" fill="#fff"/>
    <path id="Path_319" data-name="Path 319" d="M48.834,1022.064l-.006-.133-.687-.352-.111.072-.157-.08-.936.594,2.1,1.076-.062-1.1Zm-1.494.082.543-.344.055.028.1.053.1-.063.014-.009.48.246v.017l.005.116.1.053.038.02.036.641Z" transform="translate(-44.978 -1016.527)" fill="#fff"/>
    <path id="Path_320" data-name="Path 320" d="M53.424,1017.989l.008.154-.131.084.039.771.164.084.008.16.935.479-.115-2.307Zm.282,1.127,0-.044-.005-.116-.1-.053-.062-.031-.027-.539.033-.022.1-.062-.006-.116,0-.037.518-.328.081,1.618Z" transform="translate(-48.185 -1014.432)" fill="#fff"/>
    <path id="Path_321" data-name="Path 321" d="M52.324,1021.511l-.176-.09-.615.4.007.142-.158.1.061,1.088,1.96-1.266-.924-.473Zm.109.168.06-.038.511.262-1.378.89-.035-.627.06-.039.1-.063-.006-.116v-.026l.42-.271.072.037.1.053Z" transform="translate(-47.219 -1016.446)" fill="#fff"/>
    <path id="Path_322" data-name="Path 322" d="M50.567,1017.481l.215-.113a.285.285,0,0,0,.119-.383.281.281,0,0,0-.122-.12.3.3,0,0,0-.109-.031c0-.009.007-.018.01-.028a.284.284,0,0,0-.141-.336.273.273,0,0,0-.086-.028.286.286,0,0,0-.143-.33.286.286,0,0,0-.262,0l-.45.237-.081-1.641.466.226a.284.284,0,0,0,.217.013.281.281,0,0,0,.162-.144.286.286,0,0,1,.2-.387.264.264,0,0,1,.209-.4.285.285,0,0,0-.1-.388l-.226-.131.015-.222A.284.284,0,0,0,50.3,1013a.281.281,0,0,0-.111-.031.284.284,0,0,0-.249.117.28.28,0,0,0-.1-.091.285.285,0,0,0-.112-.03.28.28,0,0,0-.233.1.27.27,0,0,0-.08-.061.293.293,0,0,0-.111-.031.285.285,0,0,0-.3.264l-.038.535-1.559-.8.413-.343a.284.284,0,0,0-.051-.471.3.3,0,0,0-.1-.029.288.288,0,0,0-.058-.248.286.286,0,0,0-.089-.071.277.277,0,0,0-.133-.032.315.315,0,0,0,.013-.062.282.282,0,0,0-.064-.208.278.278,0,0,0-.089-.071.282.282,0,0,0-.311.035l-.171.142-.239-.107a1.617,1.617,0,0,1-.58.55.286.286,0,0,1-.2.386.283.283,0,0,0,.115.385l.424.229-1.462.944-.081-.592a.283.283,0,0,0-.5-.138.293.293,0,0,0-.073-.054.283.283,0,0,0-.373.107.279.279,0,0,0-.088-.071.284.284,0,0,0-.411.291l.03.221-.216.146a.284.284,0,0,0-.077.394.291.291,0,0,0,.106.093.28.28,0,0,0,.122.031.329.329,0,0,0-.018.049.284.284,0,0,0,.144.327.3.3,0,0,0,.085.029.279.279,0,0,0,.021.232.283.283,0,0,0,.387.106l.524-.3.085,1.691-.469-.192a6.414,6.414,0,0,1-.563.532.285.285,0,0,1-.2.418.285.285,0,0,0,.131.36l.025.011.224.092v.231a.283.283,0,0,0,.155.255.288.288,0,0,0,.13.031.283.283,0,0,0,.241-.135.286.286,0,0,0,.234.125.283.283,0,0,0,.221-.1.284.284,0,0,0,.5-.185l0-.459,1.46.748-.408.3a.283.283,0,0,0,.038.482.266.266,0,0,0,.1.03.283.283,0,0,0,.045.241.286.286,0,0,0,.237.116.334.334,0,0,0-.018.066.278.278,0,0,0,.052.211.283.283,0,0,0,.4.062l.187-.136.206.129.022.012a1.84,1.84,0,0,1,.59-.509.282.282,0,0,1,.194-.378.284.284,0,0,0-.09-.391l-.449-.281,1.385-.895.051.5a.282.282,0,0,0,.153.223.291.291,0,0,0,.159.03.286.286,0,0,0,.19-.1l.011-.015a.27.27,0,0,0,.072.052.284.284,0,0,0,.379-.117.282.282,0,0,0,.1.081.29.29,0,0,0,.159.03.284.284,0,0,0,.252-.312Zm.121-.291-.334.177.038.365a.084.084,0,0,1-.074.091.087.087,0,0,1-.047-.008.084.084,0,0,1-.045-.066l-.04-.39-.329-.168.06.578a.083.083,0,0,1-.074.091.079.079,0,0,1-.046-.009.08.08,0,0,1-.045-.065l-.071-.686-.283-.145.087.849a.083.083,0,0,1-.074.091.08.08,0,0,1-.047-.009.081.081,0,0,1-.044-.065l-.085-.821-1.925,1.243.717.449a.083.083,0,0,1-.081.145l-.007,0-.708-.442.017.313.586.366a.084.084,0,0,1-.082.145l-.006,0-.486-.3.02.361.332.208a.083.083,0,0,1,.026.115.082.082,0,0,1-.108.03l-.007,0-.321-.2-.3.216a.081.081,0,0,1-.087.006.078.078,0,0,1-.029-.025.083.083,0,0,1,.018-.116l.306-.223-.02-.369-.457.334a.085.085,0,0,1-.087.006.088.088,0,0,1-.029-.025.083.083,0,0,1,.019-.117l.544-.4-.017-.318-.676.493a.082.082,0,0,1-.087.006.078.078,0,0,1-.029-.025.084.084,0,0,1,.018-.117l.672-.489-2.039-1.046,0,.785a.083.083,0,0,1-.084.083.076.076,0,0,1-.037-.009.083.083,0,0,1-.046-.074l.005-.834-.268.17,0,.672a.083.083,0,0,1-.083.083.086.086,0,0,1-.038-.009.085.085,0,0,1-.046-.075l0-.565-.312.2,0,.378a.083.083,0,0,1-.083.083.1.1,0,0,1-.038-.008.086.086,0,0,1-.045-.076l0-.367-.351-.144-.008,0a.082.082,0,0,1-.037-.1.083.083,0,0,1,.109-.046l.363.149.306-.194-.531-.217-.007,0a.083.083,0,0,1-.038-.105.084.084,0,0,1,.109-.046l.641.262.266-.169-.776-.317-.006,0a.082.082,0,0,1-.039-.106.084.084,0,0,1,.109-.046l.761.312-.117-2.333-.808.461a.083.083,0,0,1-.079,0,.087.087,0,0,1-.034-.033.083.083,0,0,1,.031-.114l.752-.429-.284-.145-.608.347a.083.083,0,1,1-.083-.144l.514-.293-.36-.185-.313.211a.083.083,0,0,1-.085.005.091.091,0,0,1-.031-.027.082.082,0,0,1,.022-.116l.32-.216-.047-.344a.084.084,0,0,1,.071-.094.08.08,0,0,1,.049.009.082.082,0,0,1,.044.062l.05.364.32.164-.074-.541a.083.083,0,0,1,.071-.094.078.078,0,0,1,.05.008.085.085,0,0,1,.045.063l.089.656.279.143-.109-.8a.084.084,0,0,1,.071-.094.083.083,0,0,1,.049.009.081.081,0,0,1,.045.063l.124.9,2.011-1.3-.722-.39a.083.083,0,0,1-.033-.113.081.081,0,0,1,.109-.036l0,0,.713.386-.017-.313-.578-.313a.083.083,0,0,1-.033-.113.081.081,0,0,1,.11-.035h0l.488.263-.022-.395-.323-.145,0,0a.083.083,0,0,1,.072-.15l.353.158.267-.222a.083.083,0,0,1,.091-.01.079.079,0,0,1,.026.021.083.083,0,0,1-.01.117l-.3.251.02.367.449-.373a.084.084,0,0,1,.091-.01.078.078,0,0,1,.026.021.084.084,0,0,1-.01.118l-.545.452.018.318.663-.55a.084.084,0,0,1,.092-.01.1.1,0,0,1,.026.021.084.084,0,0,1-.011.117l-.646.537,2.1,1.077.059-.838a.083.083,0,0,1,.089-.077.072.072,0,0,1,.031.008.084.084,0,0,1,.046.081l-.057.814.269-.171.046-.662a.082.082,0,0,1,.088-.077.073.073,0,0,1,.033.009.082.082,0,0,1,.045.08l-.038.539.3-.188.012,0,.025-.353a.084.084,0,0,1,.089-.078.081.081,0,0,1,.032.009.083.083,0,0,1,.045.08l-.024.347.334.194a.083.083,0,0,1-.08.146l0,0-.34-.2-.338.214.536.26,0,0a.085.085,0,0,1,.036.11.083.083,0,0,1-.112.038l-.628-.3-.266.168.769.373,0,0a.082.082,0,0,1,.035.11.084.084,0,0,1-.112.039l-.77-.373.115,2.293.727-.383a.084.084,0,0,1,.077,0,.082.082,0,0,1,0,.147l-.724.382.279.143.6-.314a.083.083,0,0,1,.077,0,.083.083,0,0,1,0,.148l-.493.26.32.164.334-.176a.084.084,0,0,1,.077,0,.085.085,0,0,1,.036.036A.083.083,0,0,1,50.688,1017.19Z" transform="translate(-42.988 -1011.402)" fill="#fff"/>
    <path id="Path_323" data-name="Path 323" d="M51.456,1021.082l0,.031.554-.357-.008-.162-.762-.39.044.791Zm.292-.394-.268.173-.017-.319Z" transform="translate(-47.148 -1015.838)" fill="#fff"/>
    <path id="Path_324" data-name="Path 324" d="M52.275,1019.1l-.015.008-.14-.071-.694.441.758.388.126-.081Zm-.446.359.255-.162.015.3Z" transform="translate(-47.24 -1015.248)" fill="#fff"/>
    <path id="Path_325" data-name="Path 325" d="M49.023,1019.9l.156.08.671-.425-.772-.4-.116.074.035.684Zm.423-.327-.258.163-.015-.3Z" transform="translate(-45.998 -1015.309)" fill="#fff"/>
    <path id="Path_326" data-name="Path 326" d="M47.586,1019.361l.119-.077-.037-.731-.2-.1-.009-.186-.9-.462.116,2.31.919-.583Zm-.728.4-.081-1.621.489.251,0,.07.005.116.1.053.095.049.025.5-.021.014-.1.063.006.115,0,.054Z" transform="translate(-44.788 -1014.628)" fill="#fff"/>
    <path id="Path_327" data-name="Path 327" d="M47.761,1016.615l.186.1.648-.419-.007-.155.121-.078-.061-1.075-1.935,1.25.913.468Zm-.109-.168-.038.024-.5-.257,1.354-.875.034.614-.023.015-.1.063.006.115v.04l-.454.293-.083-.043-.1-.053Z" transform="translate(-44.865 -1013.207)" fill="#fff"/>
  </g>
  <g id="Group_133" data-name="Group 133" transform="translate(13.65 16.266)">
    <path id="Path_328" data-name="Path 328" d="M55.591,1041.7v-.011l-.381.246,0,.079.491.251-.03-.523Zm-.193.265.155-.1.01.186Z" transform="translate(-53.207 -1039.657)" fill="#fff"/>
    <path id="Path_329" data-name="Path 329" d="M56.393,1042.258l.444-.282-.006-.12.007,0-.368-.188v.008l-.107.069Zm.3-.339-.181.115-.012-.213Z" transform="translate(-53.789 -1039.645)" fill="#fff"/>
    <path id="Path_330" data-name="Path 330" d="M56.406,1040.576l0,.1.423.216.086-.056.11.057.582-.37-1.359-.7.039.687Zm.947-.038-.331.21-.045-.023-.066-.034-.062.041-.024.015-.291-.149,0-.028,0-.074-.065-.034-.05-.025-.021-.391Z" transform="translate(-53.733 -1038.72)" fill="#fff"/>
    <path id="Path_331" data-name="Path 331" d="M55.783,1043.24l-.421.267.005.109-.022.014.384.2v-.026l.083-.054Zm-.279.328.163-.1.011.192Z" transform="translate(-53.276 -1040.44)" fill="#fff"/>
    <path id="Path_332" data-name="Path 332" d="M54.9,1044.4l0-.084-.438-.225-.07.046-.1-.051-.6.378,1.34.687-.039-.7Zm-.953.052.346-.22.035.018.066.034.062-.041.009-.005.307.157v.011l0,.073.065.034.024.013.023.409Z" transform="translate(-52.444 -1040.865)" fill="#fff"/>
    <path id="Path_333" data-name="Path 333" d="M57.833,1041.8l0,.1-.083.054.025.492.1.054,0,.1.6.306-.074-1.472Zm.18.719,0-.028,0-.074-.065-.034-.039-.02-.017-.344.021-.014.062-.04,0-.074v-.023l.33-.21.052,1.032Z" transform="translate(-54.49 -1039.528)" fill="#fff"/>
    <path id="Path_334" data-name="Path 334" d="M57.131,1044.046l-.112-.058-.392.253,0,.091-.1.065.039.694,1.251-.808-.59-.3Zm.069.108.038-.025.326.167-.88.568-.022-.4.038-.025.062-.04,0-.074v-.016l.268-.173.046.023.066.034Z" transform="translate(-53.873 -1040.813)" fill="#fff"/>
    <path id="Path_335" data-name="Path 335" d="M56.01,1041.473l.137-.072a.181.181,0,0,0,0-.322.2.2,0,0,0-.069-.019l.007-.018a.182.182,0,0,0-.09-.215.2.2,0,0,0-.055-.018.181.181,0,0,0-.258-.21l-.287.152-.052-1.047.3.144a3.092,3.092,0,0,1,.368-.33.169.169,0,0,1,.134-.258.181.181,0,0,0-.065-.248l-.144-.084.01-.141a.181.181,0,0,0-.1-.174.169.169,0,0,0-.071-.019.18.18,0,0,0-.158.074.176.176,0,0,0-.066-.058.172.172,0,0,0-.071-.02.18.18,0,0,0-.149.063.187.187,0,0,0-.051-.039.171.171,0,0,0-.07-.02.182.182,0,0,0-.193.169l-.024.341-1-.51.263-.219a.18.18,0,0,0,.024-.255.181.181,0,0,0-.118-.064.165.165,0,0,0,0-.026.18.18,0,0,0-.041-.132.176.176,0,0,0-.057-.046.184.184,0,0,0-.085-.02.15.15,0,0,0,.008-.04.181.181,0,0,0-.3-.156l-.109.091-.152-.068a.181.181,0,0,0-.23.257.179.179,0,0,0-.14.094.183.183,0,0,1-.126.246.181.181,0,0,0,.073.246l.27.146-.933.6-.052-.378a.181.181,0,0,0-.1-.137.184.184,0,0,0-.107-.018.091.091,0,0,1-.164.032.184.184,0,0,0-.107-.018.179.179,0,0,0-.131.086.179.179,0,0,0-.163-.064.182.182,0,0,0-.156.2l.019.141-.138.093a.182.182,0,0,0-.049.252.189.189,0,0,0,.067.059.181.181,0,0,0,.078.02.137.137,0,0,0-.011.031.18.18,0,0,0,.017.138.184.184,0,0,0,.075.071.188.188,0,0,0,.054.018.182.182,0,0,0,.014.148.185.185,0,0,0,.075.072.18.18,0,0,0,.172,0l.334-.19.054,1.079-.3-.123a4.19,4.19,0,0,1-.36.34.182.182,0,0,1-.128.266.182.182,0,0,0,.084.23l.016.007.143.058v.148a.18.18,0,0,0,.1.162.187.187,0,0,0,.083.02.118.118,0,0,1,.221-.026.181.181,0,0,0,.223-.047.169.169,0,0,0,.055.042.181.181,0,0,0,.209-.032.178.178,0,0,0,.054-.128v-.293l.932.478-.26.19a.177.177,0,0,0-.072.118.179.179,0,0,0,.1.189.177.177,0,0,0,.066.019.181.181,0,0,0,.028.153.173.173,0,0,0,.064.055.179.179,0,0,0,.088.02.177.177,0,0,0-.011.042.179.179,0,0,0,.033.135.177.177,0,0,0,.063.054.181.181,0,0,0,.189-.014l.12-.087.132.082.014.008a.181.181,0,0,0,.245-.241.522.522,0,0,1,.256-.325.182.182,0,0,0-.058-.25l-.287-.178.884-.571.033.316a.181.181,0,0,0,.1.143.186.186,0,0,0,.1.019.18.18,0,0,0,.122-.066l.007-.009a.2.2,0,0,0,.046.034.189.189,0,0,0,.1.019.183.183,0,0,0,.14-.094.184.184,0,0,0,.163.071.182.182,0,0,0,.161-.2Zm.078-.186-.214.113.024.233a.054.054,0,0,1-.048.058.055.055,0,0,1-.03-.006.053.053,0,0,1-.029-.042l-.026-.25-.21-.108.038.37a.053.053,0,0,1-.047.057.044.044,0,0,1-.03-.005.052.052,0,0,1-.029-.041l-.045-.438-.181-.093.056.542a.054.054,0,0,1-.077.053.052.052,0,0,1-.028-.042l-.055-.524-1.229.793.458.286a.053.053,0,0,1-.052.093l0,0-.452-.282.011.2.374.233a.053.053,0,0,1-.053.092l0,0-.31-.193.013.23.212.133a.054.054,0,0,1,.017.073.053.053,0,0,1-.069.019l0,0-.205-.128-.189.138a.053.053,0,0,1-.056,0,.058.058,0,0,1-.018-.016.053.053,0,0,1,.011-.074l.195-.142-.013-.235-.292.213a.054.054,0,0,1-.056,0,.056.056,0,0,1-.018-.016.053.053,0,0,1,.011-.074l.347-.253-.011-.2-.432.314a.053.053,0,0,1-.056,0,.048.048,0,0,1-.019-.016.054.054,0,0,1,.011-.074l.429-.312-1.3-.667,0,.5a.053.053,0,0,1-.054.053.047.047,0,0,1-.023-.006.053.053,0,0,1-.03-.048l0-.532-.172.108,0,.429a.053.053,0,0,1-.053.053.053.053,0,0,1-.053-.054l0-.36-.2.126,0,.242a.052.052,0,0,1-.053.053.051.051,0,0,1-.024-.006.055.055,0,0,1-.029-.048v-.234l-.224-.091-.005,0a.053.053,0,0,1,.046-.1l.231.095.195-.124-.339-.138,0,0a.053.053,0,0,1-.024-.068.052.052,0,0,1,.069-.029l.409.167.17-.108-.5-.2h0a.053.053,0,0,1-.025-.068.054.054,0,0,1,.07-.03l.485.2-.074-1.489-.515.294a.052.052,0,0,1-.05,0,.055.055,0,0,1-.022-.021.053.053,0,0,1,.02-.072l.48-.274-.182-.093-.388.221a.054.054,0,0,1-.051,0,.06.06,0,0,1-.022-.021.053.053,0,0,1,.02-.072l.328-.187-.23-.118-.2.135a.053.053,0,0,1-.054,0,.058.058,0,0,1-.019-.017.052.052,0,0,1,.014-.074l.2-.138-.03-.22a.053.053,0,0,1,.046-.06.051.051,0,0,1,.031.005.054.054,0,0,1,.029.04l.032.232.2.1-.047-.345a.053.053,0,0,1,.046-.06.05.05,0,0,1,.031,0,.054.054,0,0,1,.028.04l.058.419.178.092-.069-.51a.053.053,0,0,1,.045-.06.048.048,0,0,1,.032.006.051.051,0,0,1,.029.04l.079.577,1.283-.828-.46-.249a.053.053,0,0,1-.021-.073.051.051,0,0,1,.069-.023h0l.455.246-.011-.2-.369-.2a.052.052,0,0,1-.021-.071.053.053,0,0,1,.07-.023h0l.311.168-.014-.252-.207-.093h0a.053.053,0,0,1,.046-.1l.225.1.171-.142a.054.054,0,0,1,.059-.006.047.047,0,0,1,.016.013.054.054,0,0,1-.007.075l-.193.16.013.234.287-.239a.052.052,0,0,1,.075.007.053.053,0,0,1-.007.075l-.348.288.011.2.423-.351a.055.055,0,0,1,.059-.007.066.066,0,0,1,.017.013.054.054,0,0,1-.007.075l-.413.342,1.34.687.037-.535a.053.053,0,0,1,.057-.049.047.047,0,0,1,.02.005.053.053,0,0,1,.029.051l-.036.52.172-.109.029-.422a.052.052,0,0,1,.057-.049.044.044,0,0,1,.021.005.053.053,0,0,1,.029.051l-.024.344.189-.12.008,0,.016-.225a.054.054,0,0,1,.057-.05.065.065,0,0,1,.021.006.055.055,0,0,1,.029.051L55.8,1039l.213.124a.053.053,0,0,1-.051.093l0,0-.217-.126-.215.136.342.166,0,0a.053.053,0,0,1-.048.094l-.4-.195-.169.108.49.238h0a.053.053,0,0,1,.022.07.054.054,0,0,1-.071.025l-.491-.238.073,1.463.464-.244a.053.053,0,0,1,.049,0,.05.05,0,0,1,.022.022.053.053,0,0,1-.022.072l-.462.244.178.092.38-.2a.052.052,0,0,1,.05,0,.057.057,0,0,1,.023.022.054.054,0,0,1-.022.072l-.314.166.2.1.213-.112a.054.054,0,0,1,.049,0,.056.056,0,0,1,.023.023A.053.053,0,0,1,56.088,1041.287Z" transform="translate(-51.173 -1037.594)" fill="#fff"/>
    <path id="Path_336" data-name="Path 336" d="M56.577,1043.772v.02l.353-.228,0-.1-.486-.249.028.505Zm.186-.252-.171.11-.011-.2Z" transform="translate(-53.828 -1040.425)" fill="#fff"/>
    <path id="Path_337" data-name="Path 337" d="M57.1,1042.5l-.01.005-.089-.046-.442.281.484.248.08-.052Zm-.285.229.163-.1.009.191Z" transform="translate(-53.887 -1040.048)" fill="#fff"/>
    <path id="Path_338" data-name="Path 338" d="M55.025,1043.015l.1.051.428-.272-.492-.252-.074.047.022.436Zm.269-.209-.164.1-.01-.193Z" transform="translate(-53.095 -1040.088)" fill="#fff"/>
    <path id="Path_339" data-name="Path 339" d="M54.108,1042.673l.076-.049-.023-.466-.126-.064-.006-.119-.575-.3.074,1.475.586-.372Zm-.464.255-.052-1.034.312.16v.045l0,.073.066.034.061.031.016.319-.014.009-.062.04,0,.073v.035Z" transform="translate(-52.322 -1039.653)" fill="#fff"/>
    <path id="Path_340" data-name="Path 340" d="M54.219,1040.922l.119.061.414-.267,0-.1.077-.05-.038-.686-1.236.8.583.3Zm-.069-.108-.024.015-.32-.164.864-.558.022.392-.015.009-.062.04,0,.074v.025l-.29.187-.053-.027-.065-.033Z" transform="translate(-52.371 -1038.746)" fill="#fff"/>
  </g>
  <g id="Group_134" data-name="Group 134" transform="translate(0.013 16.611)">
    <path id="Path_341" data-name="Path 341" d="M28.1,1042.393v-.011l-.381.246,0,.079.491.252-.029-.523Zm-.193.265.155-.1.01.185Z" transform="translate(-25.713 -1040.352)" fill="#fff"/>
    <path id="Path_342" data-name="Path 342" d="M28.9,1042.954l.445-.282-.006-.12.006,0-.368-.188v.008l-.107.069Zm.3-.339-.18.115-.012-.213Z" transform="translate(-26.295 -1040.341)" fill="#fff"/>
    <path id="Path_343" data-name="Path 343" d="M28.911,1041.272l.005.1.423.217.086-.056.11.056.582-.369-1.359-.7.039.687Zm.948-.039-.331.21-.045-.023-.065-.034-.062.04-.024.016-.291-.15,0-.028,0-.074-.065-.034-.05-.025-.021-.391Z" transform="translate(-26.239 -1039.416)" fill="#fff"/>
    <path id="Path_344" data-name="Path 344" d="M28.29,1043.935l-.421.267.005.109-.022.014.383.2v-.026l.083-.054Zm-.278.329.163-.1.01.193Z" transform="translate(-25.783 -1041.135)" fill="#fff"/>
    <path id="Path_345" data-name="Path 345" d="M27.41,1045.094l0-.085-.438-.225-.071.046-.1-.052-.6.379,1.34.687-.039-.7Zm-.952.053.346-.22.035.018.066.033.062-.04.009-.006.307.158v.01l0,.074.065.034.024.012.023.409Z" transform="translate(-24.95 -1041.56)" fill="#fff"/>
    <path id="Path_346" data-name="Path 346" d="M30.339,1042.493l0,.1-.083.054.025.492.1.054.005.1.6.306-.074-1.472Zm.18.719,0-.028,0-.074-.065-.033-.039-.02-.017-.344.021-.014.062-.04,0-.074v-.023l.33-.209.052,1.032Z" transform="translate(-26.996 -1040.224)" fill="#fff"/>
    <path id="Path_347" data-name="Path 347" d="M29.637,1044.741l-.112-.057-.392.253,0,.091-.1.065.039.694,1.25-.808-.589-.3Zm.069.107.038-.024.326.167-.879.569-.022-.4.038-.025.062-.04,0-.074V1045l.268-.173.047.023.066.034Z" transform="translate(-26.38 -1041.508)" fill="#fff"/>
    <path id="Path_348" data-name="Path 348" d="M28.516,1042.169l.137-.072a.182.182,0,0,0,.076-.245.174.174,0,0,0-.078-.077.2.2,0,0,0-.069-.02l.007-.018a.178.178,0,0,0-.013-.139.184.184,0,0,0-.077-.076.206.206,0,0,0-.055-.017.182.182,0,0,0-.258-.21l-.287.152-.052-1.047.3.144a.179.179,0,0,0,.138.008.175.175,0,0,0,.1-.092.183.183,0,0,1,.126-.247.169.169,0,0,1,.134-.258.182.182,0,0,0-.065-.248l-.144-.084.01-.142a.18.18,0,0,0-.1-.174.18.18,0,0,0-.229.054.182.182,0,0,0-.066-.057.183.183,0,0,0-.22.043.181.181,0,0,0-.314.11l-.024.341-1-.51.263-.219a.181.181,0,0,0-.033-.3.192.192,0,0,0-.062-.019.147.147,0,0,0,0-.026.181.181,0,0,0-.041-.132.179.179,0,0,0-.057-.045.175.175,0,0,0-.086-.02.18.18,0,0,0-.033-.173.181.181,0,0,0-.255-.023l-.109.091-.152-.068a1.025,1.025,0,0,1-.371.35.183.183,0,0,1-.126.247.179.179,0,0,0-.014.137.181.181,0,0,0,.088.108l.27.146-.933.6-.052-.378a.182.182,0,0,0-.1-.136.18.18,0,0,0-.224.049.2.2,0,0,0-.047-.035.186.186,0,0,0-.107-.018.182.182,0,0,0-.131.087.181.181,0,0,0-.318.14l.019.141-.138.093a.181.181,0,0,0-.049.252.183.183,0,0,0,.067.06.18.18,0,0,0,.077.02.157.157,0,0,0-.012.031.18.18,0,0,0,.092.209.174.174,0,0,0,.054.018.18.18,0,0,0,.013.148.188.188,0,0,0,.075.072.179.179,0,0,0,.172,0l.335-.19.054,1.079-.3-.123a4.07,4.07,0,0,1-.36.34.18.18,0,0,0,.008.157.181.181,0,0,0-.053.339l.016.007.142.059v.147a.181.181,0,0,0,.335.1.184.184,0,0,0,.067.06.182.182,0,0,0,.223-.047.183.183,0,0,0,.135.062.18.18,0,0,0,.129-.052.178.178,0,0,0,.054-.128l0-.293.932.478-.26.19a.177.177,0,0,0-.072.118.182.182,0,0,0,.032.135.188.188,0,0,0,.064.055.183.183,0,0,0,.066.019.178.178,0,0,0,.029.153.162.162,0,0,0,.063.055.173.173,0,0,0,.088.02.184.184,0,0,0-.011.042.178.178,0,0,0,.033.134.173.173,0,0,0,.063.055.181.181,0,0,0,.189-.015l.12-.087.132.083.014.007a.181.181,0,0,0,.245-.241.178.178,0,0,0,.132-.083.182.182,0,0,0,.015-.162.18.18,0,0,0,.051-.328l-.286-.179.884-.571.033.316a.179.179,0,0,0,.1.142.192.192,0,0,0,.1.02.183.183,0,0,0,.122-.066l.007-.009a.181.181,0,0,0,.147.052.181.181,0,0,0,.14-.094.183.183,0,0,0,.062.052.185.185,0,0,0,.1.019.181.181,0,0,0,.161-.2Zm.078-.186-.213.113.024.233a.053.053,0,0,1-.048.058.056.056,0,0,1-.03-.005.057.057,0,0,1-.029-.042l-.026-.249-.21-.108.038.369a.053.053,0,0,1-.047.058.053.053,0,0,1-.059-.047l-.045-.438-.181-.092.056.542a.053.053,0,0,1-.047.058.049.049,0,0,1-.03-.006.052.052,0,0,1-.029-.042l-.054-.524-1.228.794.457.286a.053.053,0,0,1-.052.093l0,0-.452-.283.011.2.374.233a.054.054,0,0,1,.017.073.053.053,0,0,1-.069.019l0,0-.311-.193.013.229.212.133a.054.054,0,0,1,.016.074.053.053,0,0,1-.068.019l0,0-.2-.128-.189.138a.053.053,0,0,1-.056,0,.056.056,0,0,1-.018-.016.054.054,0,0,1,.011-.074l.195-.142-.013-.235-.292.213a.053.053,0,0,1-.056,0,.059.059,0,0,1-.019-.016.054.054,0,0,1,.012-.075l.348-.253-.012-.2-.431.314a.054.054,0,0,1-.056,0,.058.058,0,0,1-.019-.016.053.053,0,0,1,.012-.074l.429-.312-1.3-.667,0,.5a.053.053,0,1,1-.106,0l0-.532-.172.109,0,.429a.053.053,0,0,1-.053.052.057.057,0,0,1-.024-.005.055.055,0,0,1-.029-.048l0-.36-.2.126,0,.241a.052.052,0,0,1-.053.052.051.051,0,0,1-.024-.006.052.052,0,0,1-.028-.048v-.235l-.224-.091,0,0a.053.053,0,0,1,.046-.1l.231.095.195-.124-.339-.139,0,0a.052.052,0,0,1-.025-.067.054.054,0,0,1,.069-.029l.409.167.17-.107-.495-.2h0a.054.054,0,0,1,.045-.1l.486.2-.075-1.488-.515.294a.05.05,0,0,1-.05,0,.048.048,0,0,1-.022-.02.052.052,0,0,1,.02-.072l.48-.274-.182-.093-.388.221a.053.053,0,1,1-.053-.092l.328-.187-.23-.118-.2.135a.052.052,0,0,1-.055,0,.055.055,0,0,1-.019-.017.053.053,0,0,1,.014-.074l.2-.138-.031-.22a.054.054,0,0,1,.046-.06.052.052,0,0,1,.031.006.054.054,0,0,1,.028.04l.032.232.2.1-.047-.345a.053.053,0,0,1,.046-.06.051.051,0,0,1,.031.005.052.052,0,0,1,.028.04l.058.418.178.091-.069-.51a.053.053,0,0,1,.045-.06.055.055,0,0,1,.031.006.052.052,0,0,1,.029.04l.079.577,1.283-.829-.46-.249a.053.053,0,0,1-.021-.072.052.052,0,0,1,.069-.023h0l.456.247-.011-.2-.369-.2a.054.054,0,0,1-.022-.072.053.053,0,0,1,.07-.023h0l.311.168-.014-.253-.207-.092h0a.053.053,0,0,1,.046-.1l.225.1.171-.142a.052.052,0,0,1,.059-.006.048.048,0,0,1,.016.013.054.054,0,0,1-.007.075l-.193.16.013.234.287-.238a.054.054,0,0,1,.059-.007.055.055,0,0,1,.016.013.053.053,0,0,1-.006.075l-.348.289.011.2.423-.352a.055.055,0,0,1,.059-.006.05.05,0,0,1,.016.013.054.054,0,0,1-.007.075l-.413.342,1.34.687.038-.535a.052.052,0,0,1,.057-.049.042.042,0,0,1,.02.005.053.053,0,0,1,.029.051l-.036.52.172-.109.029-.423a.053.053,0,0,1,.057-.049.06.06,0,0,1,.021.005.053.053,0,0,1,.029.051l-.024.345.189-.121.007,0,.016-.226a.053.053,0,0,1,.057-.05.057.057,0,0,1,.021.006.053.053,0,0,1,.029.051l-.015.222.213.123a.053.053,0,0,1-.051.093h0l-.217-.126-.216.137.342.166h0a.053.053,0,0,1-.049.095l-.4-.194-.169.107.491.238h0a.053.053,0,0,1-.049.095l-.492-.239.073,1.463.464-.245a.054.054,0,0,1,.049,0,.056.056,0,0,1,.022.022.052.052,0,0,1-.022.071l-.462.244.178.091.38-.2a.055.055,0,0,1,.049,0,.056.056,0,0,1,.023.023.053.053,0,0,1-.022.072l-.314.166.2.105.213-.112a.052.052,0,0,1,.049,0,.054.054,0,0,1,.023.022A.053.053,0,0,1,28.594,1041.983Z" transform="translate(-23.679 -1038.289)" fill="#fff"/>
    <path id="Path_349" data-name="Path 349" d="M29.083,1044.467v.021l.353-.229-.005-.1-.486-.249.028.505Zm.186-.252-.171.11-.011-.2Z" transform="translate(-26.334 -1041.121)" fill="#fff"/>
    <path id="Path_350" data-name="Path 350" d="M29.607,1043.2l-.009.006-.09-.046-.442.281.484.248.08-.051Zm-.285.229.163-.1.01.191Z" transform="translate(-26.394 -1040.744)" fill="#fff"/>
    <path id="Path_351" data-name="Path 351" d="M27.531,1043.71l.1.052.428-.272-.493-.252-.073.047.022.437Zm.269-.208-.164.1-.01-.194Z" transform="translate(-25.601 -1040.783)" fill="#fff"/>
    <path id="Path_352" data-name="Path 352" d="M26.614,1043.369l.076-.049-.023-.467-.126-.065-.006-.119-.575-.295.074,1.475.586-.372Zm-.464.255-.052-1.034.312.161,0,.045,0,.073.065.034.061.031.016.318-.013.009-.062.04,0,.073v.034Z" transform="translate(-24.828 -1040.349)" fill="#fff"/>
    <path id="Path_353" data-name="Path 353" d="M26.726,1041.617l.119.061.414-.267,0-.1.077-.05-.038-.685-1.235.8.582.3Zm-.069-.108-.024.015-.319-.164.864-.558.022.392-.014.009-.062.04,0,.074v.025l-.29.187-.053-.027-.065-.033Z" transform="translate(-24.878 -1039.442)" fill="#fff"/>
  </g>
  <g id="Group_135" data-name="Group 135" transform="translate(3.222 37.535)">
    <path id="Path_354" data-name="Path 354" d="M65.308,1085a13.186,13.186,0,0,0-4.5-1.3,12.429,12.429,0,0,0-1.767.034.965.965,0,0,0,.409-.926c-.163-1.222-2.856-1.269-3.7-1.369-2.568-.3-5.156-.164-7.734-.245-2.693-.085-5.647-.3-8.061,1.132a1.536,1.536,0,0,0-.55,1.006,1.659,1.659,0,0,1-1.5,1.111c-1.491.256-3.029.295-4.5.693-1.122.3-2.721.915-3.161,2.111a2.127,2.127,0,0,0,.914,2.409,9.413,9.413,0,0,0,6.827.855,2.327,2.327,0,0,1,1.068-.007c.575.291-1.281.727-1.157,1.49a2.8,2.8,0,0,0,1.582,1.737,3.292,3.292,0,0,0,.832.338c4.475.982,9.041.4,13.207.054a12.188,12.188,0,0,0,2.463-.521c.968-.291,2.657-.717,3.105-1.756.236-.545-.129-.909-.482-1.272-.607-.623.09-.785.638-.8a14.813,14.813,0,0,0,5.716-1.14,4.769,4.769,0,0,0,1.38-.864C67.356,1086.8,66.283,1085.459,65.308,1085Z" transform="translate(-30.149 -1080.806)" fill="#a1ddf8"/>
    <path id="Path_355" data-name="Path 355" d="M65.308,1085.012a13.219,13.219,0,0,0-4.5-1.3,12.375,12.375,0,0,0-1.767.034.965.965,0,0,0,.409-.926c-.163-1.222-2.856-1.269-3.7-1.369-2.568-.3-5.156-.164-7.734-.245-2.693-.085-5.647-.3-8.061,1.132a1.533,1.533,0,0,0-.55,1.006,1.659,1.659,0,0,1-1.5,1.11c-1.491.256-3.029.294-4.5.692-1.122.3-2.721.916-3.161,2.112a2.128,2.128,0,0,0,.914,2.409,9.412,9.412,0,0,0,6.827.854,2.327,2.327,0,0,1,1.068-.006c.575.291-1.281.727-1.157,1.49.14.859,1.017,1.431,1.582,1.738a3.323,3.323,0,0,0,.832.337c4.475.982,9.041.4,13.207.055a12.255,12.255,0,0,0,2.463-.521c.968-.292,2.657-.718,3.105-1.757.236-.545-.13-.91-.483-1.272-.7-.722.036-.8.7-.791a13.354,13.354,0,0,0,5.652-1.151,4.783,4.783,0,0,0,1.38-.865C67.356,1086.811,66.283,1085.473,65.308,1085.012Z" transform="translate(-30.149 -1080.813)" fill="#ace3f9" opacity="0.7" style="mix-blend-mode: multiply;isolation: isolate"/>
    <path id="Path_356" data-name="Path 356" d="M65.432,1084.338a12.3,12.3,0,0,0-4.315-1.3,11.53,11.53,0,0,0-1.7.034.982.982,0,0,0,.393-.926c-.157-1.221-2.741-1.269-3.551-1.369-2.465-.3-4.947-.164-7.422-.245-2.584-.085-5.42-.3-7.736,1.132a1.55,1.55,0,0,0-.528,1.006,1.6,1.6,0,0,1-1.443,1.11c-1.431.256-2.907.294-4.317.693-1.077.3-2.611.915-3.033,2.111A2.17,2.17,0,0,0,32.66,1089a8.711,8.711,0,0,0,6.552.854,2.148,2.148,0,0,1,1.025-.006c.552.29-1.229.727-1.11,1.49a2.763,2.763,0,0,0,1.517,1.737,3.089,3.089,0,0,0,.8.337c4.3.983,8.677.4,12.676.055a11.269,11.269,0,0,0,2.364-.521c.929-.291,2.55-.717,2.981-1.757.226-.545-.125-.91-.464-1.273-.21-.225-.716-.74-.084-.758a8.13,8.13,0,0,0,1.357.086c.511-.093,1.024-.154,1.534-.263a15.392,15.392,0,0,0,3.294-1.007,4.568,4.568,0,0,0,1.323-.865C67.4,1086.136,66.368,1084.8,65.432,1084.338Z" transform="translate(-30.925 -1080.473)" fill="#a1ddf8"/>
    <path id="Path_357" data-name="Path 357" d="M44.577,1083.53c-.154.674-.858.957-1.5,1.064-.819.135-1.651.208-2.48.309a1.441,1.441,0,0,0-.054,1.839,4.313,4.313,0,0,0,1.4,1.082c1.2.648,2.4,1.295,3.613,1.924,1.147.6,2.31,1.169,3.5,1.682a10.194,10.194,0,0,0,3.807,1.034c2.456.059,4.7-.987,6.847-2.013q3.376-1.616,6.709-3.3a4.2,4.2,0,0,0,2.068-1.646,2.185,2.185,0,0,0,.188-1.069,11.919,11.919,0,0,0-2.7-.549,12.9,12.9,0,0,0-1.767.033.911.911,0,0,0,.409-.887c-.163-1.171-2.856-1.216-3.7-1.311-2.568-.291-5.155-.157-7.733-.234-2.693-.082-5.648-.289-8.062,1.084A1.459,1.459,0,0,0,44.577,1083.53Z" transform="translate(-35.231 -1080.951)" fill="#74d0f5"/>
    <path id="Path_358" data-name="Path 358" d="M92.619,1100.355c-.158-.484-1.365-.648-1.86-.217C89.392,1101.333,93.05,1101.675,92.619,1100.355Z" transform="translate(-60.54 -1090.258)" fill="#a1ddf8"/>
    <path id="Path_359" data-name="Path 359" d="M91.839,1100.987c-.258-.026-1.027-.187-.976-.587a.484.484,0,0,1,.254-.381.949.949,0,0,0-.358.185c-1.249,1.091,1.695,1.47,1.883.521C92.506,1100.959,92.088,1101.012,91.839,1100.987Z" transform="translate(-60.54 -1090.324)" fill="#74d0f5"/>
    <path id="Path_360" data-name="Path 360" d="M91.336,1101.685a1.084,1.084,0,0,1-.8-.526.4.4,0,0,1-.035-.093c-.3.685,1.269.944,1.9.525A1.917,1.917,0,0,1,91.336,1101.685Z" transform="translate(-60.544 -1090.851)" fill="#ace3f9" opacity="0.5" style="mix-blend-mode: multiply;isolation: isolate"/>
    <path id="Path_361" data-name="Path 361" d="M38.571,1093.607a8.652,8.652,0,0,1-4.432-.494,1.54,1.54,0,0,1-.783-2.4c.387-.615,1.054-.755,1.627-1.119.154-.1.028-.318-.128-.306-1.559.127-3.126,2.022-2.017,3.5,1.238,1.649,4.058,1.474,5.76.916C38.657,1093.688,38.627,1093.6,38.571,1093.607Z" transform="translate(-31.316 -1084.918)" fill="azure"/>
    <path id="Path_362" data-name="Path 362" d="M67.723,1100.429c-.043-.2-.353-.225-.375,0-.139,1.4-2.661,1.815-3.723,1.994a29.915,29.915,0,0,1-5.157.25c-1.468-.01-2.941.057-4.411.066l-2.4.015c-.892.005-2.471.069-2.675-1.082-.015-.083-.151-.092-.155,0-.062,1.567,2,1.554,3.115,1.561,2.257.014,4.517-.057,6.772-.035a24.126,24.126,0,0,0,6.089-.489C65.843,1102.449,68.028,1101.859,67.723,1100.429Z" transform="translate(-39.564 -1090.45)" fill="azure"/>
    <path id="Path_363" data-name="Path 363" d="M96.979,1089.314a2.4,2.4,0,0,0-1.673-.809c-.052-.007-.092.069-.042.1a9.068,9.068,0,0,1,1.064.677c.8.645.092,1.424-.521,1.8a16,16,0,0,1-3.505,1.288c-.112.037-.091.235.031.236a6.544,6.544,0,0,0,4.49-1.714A1.39,1.39,0,0,0,96.979,1089.314Z" transform="translate(-61.436 -1084.521)" fill="azure"/>
    <path id="Path_364" data-name="Path 364" d="M89.323,1096.642a4.843,4.843,0,0,0-1.525.236c-.083.025-.047.135.02.151a2.5,2.5,0,0,0,.705.012,3.094,3.094,0,0,0,.839-.109A.153.153,0,0,0,89.323,1096.642Z" transform="translate(-59.179 -1088.621)" fill="azure"/>
    <path id="Path_365" data-name="Path 365" d="M94.286,1100.55c-.063-.045-.154.038-.1.1a.565.565,0,0,1,.092.108.478.478,0,0,0,.064.115.068.068,0,0,0,.116-.015C94.51,1100.713,94.388,1100.623,94.286,1100.55Z" transform="translate(-62.414 -1090.585)" fill="azure"/>
    <path id="Path_366" data-name="Path 366" d="M92.712,1100.164a.881.881,0,0,0-.924-.015c-.039.024-.008.086.033.08a1.694,1.694,0,0,1,.446-.008c.132.015.256.067.387.08A.077.077,0,0,0,92.712,1100.164Z" transform="translate(-61.205 -1090.327)" fill="azure"/>
  </g>
  <g id="Group_155" data-name="Group 155" transform="translate(32.711)">
    <g id="Group_136" data-name="Group 136" transform="translate(0)">
      <path id="Rectangle_93" data-name="Rectangle 93" d="M5.675,0h0a5.676,5.676,0,0,1,5.676,5.676V36.467a5.675,5.675,0,0,1-5.675,5.675h0A5.677,5.677,0,0,1,0,36.465V5.675A5.675,5.675,0,0,1,5.675,0Z" transform="translate(0.052 0.053)" fill="#e7e7e7"/>
      <path id="Path_367" data-name="Path 367" d="M97.852,1047.048H92.806a3.209,3.209,0,0,1-3.205-3.205v-35.837a3.209,3.209,0,0,1,3.205-3.205h5.046a3.209,3.209,0,0,1,3.205,3.205v35.837A3.209,3.209,0,0,1,97.852,1047.048Zm-5.046-42.142a3.1,3.1,0,0,0-3.1,3.1v35.837a3.1,3.1,0,0,0,3.1,3.1h5.046a3.1,3.1,0,0,0,3.1-3.1v-35.837a3.1,3.1,0,0,0-3.1-3.1Z" transform="translate(-89.601 -1004.801)" fill="#d0d0d0"/>
    </g>
    <path id="Path_368" data-name="Path 368" d="M100.942,1044.058a2.958,2.958,0,0,1-2.822,3.078H93.6a2.958,2.958,0,0,1-2.822-3.078v-34.984A2.958,2.958,0,0,1,93.6,1006h4.516a2.958,2.958,0,0,1,2.822,3.078Z" transform="translate(-90.197 -1005.403)" fill="#fff"/>
    <g id="Group_139" data-name="Group 139" transform="translate(1.396 2.237)">
      <g id="Group_137" data-name="Group 137">
        <path id="Path_369" data-name="Path 369" d="M99.218,1040.4v-28.571a2.417,2.417,0,0,0-4.835,0V1040.4a4.28,4.28,0,1,0,4.835,0Z" transform="translate(-92.469 -1009.364)" fill="#fff"/>
        <path id="Path_370" data-name="Path 370" d="M96.748,1048.216a4.333,4.333,0,0,1-2.47-7.892v-28.543a2.47,2.47,0,0,1,4.94,0v28.543a4.333,4.333,0,0,1-2.47,7.892Zm0-38.8a2.368,2.368,0,0,0-2.365,2.365v28.571a.052.052,0,0,1-.022.044,4.227,4.227,0,1,0,4.775,0,.053.053,0,0,1-.023-.044v-28.571A2.367,2.367,0,0,0,96.748,1009.416Z" transform="translate(-92.416 -1009.311)" fill="#d0d0d0"/>
      </g>
      <g id="Group_138" data-name="Group 138" transform="translate(0.61 0.528)">
        <path id="Path_371" data-name="Path 371" d="M99.237,1041.284v-28.428c0-1.975-.67-2.375-1.816-2.375-1,0-1.816.47-1.816,2.259v28.544a3.67,3.67,0,1,0,3.632,0Z" transform="translate(-93.698 -1010.428)" fill="#e7e7e7"/>
        <path id="Path_372" data-name="Path 372" d="M97.367,1048.142A3.722,3.722,0,0,1,95.5,1041.2v-28.514c0-1.555.611-2.312,1.868-2.312,1.154,0,1.869.406,1.869,2.428v28.4a3.722,3.722,0,0,1-1.869,6.942Zm0-37.662c-1.2,0-1.763.7-1.763,2.207v28.575l-.027.015a3.617,3.617,0,1,0,3.581,0l-.026-.015V1012.8C99.131,1010.86,98.484,1010.48,97.367,1010.48Z" transform="translate(-93.645 -1010.375)" fill="#fff"/>
      </g>
      <path id="Path_373" data-name="Path 373" d="M99.417,1072.551v-.521H96.125v.521a3.326,3.326,0,1,0,3.292,0Z" transform="translate(-93.439 -1040.92)" fill="url(#linear-gradient-2)"/>
      <path id="Path_374" data-name="Path 374" d="M100.84,1078.779a3.278,3.278,0,0,1-5.6.931,3.357,3.357,0,0,1-.67-1.551,2.456,2.456,0,0,1-.02-.92,3.325,3.325,0,1,0,6.546.827c0-.022,0-.044,0-.066A4.438,4.438,0,0,1,100.84,1078.779Z" transform="translate(-93.439 -1043.545)" fill="#58a6ba" opacity="0.5" style="mix-blend-mode: multiply;isolation: isolate"/>
      <path id="Path_375" data-name="Path 375" d="M98.526,1073.716a2.181,2.181,0,0,0-2.023,1.918s-.026.615.29.531.368-.977,1.419-1.345,1.547-.3,1.445-.762C99.577,1073.7,98.526,1073.716,98.526,1073.716Z" transform="translate(-94.475 -1041.77)" opacity="0.7" fill="url(#linear-gradient-3)" style="mix-blend-mode: screen;isolation: isolate"/>
      <path id="Path_376" data-name="Path 376" d="M99.237,1041.284v-28.428c0-1.975-.67-2.375-1.816-2.375-1,0-1.816.47-1.816,2.259v28.544a3.67,3.67,0,1,0,3.632,0Zm.675,3.011c-.331,1.518-4.427,2.276-5.071-.124-.453-1.691,1.484-2.431,1.484-2.431s-.026-28.271,0-29.322.683-1.233.683-1.233.237-.25.893-.042.736,1.364.736,1.364v29.233A2.081,2.081,0,0,1,99.912,1044.3Z" transform="translate(-93.089 -1009.901)" fill="#a9aaaa" opacity="0.5" style="mix-blend-mode: multiply;isolation: isolate"/>
    </g>
    <g id="Group_141" data-name="Group 141" transform="translate(7.754 1.237)">
      <g id="Group_140" data-name="Group 140" transform="translate(0.472 0.157)">
        <path id="Path_377" data-name="Path 377" d="M107.45,1008.707l.489.147a.894.894,0,0,1-.155.343.677.677,0,0,1-.262.208.986.986,0,0,1-.4.07,1.157,1.157,0,0,1-.481-.086.76.76,0,0,1-.321-.3,1.017,1.017,0,0,1-.135-.551.937.937,0,0,1,.238-.687,1.083,1.083,0,0,1,1.209-.1.808.808,0,0,1,.29.423l-.492.109a.433.433,0,0,0-.054-.12.343.343,0,0,0-.556.019.642.642,0,0,0-.076.355.676.676,0,0,0,.091.411.359.359,0,0,0,.5.021A.547.547,0,0,0,107.45,1008.707Z" transform="translate(-106.185 -1007.611)"/>
      </g>
      <path id="Path_378" data-name="Path 378" d="M105.491,1007.813a.259.259,0,1,1,.259-.259A.259.259,0,0,1,105.491,1007.813Zm0-.428a.169.169,0,1,0,.169.169A.169.169,0,0,0,105.491,1007.385Z" transform="translate(-105.233 -1007.295)"/>
    </g>
    <path id="Path_379" data-name="Path 379" d="M100.172,1042.865c0,.25-.108.453-.242.453h0c-.133,0-.242-.2-.242-.453v-28.047c0-.25.109-.453.242-.453h0c.133,0,.242.2.242.453Z" transform="translate(-94.685 -1009.621)" opacity="0.7" fill="url(#linear-gradient-4)" style="mix-blend-mode: screen;isolation: isolate"/>
    <g id="Group_154" data-name="Group 154" transform="translate(7.549 4.827)">
      <g id="Group_142" data-name="Group 142" transform="translate(0 0.249)">
        <path id="Path_380" data-name="Path 380" d="M104.91,1070.97h.641a.119.119,0,0,1,0,.231h-.641a.119.119,0,0,1,0-.231Z" transform="translate(-104.82 -1043.226)" fill="#1d1d1b"/>
        <path id="Path_381" data-name="Path 381" d="M105.367,1070.083h-.416a.06.06,0,0,1,0-.118h.416a.06.06,0,0,1,0,.118Z" transform="translate(-104.862 -1042.719)" fill="#1d1d1b"/>
        <path id="Path_382" data-name="Path 382" d="M105.367,1068.964h-.416a.06.06,0,0,1,0-.119h.416a.06.06,0,0,1,0,.119Z" transform="translate(-104.862 -1042.155)" fill="#1d1d1b"/>
        <path id="Path_383" data-name="Path 383" d="M105.367,1067.846h-.416a.06.06,0,0,1,0-.118h.416a.06.06,0,0,1,0,.118Z" transform="translate(-104.862 -1041.592)" fill="#1d1d1b"/>
        <path id="Path_384" data-name="Path 384" d="M105.367,1066.727h-.416a.055.055,0,0,1-.049-.06.054.054,0,0,1,.049-.059h.416a.054.054,0,0,1,.049.059A.055.055,0,0,1,105.367,1066.727Z" transform="translate(-104.862 -1041.028)" fill="#1d1d1b"/>
        <path id="Path_385" data-name="Path 385" d="M104.91,1065.377h.641a.119.119,0,0,1,0,.23h-.641a.119.119,0,0,1,0-.23Z" transform="translate(-104.82 -1040.407)" fill="#1d1d1b"/>
        <path id="Path_386" data-name="Path 386" d="M105.367,1064.489h-.416a.06.06,0,0,1,0-.118h.416a.06.06,0,0,1,0,.118Z" transform="translate(-104.862 -1039.9)" fill="#1d1d1b"/>
        <path id="Path_387" data-name="Path 387" d="M105.367,1063.371h-.416a.06.06,0,0,1,0-.118h.416a.06.06,0,0,1,0,.118Z" transform="translate(-104.862 -1039.336)" fill="#1d1d1b"/>
        <path id="Path_388" data-name="Path 388" d="M105.367,1062.253h-.416a.06.06,0,0,1,0-.119h.416a.06.06,0,0,1,0,.119Z" transform="translate(-104.862 -1038.773)" fill="#1d1d1b"/>
        <path id="Path_389" data-name="Path 389" d="M105.367,1061.134h-.416a.06.06,0,0,1,0-.118h.416a.06.06,0,0,1,0,.118Z" transform="translate(-104.862 -1038.209)" fill="#1d1d1b"/>
        <path id="Path_390" data-name="Path 390" d="M104.91,1059.784h.641a.119.119,0,0,1,0,.23h-.641a.119.119,0,0,1,0-.23Z" transform="translate(-104.82 -1037.588)" fill="#1d1d1b"/>
        <path id="Path_391" data-name="Path 391" d="M105.367,1058.9h-.416a.06.06,0,0,1,0-.118h.416a.06.06,0,0,1,0,.118Z" transform="translate(-104.862 -1037.082)" fill="#1d1d1b"/>
        <path id="Path_392" data-name="Path 392" d="M105.367,1057.777h-.416a.06.06,0,0,1,0-.118h.416a.06.06,0,0,1,0,.118Z" transform="translate(-104.862 -1036.517)" fill="#1d1d1b"/>
        <path id="Path_393" data-name="Path 393" d="M105.367,1056.659h-.416a.06.06,0,0,1,0-.118h.416a.06.06,0,0,1,0,.118Z" transform="translate(-104.862 -1035.954)" fill="#1d1d1b"/>
        <path id="Path_394" data-name="Path 394" d="M105.367,1055.54h-.416a.06.06,0,0,1,0-.118h.416a.06.06,0,0,1,0,.118Z" transform="translate(-104.862 -1035.39)" fill="#1d1d1b"/>
        <path id="Path_395" data-name="Path 395" d="M104.91,1054.19h.641a.119.119,0,0,1,0,.231h-.641a.119.119,0,0,1,0-.231Z" transform="translate(-104.82 -1034.769)" fill="#1d1d1b"/>
        <path id="Path_396" data-name="Path 396" d="M105.367,1053.3h-.416a.06.06,0,0,1,0-.118h.416a.06.06,0,0,1,0,.118Z" transform="translate(-104.862 -1034.262)" fill="#1d1d1b"/>
        <path id="Path_397" data-name="Path 397" d="M105.367,1052.185h-.416a.055.055,0,0,1-.049-.059.054.054,0,0,1,.049-.059h.416a.055.055,0,0,1,.049.059A.055.055,0,0,1,105.367,1052.185Z" transform="translate(-104.862 -1033.699)" fill="#1d1d1b"/>
        <path id="Path_398" data-name="Path 398" d="M105.367,1051.065h-.416a.054.054,0,0,1-.049-.058.055.055,0,0,1,.049-.06h.416a.055.055,0,0,1,.049.06A.054.054,0,0,1,105.367,1051.065Z" transform="translate(-104.862 -1033.135)" fill="#1d1d1b"/>
        <path id="Path_399" data-name="Path 399" d="M105.367,1049.947h-.416a.06.06,0,0,1,0-.118h.416a.06.06,0,0,1,0,.118Z" transform="translate(-104.862 -1032.571)" fill="#1d1d1b"/>
        <path id="Path_400" data-name="Path 400" d="M104.91,1048.6h.641a.119.119,0,0,1,0,.231h-.641a.119.119,0,0,1,0-.231Z" transform="translate(-104.82 -1031.95)" fill="#1d1d1b"/>
        <path id="Path_401" data-name="Path 401" d="M105.367,1047.71h-.416a.054.054,0,0,1-.049-.058.055.055,0,0,1,.049-.059h.416a.055.055,0,0,1,.049.059A.054.054,0,0,1,105.367,1047.71Z" transform="translate(-104.862 -1031.444)" fill="#1d1d1b"/>
        <path id="Path_402" data-name="Path 402" d="M105.367,1046.591h-.416a.06.06,0,0,1,0-.118h.416a.06.06,0,0,1,0,.118Z" transform="translate(-104.862 -1030.88)" fill="#1d1d1b"/>
        <path id="Path_403" data-name="Path 403" d="M105.367,1045.472h-.416a.055.055,0,0,1-.049-.059.055.055,0,0,1,.049-.059h.416a.056.056,0,0,1,.049.059A.055.055,0,0,1,105.367,1045.472Z" transform="translate(-104.862 -1030.315)" fill="#1d1d1b"/>
        <path id="Path_404" data-name="Path 404" d="M105.367,1044.354h-.416a.06.06,0,0,1,0-.119h.416a.06.06,0,0,1,0,.119Z" transform="translate(-104.862 -1029.752)" fill="#1d1d1b"/>
        <path id="Path_405" data-name="Path 405" d="M104.91,1043h.641a.119.119,0,0,1,0,.231h-.641a.119.119,0,0,1,0-.231Z" transform="translate(-104.82 -1029.131)" fill="#1d1d1b"/>
        <path id="Path_406" data-name="Path 406" d="M105.367,1042.117h-.416a.06.06,0,0,1,0-.119h.416a.06.06,0,0,1,0,.119Z" transform="translate(-104.862 -1028.624)" fill="#1d1d1b"/>
        <path id="Path_407" data-name="Path 407" d="M105.367,1041h-.416a.06.06,0,0,1,0-.119h.416a.06.06,0,0,1,0,.119Z" transform="translate(-104.862 -1028.06)" fill="#1d1d1b"/>
        <path id="Path_408" data-name="Path 408" d="M105.367,1039.879h-.416a.06.06,0,0,1,0-.118h.416a.06.06,0,0,1,0,.118Z" transform="translate(-104.862 -1027.497)" fill="#1d1d1b"/>
        <path id="Path_409" data-name="Path 409" d="M105.367,1038.761h-.416a.055.055,0,0,1-.049-.059.054.054,0,0,1,.049-.059h.416a.055.055,0,0,1,.049.059A.056.056,0,0,1,105.367,1038.761Z" transform="translate(-104.862 -1026.933)" fill="#1d1d1b"/>
        <path id="Path_410" data-name="Path 410" d="M104.91,1037.41h.641a.119.119,0,0,1,0,.231h-.641a.119.119,0,0,1,0-.231Z" transform="translate(-104.82 -1026.312)" fill="#1d1d1b"/>
        <path id="Path_411" data-name="Path 411" d="M104.952,1036.405h.416a.06.06,0,0,1,0,.118h-.416a.06.06,0,0,1,0-.118Z" transform="translate(-104.862 -1025.806)" fill="#1d1d1b"/>
        <path id="Path_412" data-name="Path 412" d="M104.952,1035.286h.416a.06.06,0,0,1,0,.118h-.416a.06.06,0,0,1,0-.118Z" transform="translate(-104.862 -1025.242)" fill="#1d1d1b"/>
        <path id="Path_413" data-name="Path 413" d="M104.952,1034.168h.416a.06.06,0,0,1,0,.117h-.416a.06.06,0,0,1,0-.117Z" transform="translate(-104.862 -1024.678)" fill="#1d1d1b"/>
        <path id="Path_414" data-name="Path 414" d="M104.952,1033.049h.416a.06.06,0,0,1,0,.118h-.416a.06.06,0,0,1,0-.118Z" transform="translate(-104.862 -1024.114)" fill="#1d1d1b"/>
        <path id="Path_415" data-name="Path 415" d="M105.367,1030.93h-.416a.06.06,0,0,1,0-.118h.416a.06.06,0,0,1,0,.118Z" transform="translate(-104.862 -1022.987)" fill="#1d1d1b"/>
        <path id="Path_416" data-name="Path 416" d="M105.367,1029.811h-.416a.06.06,0,0,1,0-.118h.416a.06.06,0,0,1,0,.118Z" transform="translate(-104.862 -1022.423)" fill="#1d1d1b"/>
        <path id="Path_417" data-name="Path 417" d="M105.367,1028.693h-.416a.06.06,0,0,1,0-.119h.416a.06.06,0,0,1,0,.119Z" transform="translate(-104.862 -1021.859)" fill="#1d1d1b"/>
        <path id="Path_418" data-name="Path 418" d="M105.367,1027.574h-.416a.06.06,0,0,1,0-.118h.416a.06.06,0,0,1,0,.118Z" transform="translate(-104.862 -1021.296)" fill="#1d1d1b"/>
        <path id="Path_419" data-name="Path 419" d="M104.91,1026.223h.641a.119.119,0,0,1,0,.231h-.641a.119.119,0,0,1,0-.231Z" transform="translate(-104.82 -1020.674)" fill="#1d1d1b"/>
        <path id="Path_420" data-name="Path 420" d="M104.91,1031.816h.641a.119.119,0,0,1,0,.231h-.641a.119.119,0,0,1,0-.231Z" transform="translate(-104.82 -1023.493)" fill="#1d1d1b"/>
        <path id="Path_421" data-name="Path 421" d="M105.367,1025.336h-.416a.06.06,0,0,1,0-.118h.416a.06.06,0,0,1,0,.118Z" transform="translate(-104.862 -1020.168)" fill="#1d1d1b"/>
        <path id="Path_422" data-name="Path 422" d="M105.367,1024.218h-.416a.06.06,0,0,1,0-.118h.416a.06.06,0,0,1,0,.118Z" transform="translate(-104.862 -1019.604)" fill="#1d1d1b"/>
        <path id="Path_423" data-name="Path 423" d="M105.367,1023.1h-.416a.061.061,0,0,1,0-.119h.416a.061.061,0,0,1,0,.119Z" transform="translate(-104.862 -1019.04)" fill="#1d1d1b"/>
        <path id="Path_424" data-name="Path 424" d="M105.367,1021.98h-.416a.06.06,0,0,1,0-.118h.416a.06.06,0,0,1,0,.118Z" transform="translate(-104.862 -1018.476)" fill="#1d1d1b"/>
        <path id="Path_425" data-name="Path 425" d="M105.367,1018.625h-.416a.06.06,0,0,1,0-.119h.416a.06.06,0,0,1,0,.119Z" transform="translate(-104.862 -1016.785)" fill="#1d1d1b"/>
        <path id="Path_426" data-name="Path 426" d="M105.367,1016.387h-.416a.06.06,0,0,1,0-.118h.416a.06.06,0,0,1,0,.118Z" transform="translate(-104.862 -1015.657)" fill="#1d1d1b"/>
        <path id="Path_427" data-name="Path 427" d="M104.91,1020.63h.641a.119.119,0,0,1,0,.231h-.641a.119.119,0,0,1,0-.231Z" transform="translate(-104.82 -1017.855)" fill="#1d1d1b"/>
        <path id="Path_428" data-name="Path 428" d="M104.91,1015.036h.641a.12.12,0,0,1,0,.232h-.641a.12.12,0,0,1,0-.232Z" transform="translate(-104.82 -1015.036)" fill="#1d1d1b"/>
        <path id="Path_429" data-name="Path 429" d="M105.367,1019.743h-.416a.06.06,0,0,1,0-.118h.416a.06.06,0,0,1,0,.118Z" transform="translate(-104.862 -1017.349)" fill="#1d1d1b"/>
        <path id="Path_430" data-name="Path 430" d="M105.367,1017.506h-.416a.06.06,0,0,1,0-.119h.416a.06.06,0,0,1,0,.119Z" transform="translate(-104.862 -1016.221)" fill="#1d1d1b"/>
      </g>
      <g id="Group_143" data-name="Group 143" transform="translate(1.682 27.504)">
        <path id="Path_431" data-name="Path 431" d="M108.5,1069.983a.226.226,0,0,1,.137.041.3.3,0,0,1,.089.106.519.519,0,0,1,.048.148,1.068,1.068,0,0,1,0,.337.529.529,0,0,1-.048.148.3.3,0,0,1-.089.1.228.228,0,0,1-.137.04.231.231,0,0,1-.138-.04.3.3,0,0,1-.089-.1.529.529,0,0,1-.047-.148,1.109,1.109,0,0,1,0-.337.519.519,0,0,1,.047-.148.3.3,0,0,1,.089-.106A.229.229,0,0,1,108.5,1069.983Zm0,.076a.14.14,0,0,0-.1.036.261.261,0,0,0-.061.092.525.525,0,0,0-.031.125,1.02,1.02,0,0,0,0,.269.506.506,0,0,0,.031.124.26.26,0,0,0,.061.091.15.15,0,0,0,.194,0,.246.246,0,0,0,.061-.091.53.53,0,0,0,.032-.124.967.967,0,0,0,0-.269.551.551,0,0,0-.032-.125.247.247,0,0,0-.061-.092A.139.139,0,0,0,108.5,1070.059Z" transform="translate(-108.21 -1069.983)"/>
      </g>
      <g id="Group_144" data-name="Group 144" transform="translate(1.543 24.754)">
        <path id="Path_432" data-name="Path 432" d="M108.152,1065.116h-.065v-.563l-.116.1-.04-.045.164-.135h.058Z" transform="translate(-107.93 -1064.456)"/>
        <path id="Path_433" data-name="Path 433" d="M109.009,1064.439a.166.166,0,0,1,.1.029.219.219,0,0,1,.064.077.363.363,0,0,1,.035.109.737.737,0,0,1,0,.247.355.355,0,0,1-.035.108.213.213,0,0,1-.064.077.189.189,0,0,1-.2,0,.209.209,0,0,1-.065-.077.354.354,0,0,1-.034-.108.775.775,0,0,1,0-.247.363.363,0,0,1,.034-.109.215.215,0,0,1,.065-.077A.166.166,0,0,1,109.009,1064.439Zm0,.055a.1.1,0,0,0-.071.027.186.186,0,0,0-.045.068.379.379,0,0,0-.023.092.744.744,0,0,0-.006.1.732.732,0,0,0,.006.1.382.382,0,0,0,.023.091.175.175,0,0,0,.045.066.1.1,0,0,0,.071.026.1.1,0,0,0,.07-.026.171.171,0,0,0,.045-.066.341.341,0,0,0,.023-.091.827.827,0,0,0,.006-.1.84.84,0,0,0-.006-.1.339.339,0,0,0-.023-.092.181.181,0,0,0-.045-.068A.1.1,0,0,0,109.009,1064.494Z" transform="translate(-108.368 -1064.439)"/>
      </g>
      <g id="Group_145" data-name="Group 145" transform="translate(1.514 22.003)">
        <path id="Path_434" data-name="Path 434" d="M108.284,1059.553h-.412v-.068l.264-.267.029-.031a.355.355,0,0,0,.025-.035.159.159,0,0,0,.017-.039.137.137,0,0,0,.007-.043.122.122,0,0,0-.01-.051.116.116,0,0,0-.028-.038.127.127,0,0,0-.041-.024.128.128,0,0,0-.049-.009.123.123,0,0,0-.087.032.151.151,0,0,0-.046.082l-.065-.013a.205.205,0,0,1,.025-.062.183.183,0,0,1,.044-.05.2.2,0,0,1,.059-.033.217.217,0,0,1,.071-.012.226.226,0,0,1,.074.011.18.18,0,0,1,.062.034.158.158,0,0,1,.042.056.2.2,0,0,1,.007.134.3.3,0,0,1-.022.05.418.418,0,0,1-.033.045c-.013.014-.026.029-.04.042l-.232.23h.341Z" transform="translate(-107.872 -1058.893)"/>
        <path id="Path_435" data-name="Path 435" d="M109.067,1058.893a.163.163,0,0,1,.1.03.215.215,0,0,1,.064.077.359.359,0,0,1,.035.109.736.736,0,0,1,0,.247.36.36,0,0,1-.035.108.209.209,0,0,1-.064.077.166.166,0,0,1-.1.029.169.169,0,0,1-.1-.029.215.215,0,0,1-.065-.077.39.39,0,0,1-.035-.108.812.812,0,0,1,0-.247.389.389,0,0,1,.035-.109.221.221,0,0,1,.065-.077A.166.166,0,0,1,109.067,1058.893Zm0,.056a.1.1,0,0,0-.071.027.174.174,0,0,0-.045.068.37.37,0,0,0-.023.091.755.755,0,0,0-.006.1.727.727,0,0,0,.006.1.373.373,0,0,0,.023.091.171.171,0,0,0,.045.066.1.1,0,0,0,.071.026.1.1,0,0,0,.07-.026.175.175,0,0,0,.044-.066.372.372,0,0,0,.024-.091.728.728,0,0,0,.006-.1.757.757,0,0,0-.006-.1.37.37,0,0,0-.024-.091.179.179,0,0,0-.044-.068A.1.1,0,0,0,109.067,1058.949Z" transform="translate(-108.368 -1058.893)"/>
      </g>
      <g id="Group_146" data-name="Group 146" transform="translate(1.513 19.253)">
        <path id="Path_436" data-name="Path 436" d="M108.02,1053.643h.029a.271.271,0,0,0,.058-.006.138.138,0,0,0,.048-.021.094.094,0,0,0,.032-.037.111.111,0,0,0,.012-.054.112.112,0,0,0-.01-.049.115.115,0,0,0-.028-.038.126.126,0,0,0-.041-.025.132.132,0,0,0-.049-.009.135.135,0,0,0-.072.02.132.132,0,0,0-.051.056l-.056-.029a.2.2,0,0,1,.076-.076.218.218,0,0,1,.106-.025.232.232,0,0,1,.072.011.193.193,0,0,1,.06.033.162.162,0,0,1,.042.054.176.176,0,0,1,.015.074.145.145,0,0,1-.032.1.159.159,0,0,1-.08.052h0a.164.164,0,0,1,.092.054.154.154,0,0,1,.037.107.189.189,0,0,1-.017.082.169.169,0,0,1-.045.061.185.185,0,0,1-.065.039.242.242,0,0,1-.08.013.224.224,0,0,1-.124-.034.215.215,0,0,1-.079-.1l.062-.022a.139.139,0,0,0,.055.072.15.15,0,0,0,.087.026.166.166,0,0,0,.054-.01.151.151,0,0,0,.045-.027.142.142,0,0,0,.031-.043.138.138,0,0,0,.012-.058.124.124,0,0,0-.014-.061.128.128,0,0,0-.038-.04.152.152,0,0,0-.054-.022.255.255,0,0,0-.062-.007h-.029Z" transform="translate(-107.871 -1053.348)"/>
        <path id="Path_437" data-name="Path 437" d="M109.069,1053.348a.165.165,0,0,1,.1.03.224.224,0,0,1,.065.077.376.376,0,0,1,.035.109.738.738,0,0,1,0,.247.38.38,0,0,1-.035.108.213.213,0,0,1-.065.076.187.187,0,0,1-.2,0,.218.218,0,0,1-.065-.076.365.365,0,0,1-.034-.108.775.775,0,0,1,0-.247.361.361,0,0,1,.034-.109.229.229,0,0,1,.065-.077A.166.166,0,0,1,109.069,1053.348Zm0,.055a.1.1,0,0,0-.071.026.187.187,0,0,0-.044.068.332.332,0,0,0-.023.091.748.748,0,0,0-.007.1.737.737,0,0,0,.007.1.334.334,0,0,0,.023.091.177.177,0,0,0,.044.066.1.1,0,0,0,.071.026.1.1,0,0,0,.071-.026.178.178,0,0,0,.045-.066.427.427,0,0,0,.023-.091.737.737,0,0,0,.007-.1.748.748,0,0,0-.007-.1.423.423,0,0,0-.023-.091.188.188,0,0,0-.045-.068A.1.1,0,0,0,109.069,1053.4Z" transform="translate(-108.369 -1053.348)"/>
      </g>
      <g id="Group_147" data-name="Group 147" transform="translate(1.51 16.503)">
        <path id="Path_438" data-name="Path 438" d="M108.222,1048.267h.1v.058h-.1v.156h-.064v-.156h-.294v-.063l.273-.425h.085Zm-.064-.357h0l-.225.357h.226Z" transform="translate(-107.864 -1047.82)"/>
        <path id="Path_439" data-name="Path 439" d="M109.076,1047.8a.167.167,0,0,1,.1.029.209.209,0,0,1,.064.077.364.364,0,0,1,.035.109.738.738,0,0,1,0,.247.36.36,0,0,1-.035.108.213.213,0,0,1-.064.077.17.17,0,0,1-.1.029.168.168,0,0,1-.1-.029.21.21,0,0,1-.065-.077.346.346,0,0,1-.035-.108.774.774,0,0,1,0-.247.35.35,0,0,1,.035-.109.205.205,0,0,1,.065-.077A.165.165,0,0,1,109.076,1047.8Zm0,.055a.1.1,0,0,0-.071.026.18.18,0,0,0-.045.067.355.355,0,0,0-.022.092.75.75,0,0,0,0,.2.337.337,0,0,0,.022.09.172.172,0,0,0,.045.067.11.11,0,0,0,.141,0,.184.184,0,0,0,.045-.067.378.378,0,0,0,.024-.09.751.751,0,0,0,0-.2.4.4,0,0,0-.024-.092.193.193,0,0,0-.045-.067A.1.1,0,0,0,109.076,1047.859Z" transform="translate(-108.368 -1047.804)"/>
      </g>
      <g id="Group_148" data-name="Group 148" transform="translate(1.516 13.752)">
        <path id="Path_440" data-name="Path 440" d="M108.257,1042.349h-.268l0,.2a.323.323,0,0,1,.044-.011.336.336,0,0,1,.045,0,.236.236,0,0,1,.083.014.2.2,0,0,1,.066.041.2.2,0,0,1,.044.064.222.222,0,0,1,.015.082.24.24,0,0,1-.015.086.193.193,0,0,1-.043.068.2.2,0,0,1-.068.045.221.221,0,0,1-.087.016.209.209,0,0,1-.118-.032.213.213,0,0,1-.074-.086l.059-.026a.143.143,0,0,0,.053.064.133.133,0,0,0,.077.023.148.148,0,0,0,.109-.043.151.151,0,0,0,.031-.049.156.156,0,0,0,.011-.061.166.166,0,0,0-.012-.064.153.153,0,0,0-.034-.049.144.144,0,0,0-.05-.031.164.164,0,0,0-.063-.011.244.244,0,0,0-.068.009.335.335,0,0,0-.065.026l.006-.332h.328Z" transform="translate(-107.877 -1042.275)"/>
        <path id="Path_441" data-name="Path 441" d="M109.063,1042.258a.165.165,0,0,1,.1.03.218.218,0,0,1,.065.077.4.4,0,0,1,.035.109.737.737,0,0,1,0,.247.41.41,0,0,1-.035.108.212.212,0,0,1-.065.076.165.165,0,0,1-.1.029.168.168,0,0,1-.1-.029.211.211,0,0,1-.064-.076.348.348,0,0,1-.034-.108.737.737,0,0,1,0-.247.342.342,0,0,1,.034-.109.217.217,0,0,1,.064-.077A.168.168,0,0,1,109.063,1042.258Zm0,.056a.1.1,0,0,0-.071.026.186.186,0,0,0-.045.068.362.362,0,0,0-.022.091.7.7,0,0,0,0,.2.348.348,0,0,0,.022.09.174.174,0,0,0,.045.067.111.111,0,0,0,.142,0,.186.186,0,0,0,.045-.067.393.393,0,0,0,.023-.09.756.756,0,0,0,0-.2.41.41,0,0,0-.023-.091.2.2,0,0,0-.045-.068A.1.1,0,0,0,109.063,1042.314Z" transform="translate(-108.368 -1042.258)"/>
      </g>
      <g id="Group_149" data-name="Group 149" transform="translate(1.518 11.002)">
        <path id="Path_442" data-name="Path 442" d="M108.008,1037.027v0a.111.111,0,0,1,.042-.017.2.2,0,0,1,.191.049.2.2,0,0,1,.041.063.215.215,0,0,1,.014.081.21.21,0,0,1-.015.082.194.194,0,0,1-.044.064.213.213,0,0,1-.066.041.245.245,0,0,1-.168,0,.211.211,0,0,1-.066-.041.2.2,0,0,1-.044-.064.22.22,0,0,1-.015-.082.234.234,0,0,1,.017-.093.57.57,0,0,1,.041-.082l.176-.283h.076Zm-.062.177a.157.157,0,0,0,.01.058.136.136,0,0,0,.03.047.149.149,0,0,0,.045.03.133.133,0,0,0,.059.012.131.131,0,0,0,.058-.012.146.146,0,0,0,.046-.03.136.136,0,0,0,.03-.047.157.157,0,0,0,.01-.058.17.17,0,0,0-.01-.058.138.138,0,0,0-.029-.046.125.125,0,0,0-.045-.031.16.16,0,0,0-.06-.011.162.162,0,0,0-.06.011.13.13,0,0,0-.045.031.147.147,0,0,0-.029.046A.17.17,0,0,0,107.946,1037.2Z" transform="translate(-107.88 -1036.73)"/>
        <path id="Path_443" data-name="Path 443" d="M109.059,1036.713a.167.167,0,0,1,.1.029.221.221,0,0,1,.065.078.394.394,0,0,1,.035.109.774.774,0,0,1,0,.247.388.388,0,0,1-.035.108.217.217,0,0,1-.065.077.166.166,0,0,1-.1.029.169.169,0,0,1-.1-.029.211.211,0,0,1-.064-.077.358.358,0,0,1-.035-.108.737.737,0,0,1,0-.247.363.363,0,0,1,.035-.109.215.215,0,0,1,.064-.078A.17.17,0,0,1,109.059,1036.713Zm0,.056a.1.1,0,0,0-.071.026.183.183,0,0,0-.045.068.39.39,0,0,0-.023.091.86.86,0,0,0-.006.1.829.829,0,0,0,.006.1.393.393,0,0,0,.023.09.179.179,0,0,0,.045.067.1.1,0,0,0,.071.026.1.1,0,0,0,.07-.026.18.18,0,0,0,.045-.067.369.369,0,0,0,.023-.09.831.831,0,0,0,.006-.1.865.865,0,0,0-.006-.1.367.367,0,0,0-.023-.091.184.184,0,0,0-.045-.068A.1.1,0,0,0,109.059,1036.769Z" transform="translate(-108.368 -1036.713)"/>
      </g>
      <g id="Group_150" data-name="Group 150" transform="translate(1.526 8.251)">
        <path id="Path_444" data-name="Path 444" d="M108.279,1031.261l-.259.584h-.074l.267-.585H107.9v-.059h.382Z" transform="translate(-107.897 -1031.185)"/>
        <path id="Path_445" data-name="Path 445" d="M109.042,1031.168a.166.166,0,0,1,.1.03.233.233,0,0,1,.065.078.4.4,0,0,1,.035.109.731.731,0,0,1,.01.124.717.717,0,0,1-.01.123.4.4,0,0,1-.035.108.222.222,0,0,1-.065.077.189.189,0,0,1-.2,0,.217.217,0,0,1-.065-.077.356.356,0,0,1-.034-.108.771.771,0,0,1-.01-.123.788.788,0,0,1,.01-.124.357.357,0,0,1,.034-.109.227.227,0,0,1,.065-.078A.167.167,0,0,1,109.042,1031.168Zm0,.056a.1.1,0,0,0-.071.026.179.179,0,0,0-.045.067.357.357,0,0,0-.023.091.844.844,0,0,0-.006.1.832.832,0,0,0,.006.1.359.359,0,0,0,.023.091.181.181,0,0,0,.045.066.1.1,0,0,0,.071.026.1.1,0,0,0,.07-.026.181.181,0,0,0,.045-.066.381.381,0,0,0,.023-.091.663.663,0,0,0,.006-.1.671.671,0,0,0-.006-.1.378.378,0,0,0-.023-.091.18.18,0,0,0-.045-.067A.1.1,0,0,0,109.042,1031.224Z" transform="translate(-108.368 -1031.168)"/>
      </g>
      <g id="Group_151" data-name="Group 151" transform="translate(1.52 5.501)">
        <path id="Path_446" data-name="Path 446" d="M108.174,1025.942a.164.164,0,0,1,.087.061.173.173,0,0,1,.035.111.167.167,0,0,1-.017.076.173.173,0,0,1-.046.058.2.2,0,0,1-.066.038.235.235,0,0,1-.157,0,.218.218,0,0,1-.066-.038.177.177,0,0,1-.045-.058.174.174,0,0,1-.016-.076.178.178,0,0,1,.009-.061.17.17,0,0,1,.064-.088.163.163,0,0,1,.049-.024v0a.115.115,0,0,1-.039-.021.155.155,0,0,1-.031-.034.193.193,0,0,1-.02-.043.173.173,0,0,1-.007-.048.158.158,0,0,1,.015-.071.138.138,0,0,1,.039-.054.176.176,0,0,1,.058-.035.19.19,0,0,1,.07-.012.2.2,0,0,1,.07.012.178.178,0,0,1,.058.035.161.161,0,0,1,.039.054.165.165,0,0,1,.015.071.156.156,0,0,1-.007.048.143.143,0,0,1-.02.043.164.164,0,0,1-.03.034.115.115,0,0,1-.04.021Zm-.225.165a.149.149,0,0,0,.009.054.116.116,0,0,0,.029.044.13.13,0,0,0,.045.029.145.145,0,0,0,.058.01.147.147,0,0,0,.058-.01.128.128,0,0,0,.044-.029.123.123,0,0,0,.029-.044.15.15,0,0,0,.01-.054.148.148,0,0,0-.01-.054.133.133,0,0,0-.029-.043.127.127,0,0,0-.044-.028.167.167,0,0,0-.058-.01.164.164,0,0,0-.058.01.129.129,0,0,0-.045.028.124.124,0,0,0-.029.043A.148.148,0,0,0,107.949,1026.107Zm.022-.308a.119.119,0,0,0,.009.047.11.11,0,0,0,.026.036.112.112,0,0,0,.038.024.119.119,0,0,0,.046.009.121.121,0,0,0,.046-.009.117.117,0,0,0,.038-.024.109.109,0,0,0,.025-.036.119.119,0,0,0,.009-.047.128.128,0,0,0-.009-.048.108.108,0,0,0-.025-.038.118.118,0,0,0-.037-.025.12.12,0,0,0-.094,0,.118.118,0,0,0-.037.025.116.116,0,0,0-.025.038A.128.128,0,0,0,107.972,1025.8Z" transform="translate(-107.884 -1025.623)"/>
        <path id="Path_447" data-name="Path 447" d="M109.056,1025.623a.164.164,0,0,1,.1.03.219.219,0,0,1,.065.077.392.392,0,0,1,.035.109.773.773,0,0,1,0,.247.4.4,0,0,1-.035.108.209.209,0,0,1-.065.076.185.185,0,0,1-.2,0,.214.214,0,0,1-.065-.076.38.38,0,0,1-.034-.108.737.737,0,0,1,0-.247.376.376,0,0,1,.034-.109.224.224,0,0,1,.065-.077A.165.165,0,0,1,109.056,1025.623Zm0,.056a.1.1,0,0,0-.071.026.181.181,0,0,0-.045.067.35.35,0,0,0-.023.091.848.848,0,0,0-.006.1.827.827,0,0,0,.006.1.348.348,0,0,0,.023.09.175.175,0,0,0,.045.067.11.11,0,0,0,.141,0,.181.181,0,0,0,.045-.067.369.369,0,0,0,.023-.09.663.663,0,0,0,.007-.1.678.678,0,0,0-.007-.1.371.371,0,0,0-.023-.091.187.187,0,0,0-.045-.067A.1.1,0,0,0,109.056,1025.679Z" transform="translate(-108.368 -1025.623)"/>
      </g>
      <g id="Group_152" data-name="Group 152" transform="translate(1.519 2.75)">
        <path id="Path_448" data-name="Path 448" d="M108.172,1020.457h0a.118.118,0,0,1-.042.017.207.207,0,0,1-.128-.008.185.185,0,0,1-.063-.04.2.2,0,0,1-.041-.063.22.22,0,0,1,0-.163.176.176,0,0,1,.044-.064.213.213,0,0,1,.066-.042.252.252,0,0,1,.168,0,.213.213,0,0,1,.066.042.19.19,0,0,1,.044.064.214.214,0,0,1,.015.082.247.247,0,0,1-.017.093.633.633,0,0,1-.041.082l-.175.282h-.076Zm.063-.176a.157.157,0,0,0-.01-.058.132.132,0,0,0-.029-.047.155.155,0,0,0-.046-.031.146.146,0,0,0-.058-.011.15.15,0,0,0-.059.011.153.153,0,0,0-.045.031.14.14,0,0,0-.03.047.157.157,0,0,0-.01.058.167.167,0,0,0,.01.058.139.139,0,0,0,.029.047.122.122,0,0,0,.046.03.155.155,0,0,0,.06.012.15.15,0,0,0,.059-.012.122.122,0,0,0,.046-.03.125.125,0,0,0,.029-.047A.156.156,0,0,0,108.235,1020.281Z" transform="translate(-107.882 -1020.078)"/>
        <path id="Path_449" data-name="Path 449" d="M109.057,1020.078a.165.165,0,0,1,.1.03.214.214,0,0,1,.065.077.388.388,0,0,1,.035.109.738.738,0,0,1,.01.124.723.723,0,0,1-.01.123.39.39,0,0,1-.035.108.205.205,0,0,1-.065.077.167.167,0,0,1-.1.029.171.171,0,0,1-.1-.029.2.2,0,0,1-.064-.077.36.36,0,0,1-.035-.108.723.723,0,0,1-.01-.123.738.738,0,0,1,.01-.124.358.358,0,0,1,.035-.109.213.213,0,0,1,.064-.077A.168.168,0,0,1,109.057,1020.078Zm0,.056a.1.1,0,0,0-.071.026.18.18,0,0,0-.045.067.337.337,0,0,0-.023.091.755.755,0,0,0,0,.2.339.339,0,0,0,.023.091.175.175,0,0,0,.045.066.108.108,0,0,0,.141,0,.176.176,0,0,0,.045-.066.405.405,0,0,0,.023-.091.7.7,0,0,0,0-.2.4.4,0,0,0-.023-.091.181.181,0,0,0-.045-.067A.1.1,0,0,0,109.057,1020.134Z" transform="translate(-108.368 -1020.078)"/>
      </g>
      <g id="Group_153" data-name="Group 153" transform="translate(1.302)">
        <path id="Path_450" data-name="Path 450" d="M107.666,1015.21H107.6v-.563l-.117.1-.04-.046.164-.134h.058Z" transform="translate(-107.444 -1014.55)"/>
        <path id="Path_451" data-name="Path 451" d="M108.524,1014.533a.166.166,0,0,1,.1.029.214.214,0,0,1,.064.077.362.362,0,0,1,.035.109.69.69,0,0,1,.011.124.678.678,0,0,1-.011.124.359.359,0,0,1-.035.108.213.213,0,0,1-.064.077.165.165,0,0,1-.1.029.168.168,0,0,1-.1-.029.229.229,0,0,1-.064-.077.36.36,0,0,1-.035-.108.78.78,0,0,1-.01-.124.8.8,0,0,1,.01-.124.363.363,0,0,1,.035-.109.231.231,0,0,1,.064-.077A.168.168,0,0,1,108.524,1014.533Zm0,.055a.106.106,0,0,0-.072.026.2.2,0,0,0-.044.067.342.342,0,0,0-.022.092.668.668,0,0,0-.007.1.654.654,0,0,0,.007.1.329.329,0,0,0,.022.091.189.189,0,0,0,.044.067.1.1,0,0,0,.072.026.1.1,0,0,0,.07-.026.182.182,0,0,0,.044-.067.367.367,0,0,0,.023-.091.654.654,0,0,0,.007-.1.669.669,0,0,0-.007-.1.383.383,0,0,0-.023-.092.191.191,0,0,0-.044-.067A.1.1,0,0,0,108.524,1014.589Z" transform="translate(-107.882 -1014.533)"/>
        <path id="Path_452" data-name="Path 452" d="M109.5,1014.533a.164.164,0,0,1,.1.029.211.211,0,0,1,.065.077.377.377,0,0,1,.035.109.739.739,0,0,1,.01.124.725.725,0,0,1-.01.124.374.374,0,0,1-.035.108.209.209,0,0,1-.065.077.163.163,0,0,1-.1.029.166.166,0,0,1-.1-.029.213.213,0,0,1-.064-.077.36.36,0,0,1-.035-.108.778.778,0,0,1-.01-.124.793.793,0,0,1,.01-.124.363.363,0,0,1,.035-.109.215.215,0,0,1,.064-.077A.167.167,0,0,1,109.5,1014.533Zm0,.055a.1.1,0,0,0-.071.026.2.2,0,0,0-.045.067.383.383,0,0,0-.022.092.744.744,0,0,0-.007.1.727.727,0,0,0,.007.1.368.368,0,0,0,.022.091.189.189,0,0,0,.045.067.1.1,0,0,0,.071.026.1.1,0,0,0,.07-.026.178.178,0,0,0,.045-.067.367.367,0,0,0,.023-.091.816.816,0,0,0,.007-.1.838.838,0,0,0-.007-.1.383.383,0,0,0-.023-.092.186.186,0,0,0-.045-.067A.1.1,0,0,0,109.5,1014.589Z" transform="translate(-108.372 -1014.533)"/>
      </g>
    </g>
  </g>
  <g id="Group_159" data-name="Group 159" transform="translate(8.678 23.402)">
    <path id="Path_453" data-name="Path 453" d="M68.622,1064.706c.006-.751.008-1.5.016-2.253a23.019,23.019,0,0,0-.26-5.67,1.661,1.661,0,0,0-.311-.758,3.534,3.534,0,0,0-.876-.718,10.424,10.424,0,0,0-2.489-.842c-.512-.138-.975-.419-1.474-.59q-.812-.28-1.632-.532-2.363-.728-4.786-1.242a5.759,5.759,0,0,0-2.251-.019,48.309,48.309,0,0,0-9.616,3.362,26.9,26.9,0,0,0-2.594,1.244,2.079,2.079,0,0,0-.8.709,2.5,2.5,0,0,0-.333,1.118,23.562,23.562,0,0,0,.378,5.712,49.8,49.8,0,0,0,1.134,7.175,2.841,2.841,0,0,0,.82,1.266,5.131,5.131,0,0,0,1.261.874,45.5,45.5,0,0,0,4.4,1.853,25.573,25.573,0,0,0,4.223,1.344,4.5,4.5,0,0,0,1.84.076c.55-.128,7.369-3.106,10.14-4.64a16.165,16.165,0,0,0,2.323-1.448,2.555,2.555,0,0,0,.761-2.059C68.587,1067.348,68.611,1066.027,68.622,1064.706Z" transform="translate(-41.15 -1051.981)" fill="#ace3f9"/>
    <path id="Path_454" data-name="Path 454" d="M67.915,1056.891c-.6-.134-1.323.419-1.825.692-1.071.583-2.131,1.2-3.215,1.757a7.974,7.974,0,0,1-2.374.938,7.055,7.055,0,0,1-3.622-.383,1.724,1.724,0,0,1-1.209-2.292,5.339,5.339,0,0,1,2.266-2.367,18.067,18.067,0,0,1-2.5,1.085c-1.494.417-3.257.274-4.616,1.1a2.06,2.06,0,0,0-1.114,1.776.964.964,0,0,0,.128.429.95.95,0,0,0,.7.417,9.244,9.244,0,0,0,1.015-.019,5.29,5.29,0,0,1,2.755,1.045,9.34,9.34,0,0,0,3.659,1.256,6.8,6.8,0,0,0,3.772-.945,30.472,30.472,0,0,1,3.123-1.52,11.763,11.763,0,0,0,2.212-.946A2.43,2.43,0,0,0,68,1058C68.122,1057.749,68.358,1056.989,67.915,1056.891Z" transform="translate(-45.461 -1053.621)" fill="azure"/>
    <g id="Group_156" data-name="Group 156" transform="translate(1.569)">
      <path id="Path_455" data-name="Path 455" d="M69,1055.441c-.069-.047-.139-.092-.212-.134a10.424,10.424,0,0,0-2.489-.842c-.512-.138-.975-.419-1.474-.59q-.812-.28-1.632-.532-2.363-.728-4.786-1.242a5.759,5.759,0,0,0-2.251-.019,48.309,48.309,0,0,0-9.616,3.362q-.932.389-1.834.845a3.04,3.04,0,0,0-.173.256c-.787,1.318.742,2.092,1.779,2.516a35.4,35.4,0,0,0,4.627,1.52c1.233.314,2.469.649,3.709.932a6.577,6.577,0,0,0,3.814-.061c1.13-.415,2.15-1.059,3.252-1.535,1.152-.5,2.358-.88,3.526-1.341.668-.264,1.34-.526,1.991-.827a3.454,3.454,0,0,0,1.2-.809A2,2,0,0,0,69,1055.441Zm-2.359.764c-.348,1.043-1.742,1.423-2.664,1.7a10.88,10.88,0,0,0-3.332,1.336c-1.313.948-2.617,2.018-4.3,2.151-1.429.113-2.45-.865-3.579-1.533a7.948,7.948,0,0,0-3.622-.739c-1.068-.076-2.069-.354-2.439-1.478a1.555,1.555,0,0,1,.565-1.868,6.248,6.248,0,0,1,2.548-.926,17.713,17.713,0,0,0,3.248-.915c1.415-.546,3.248-1.554,4.765-.779.761.389.027,1.006-.405,1.232a17.1,17.1,0,0,0-2.208,1.154c-.93.669-1.444,2.521.111,2.771a4.953,4.953,0,0,0,3.862-1.173c1.371-1.4,2.852-2.948,5-2.727C64.989,1054.493,67.063,1054.932,66.639,1056.205Z" transform="translate(-44.313 -1051.981)" fill="#ace3f9" opacity="0.5" style="mix-blend-mode: multiply;isolation: isolate"/>
    </g>
    <path id="Path_456" data-name="Path 456" d="M71.321,1071.866c0,.068-.007.136-.012.2a23.311,23.311,0,0,0,.071,4.214c.124,1.094.064,4.317,1.493,4.657.915.217,1.96-.644,2.637-1.151a17.2,17.2,0,0,1,3.6-2c1.165-.5,2.723-.8,3.648-1.706,1.03-1.012.851-2.739.7-4.037-.2-1.713-.33-3.433-.491-5.152-.11-1.176-.562-1.64-1.761-1.3-1.493.421-2.981,1.02-4.426,1.58-1.518.588-3.446,1.146-4.683,2.248A3.224,3.224,0,0,0,71.321,1071.866Z" transform="translate(-56.318 -1058.786)" fill="#ace3f9" opacity="0.5" style="mix-blend-mode: multiply;isolation: isolate"/>
    <path id="Path_457" data-name="Path 457" d="M72.609,1080.012a1.218,1.218,0,0,0,1.88.551,3.679,3.679,0,0,0,1.429-3.1c.086-1.235-.026-2.485.12-3.716a2.373,2.373,0,0,1,1.233-2.15,2.03,2.03,0,0,1,2.427.953c.332.457.607.955.926,1.424a2.358,2.358,0,0,0,1.126,1.045c1.756.5,1.466-1.585,1.336-2.723-.084-.738-.136-1.479-.188-2.22a3.913,3.913,0,0,0-.343-1.883,2.257,2.257,0,0,0-2.329-.912c-1.276.436-2.512.985-3.782,1.439a10.09,10.09,0,0,0-3.3,1.605c-2.216,1.9-1.152,5.517-.981,8.03A4.233,4.233,0,0,0,72.609,1080.012Z" transform="translate(-56.575 -1059.679)" fill="#ace3f9" opacity="0.5" style="mix-blend-mode: multiply;isolation: isolate"/>
    <g id="Group_157" data-name="Group 157" transform="translate(1.464 0.956)" style="mix-blend-mode: multiply;isolation: isolate">
      <path id="Path_458" data-name="Path 458" d="M69.715,1085.869c-.016-.172-.033-.332-.042-.468-.161-2.419-.206-4.843-.263-7.265-.018-.774-.126-1.542-.191-2.313a10.556,10.556,0,0,0-.206-2.179c-.011-.037-.068-.019-.063.017a11.655,11.655,0,0,1,.058,1.612c-.013,1.359.156,2.718.231,4.074q.115,2.1.183,4.2.04,1.19.067,2.38a6.546,6.546,0,0,0,.15,1.359A2.843,2.843,0,0,0,69.715,1085.869Z" transform="translate(-56.624 -1063.845)" fill="#5ccaf3" opacity="0.5"/>
      <path id="Path_459" data-name="Path 459" d="M86.585,1084.755c-.02-.054-.242-.149-.35-.188a10.323,10.323,0,0,0-2.2-.52c-1.032-.123-2.052-.325-3.084-.454-.641-.079-1.286-.012-1.926-.078a.012.012,0,0,0,0,.023c1.246.239,2.518.324,3.765.566.565.11,1.137.183,1.707.269.643.1,1.26.371,1.911.415C86.55,1084.8,86.6,1084.783,86.585,1084.755Z" transform="translate(-61.693 -1068.829)" fill="#5ccaf3" opacity="0.5"/>
      <path id="Path_460" data-name="Path 460" d="M58.1,1086.109a27.4,27.4,0,0,0-2.813.84c-1,.323-1.973.643-2.94,1.047-.021.009-.007.04.014.033.949-.292,1.894-.6,2.848-.887.976-.29,1.961-.589,2.912-.953A.042.042,0,0,0,58.1,1086.109Z" transform="translate(-48.252 -1070.136)" fill="#5ccaf3" opacity="0.5"/>
      <path id="Path_461" data-name="Path 461" d="M69.129,1054.441a4.129,4.129,0,0,0-.954-.48,3.367,3.367,0,0,0-1.159,0,3.512,3.512,0,0,0-1.079.34,5.484,5.484,0,0,0-.884.688c-.016.012,0,.042.019.032.212-.117.394-.264.6-.392a3.614,3.614,0,0,1,2.477-.456c.34.059.624.269.967.329C69.149,1054.506,69.157,1054.457,69.129,1054.441Z" transform="translate(-54.657 -1053.908)" fill="#5ccaf3" opacity="0.5"/>
      <path id="Path_462" data-name="Path 462" d="M89.007,1087.126a11.149,11.149,0,0,1-2.759,1.707c-.505.237-1.015.462-1.522.692a13.977,13.977,0,0,0-1.4.762c-.028.017,0,.064.03.05,1.033-.466,2.078-.917,3.1-1.406a7.834,7.834,0,0,0,2.582-1.772C89.059,1087.139,89.027,1087.108,89.007,1087.126Z" transform="translate(-63.865 -1070.647)" fill="#5ccaf3" opacity="0.5"/>
      <path id="Path_463" data-name="Path 463" d="M45.609,1082.462a10.114,10.114,0,0,1-.956-3.835c-.095-.7-.2-1.4-.264-2.106a17.473,17.473,0,0,0-.241-2.085.023.023,0,0,0-.046.006c.1.7.135,1.393.17,2.1.036.756.153,1.512.244,2.263.085.706.164,1.4.307,2.094a3.12,3.12,0,0,0,.666,1.638C45.539,1082.584,45.652,1082.537,45.609,1082.462Z" transform="translate(-44.101 -1064.244)" fill="#5ccaf3" opacity="0.5"/>
      <path id="Path_464" data-name="Path 464" d="M48.93,1092.644c-.226-.255-.559-.288-.832-.462a.028.028,0,0,0-.034.045,4.471,4.471,0,0,0,.821.477A.039.039,0,0,0,48.93,1092.644Z" transform="translate(-46.093 -1073.195)" fill="#5ccaf3" opacity="0.5"/>
      <path id="Path_465" data-name="Path 465" d="M68.96,1060.076l0-.011c-.5,1.354-1.627,1.548-2.858,2-1.535.566-3.059,1.165-4.552,1.836a29,29,0,0,1-4.071,1.763,5.927,5.927,0,0,1-3.34-.2c-2.285-.679-4.565-1.407-6.828-2.156a12.577,12.577,0,0,1-2.7-1.133c1.131,1.1,2.72,1.416,4.188,1.842,1.979.573,3.946,1.326,5.914,1.932,3.245,1,5.855-1.344,8.573-2.516a27.767,27.767,0,0,1,2.681-1.006C67.4,1061.976,68.564,1061.64,68.96,1060.076Z" transform="translate(-44.358 -1057.011)" fill="#5ccaf3" opacity="0.5"/>
    </g>
    <path id="Path_466" data-name="Path 466" d="M44.514,1072.409c.013.571.035,1.142.072,1.712a17.244,17.244,0,0,0,.407,3.212c.234.9.825,2.116,1.986,1.722.947-.32,1.16-1.332,1.253-2.214a3.485,3.485,0,0,1,.554-1.884A3.231,3.231,0,0,1,50.9,1073.8c.8-.112,1.6-.04,2.4-.119a3.224,3.224,0,0,0,1.788-.589,1.177,1.177,0,0,0-.356-1.966,8.439,8.439,0,0,0-2.259-.691,17.921,17.921,0,0,1-5.565-2.543,2.874,2.874,0,0,0-1.3-.582c-.621-.018-.973.573-1.085,1.123-.237,1.161.282,2.313.085,3.484C44.577,1072.081,44.546,1072.245,44.514,1072.409Z" transform="translate(-42.816 -1059.706)" fill="#ace3f9" opacity="0.5" style="mix-blend-mode: multiply;isolation: isolate"/>
    <g id="Group_158" data-name="Group 158" transform="translate(0.345 3.876)">
      <path id="Path_467" data-name="Path 467" d="M87.515,1062.518a14.543,14.543,0,0,0-.217-1.714c-.076-.412-.188-.842-.564-1.009a4.329,4.329,0,0,1-2.128,2.136c-1.682.933-3.662,1.167-5.292,2.205a18.171,18.171,0,0,0,2.753-1.014c.543-.2,1.084-.408,1.628-.607.424-.155.826-.366,1.252-.515a1.84,1.84,0,0,1,2.019.224,2.777,2.777,0,0,1,.588,1.079C87.544,1063.042,87.532,1062.78,87.515,1062.518Z" transform="translate(-60.729 -1059.795)" fill="azure"/>
      <path id="Path_468" data-name="Path 468" d="M69.306,1072.644a2.224,2.224,0,0,0-.066.759c.026.471.084.945.142,1.421a5.563,5.563,0,0,1,1.752-2.9,4.679,4.679,0,0,1-.837.211C69.938,1072.184,69.429,1072.228,69.306,1072.644Z" transform="translate(-55.648 -1065.905)" fill="azure"/>
      <path id="Path_469" data-name="Path 469" d="M70.712,1090.709a.463.463,0,0,0-.083.175,8.549,8.549,0,0,0,.139,1.365,3.34,3.34,0,0,0,.167.992c.194.215,1.148-.223,1.545-.361.887-.309,1.746-.728,2.606-1.105a51.277,51.277,0,0,0,4.92-2.515c1.245-.716,2.873-1.454,3.309-2.926l.018-.209c-.077.122-.158.242-.246.357a10.573,10.573,0,0,1-4.152,3.007,34.018,34.018,0,0,0-4.892,2.328c-.593.4-1.571,1.23-2.343.776-.674-.4-.622-1.25-.974-1.862Z" transform="translate(-56.349 -1073.064)" fill="azure"/>
      <path id="Path_470" data-name="Path 470" d="M55.662,1069.335c-2.4-.569-4.58-1.756-6.942-2.434a5.727,5.727,0,0,0,2.321,1.489,20.024,20.024,0,0,0,3.012,1.444,13.74,13.74,0,0,0,2,.538,3.1,3.1,0,0,0,1.046.058c.162-.03.614-.192.378-.423A3.971,3.971,0,0,0,55.662,1069.335Z" transform="translate(-45.31 -1063.376)" fill="azure"/>
      <path id="Path_471" data-name="Path 471" d="M41.882,1066.79a44.7,44.7,0,0,0,.407,4.732,35.048,35.048,0,0,0,.747,4.921,2.653,2.653,0,0,0,1.144,1.768c.126.078.255.148.387.214a.823.823,0,0,0,.179-.024,16.876,16.876,0,0,0-1.174-2.323,3.852,3.852,0,0,1-.2-.615,8.286,8.286,0,0,1-.693-2.768c-.08-.962-.17-1.915-.288-2.873a9.691,9.691,0,0,1-.06-2.72,2.725,2.725,0,0,1,1.037-1.865,2.833,2.833,0,0,0,.44-.323c.223-.235.035-.5-.2-.624s-.5-.184-.74-.29a1.142,1.142,0,0,1-.654-.666A7.677,7.677,0,0,0,41.882,1066.79Z" transform="translate(-41.845 -1061.578)" fill="azure"/>
      <path id="Path_472" data-name="Path 472" d="M58.943,1081.637c.007-.731.143-1.5.076-2.231a.909.909,0,0,0-.035-.182.491.491,0,0,0-.109.074c-.476.4-.485,1.1-.81,1.6-.382.586-1.078.789-1.536,1.289a1.856,1.856,0,0,0-.242,1.752,1.676,1.676,0,0,1-.429,1.8,2.952,2.952,0,0,1-2.2.349c-.834-.109-1.65-.321-2.473-.495-.092-.02-.184-.046-.275-.073a2.351,2.351,0,0,1-1.184-.147.192.192,0,0,0,.026.078c.487.9,1.529,1.094,2.393,1.463.729.311,1.41.724,2.115,1.083a9,9,0,0,0,2.57.975c.829.137,2.007.027,2.426-.843.428-.889.046-1.939-.1-2.849A21.127,21.127,0,0,1,58.943,1081.637Z" transform="translate(-45.816 -1069.587)" fill="azure"/>
    </g>
  </g>
</svg>
