<svg xmlns="http://www.w3.org/2000/svg" xmlns:xlink="http://www.w3.org/1999/xlink" width="17.215" height="17.215" viewBox="0 0 17.215 17.215">
  <defs>
    <clipPath id="clip-path">
      <rect id="Rectangle_80" data-name="Rectangle 80" width="17.215" height="17.215" fill="none"/>
    </clipPath>
  </defs>
  <g id="Group_9214" data-name="Group 9214" transform="translate(-655.357 -969.786)" opacity="0.41">
    <g id="Group_101" data-name="Group 101" transform="translate(655.357 969.786)">
      <g id="Group_100" data-name="Group 100" clip-path="url(#clip-path)">
        <path id="Path_180" data-name="Path 180" d="M671.322,976.195l-.839-.142q-.112-.312-.253-.611l.495-.692a1.5,1.5,0,0,0-.163-1.939l-1.009-1.009a1.5,1.5,0,0,0-1.936-.163l-.694.495a6.877,6.877,0,0,0-.652-.269l-.139-.823a1.5,1.5,0,0,0-1.486-1.257h-1.425a1.5,1.5,0,0,0-1.486,1.256l-.146.855c-.206.076-.409.161-.608.256l-.682-.491a1.5,1.5,0,0,0-1.942.162l-1.011,1.008a1.5,1.5,0,0,0-.163,1.939l.5.706c-.093.2-.176.4-.25.614l-.823.139a1.5,1.5,0,0,0-1.257,1.486v1.426a1.5,1.5,0,0,0,1.256,1.486l.855.146c.075.206.161.409.256.608l-.489.68A1.5,1.5,0,0,0,657.4,984l1.009,1.009a1.5,1.5,0,0,0,1.936.163l.705-.5q.279.129.575.236l.14.839A1.5,1.5,0,0,0,663.249,987h1.428a1.5,1.5,0,0,0,1.486-1.256l.143-.84c.208-.075.412-.159.611-.252l.689.493a1.5,1.5,0,0,0,1.941-.161l1.009-1.009a1.5,1.5,0,0,0,.163-1.939l-.495-.7c.1-.2.181-.407.253-.609l.838-.14a1.5,1.5,0,0,0,1.257-1.486v-1.422a1.488,1.488,0,0,0-1.25-1.489Zm.241,2.911a.5.5,0,0,1-.415.491l-1.112.185a.544.544,0,0,0-.432.378,5.9,5.9,0,0,1-.4.972.543.543,0,0,0,.04.569l.655.92a.5.5,0,0,1-.054.641l-1.009,1.009a.5.5,0,0,1-.64.055l-.916-.655a.542.542,0,0,0-.572-.04,5.928,5.928,0,0,1-.973.4.544.544,0,0,0-.375.43l-.189,1.113a.5.5,0,0,1-.491.416h-1.428a.5.5,0,0,1-.491-.415l-.185-1.112a.543.543,0,0,0-.375-.431,5.907,5.907,0,0,1-.942-.387.55.55,0,0,0-.252-.062.543.543,0,0,0-.316.1l-.933.664a.476.476,0,0,1-.284.091.489.489,0,0,1-.351-.147l-1.011-1.011a.493.493,0,0,1-.053-.637l.651-.906a.542.542,0,0,0,.039-.576,5.8,5.8,0,0,1-.408-.969.543.543,0,0,0-.429-.373l-1.127-.193a.5.5,0,0,1-.415-.491v-1.426a.5.5,0,0,1,.416-.491l1.1-.186a.542.542,0,0,0,.431-.379,5.845,5.845,0,0,1,.4-.975.544.544,0,0,0-.04-.568l-.662-.931a.5.5,0,0,1,.053-.64l1.012-1.009,0,0a.482.482,0,0,1,.348-.143.488.488,0,0,1,.288.091l.91.655a.541.541,0,0,0,.576.039,5.734,5.734,0,0,1,.968-.408.544.544,0,0,0,.373-.429l.193-1.127a.5.5,0,0,1,.491-.415h1.426a.5.5,0,0,1,.491.416l.185,1.1a.544.544,0,0,0,.38.432,5.838,5.838,0,0,1,1.009.416.546.546,0,0,0,.57-.039l.922-.657a.478.478,0,0,1,.284-.091.486.486,0,0,1,.351.147l1.011,1.01a.493.493,0,0,1,.053.638l-.656.917a.543.543,0,0,0-.039.571,5.91,5.91,0,0,1,.4.973.544.544,0,0,0,.43.375l1.112.189h0a.483.483,0,0,1,.408.484Zm0,0" transform="translate(-655.357 -969.786)" fill="#f9f9f9"/>
      </g>
    </g>
    <path id="Path_181" data-name="Path 181" d="M671.582,982.663a3.347,3.347,0,1,0,3.347,3.347,3.351,3.351,0,0,0-3.347-3.347Zm0,5.686a2.338,2.338,0,1,1,2.338-2.339,2.341,2.341,0,0,1-2.338,2.339Zm0,0" transform="translate(-7.617 -7.617)" fill="#fcfcfc"/>
  </g>
</svg>
