<svg xmlns="http://www.w3.org/2000/svg" xmlns:xlink="http://www.w3.org/1999/xlink" width="17.215" height="18.445" viewBox="0 0 17.215 18.445">
  <defs>
    <clipPath id="clip-path">
      <rect id="Rectangle_1" data-name="Rectangle 1" width="17.215" height="18.445" fill="#f2f2f3"/>
    </clipPath>
  </defs>
  <g id="Group_383" data-name="Group 383" transform="translate(-178.353 -505.342)" opacity="0.7">
    <g id="Group_9200" data-name="Group 9200" transform="translate(178.353 505.342)">
      <g id="Group_9199" data-name="Group 9199" clip-path="url(#clip-path)">
        <path id="Path_3695" data-name="Path 3695" d="M178.353,522.25a1.539,1.539,0,0,0,1.537,1.537h11.374a4.3,4.3,0,0,0,1.845-8.192v-6.257a.309.309,0,0,0-.09-.218l-3.689-3.689a.307.307,0,0,0-.217-.09H179.89a1.538,1.538,0,0,0-1.537,1.537Zm16.6-2.767a3.689,3.689,0,1,1-3.689-3.689,3.688,3.688,0,0,1,3.689,3.689Zm-5.533-13.092,2.639,2.639h-1.717a.923.923,0,0,1-.922-.922Zm-10.452.487a.923.923,0,0,1,.922-.922H188.8v2.152a1.539,1.539,0,0,0,1.537,1.537h2.152v5.713a4.3,4.3,0,0,0-3.444,7.813h-9.16a.923.923,0,0,1-.922-.922Zm0,0" transform="translate(-178.353 -505.342)" fill="#f2f2f3"/>
      </g>
    </g>
    <path id="Path_3696" data-name="Path 3696" d="M190.694,519.533a.307.307,0,0,0,.307.307h7.378a.307.307,0,1,0,0-.615H191a.308.308,0,0,0-.307.308Zm0,0" transform="translate(-7.422 -8.35)" fill="#f2f2f3"/>
    <path id="Path_3697" data-name="Path 3697" d="M183.288,524.468h6.148a.307.307,0,0,0,0-.615h-6.148a.307.307,0,0,0,0,.615Zm0,0" transform="translate(-2.784 -11.133)" fill="#f2f2f3"/>
    <path id="Path_3698" data-name="Path 3698" d="M198.088,528.481h-2.459a.307.307,0,0,0,0,.615h2.459a.307.307,0,1,0,0-.615Zm0,0" transform="translate(-10.206 -13.917)" fill="#f2f2f3"/>
    <path id="Path_3699" data-name="Path 3699" d="M183.288,533.724h5.534a.307.307,0,1,0,0-.615h-5.534a.307.307,0,1,0,0,.615Zm0,0" transform="translate(-2.784 -16.7)" fill="#f2f2f3"/>
    <path id="Path_3700" data-name="Path 3700" d="M183.288,519.84h1.845a.307.307,0,0,0,0-.615h-1.845a.307.307,0,0,0,0,.615Zm0,0" transform="translate(-2.784 -8.35)" fill="#f2f2f3"/>
    <path id="Path_3701" data-name="Path 3701" d="M204.873,523.853H201.8a.307.307,0,0,0,0,.615h3.074a.307.307,0,1,0,0-.615Zm0,0" transform="translate(-13.917 -11.133)" fill="#f2f2f3"/>
    <path id="Path_3702" data-name="Path 3702" d="M183.288,529.1h3.689a.307.307,0,0,0,0-.615h-3.689a.307.307,0,0,0,0,.615Zm0,0" transform="translate(-2.784 -13.917)" fill="#f2f2f3"/>
    <path id="Path_3703" data-name="Path 3703" d="M193.773,542.364h-1.23a.307.307,0,1,0,0,.615h1.23a.307.307,0,0,0,0-.615Zm0,0" transform="translate(-8.35 -22.267)" fill="#f2f2f3"/>
    <path id="Path_3704" data-name="Path 3704" d="M183.288,542.979h2.459a.307.307,0,1,0,0-.615h-2.459a.307.307,0,0,0,0,.615Zm0,0" transform="translate(-2.784 -22.267)" fill="#f2f2f3"/>
    <path id="Path_3705" data-name="Path 3705" d="M183.288,538.352h1.845a.307.307,0,1,0,0-.615h-1.845a.307.307,0,1,0,0,.615Zm0,0" transform="translate(-2.784 -19.484)" fill="#f2f2f3"/>
    <path id="Path_3706" data-name="Path 3706" d="M183.288,515.212h3.689a.307.307,0,0,0,0-.615h-3.689a.307.307,0,0,0,0,.615Zm0,0" transform="translate(-2.784 -5.566)" fill="#f2f2f3"/>
    <path id="Path_3707" data-name="Path 3707" d="M192.846,537.737H191a.307.307,0,1,0,0,.615h1.845a.307.307,0,1,0,0-.615Zm0,0" transform="translate(-7.422 -19.484)" fill="#f2f2f3"/>
    <path id="Path_3708" data-name="Path 3708" d="M206.231,535.494a.307.307,0,0,0-.039.433s1.165,1.4,1.536,1.843a.307.307,0,0,0,.2.11l.033,0h2.152a.307.307,0,0,0,0-.615h-2.008l-1.445-1.734a.308.308,0,0,0-.433-.039Zm0,0" transform="translate(-16.7 -18.092)" fill="#f2f2f3"/>
  </g>
</svg>
