<svg id="Group_23" data-name="Group 23" xmlns="http://www.w3.org/2000/svg" width="39.545" height="36.456" viewBox="0 0 39.545 36.456">
  <path id="Path_20" data-name="Path 20" d="M409.358,155.077h-1.081V154a2.32,2.32,0,0,0-2.317-2.317h-1.854v-.927a2.472,2.472,0,1,0-4.943,0v.927h-6.488v-.927a2.472,2.472,0,1,0-4.943,0v.927h-6.488v-.927a2.472,2.472,0,1,0-4.943,0v.927h-1.853A2.32,2.32,0,0,0,372.13,154V179.02a2.32,2.32,0,0,0,2.317,2.317h1.081v1.081a2.32,2.32,0,0,0,2.317,2.317h31.512a2.32,2.32,0,0,0,2.317-2.317V157.394a2.32,2.32,0,0,0-2.317-2.317Zm-8.65-4.325a.927.927,0,0,1,1.854,0v3.4a.927.927,0,0,1-1.854,0Zm-11.431,0a.927.927,0,0,1,1.854,0v3.4a.927.927,0,0,1-1.854,0Zm-11.431,0a.927.927,0,0,1,1.854,0v3.4a.927.927,0,0,1-1.854,0Zm-3.4,2.472H376.3v.927a2.472,2.472,0,1,0,4.943,0v-.927h6.488v.927a2.472,2.472,0,0,0,4.943,0v-.927h6.488v.927a2.472,2.472,0,1,0,4.943,0v-.927h1.854a.773.773,0,0,1,.772.772v6.951H373.674V154a.773.773,0,0,1,.773-.772Zm35.683,29.2a.773.773,0,0,1-.773.772H377.845a.773.773,0,0,1-.772-.772v-1.081h9.654a.772.772,0,1,0,0-1.545h-12.28a.773.773,0,0,1-.773-.772V162.492h33.057V179.02a.773.773,0,0,1-.772.772H393.679a.772.772,0,1,0,0,1.545h12.281a2.32,2.32,0,0,0,2.317-2.317v-22.4h1.081a.773.773,0,0,1,.773.772Zm0,0" transform="translate(-372.13 -148.28)" fill="#f2f2f3"/>
  <path id="Path_21" data-name="Path 21" d="M407.826,197.715a.772.772,0,0,0,1.121-.814l-.549-3.2,2.325-2.266a.772.772,0,0,0-.428-1.318l-3.214-.467-1.437-2.912a.773.773,0,0,0-1.386,0l-1.437,2.912-3.214.467a.773.773,0,0,0-.428,1.318l2.325,2.266-.549,3.2a.773.773,0,0,0,1.121.814l2.874-1.511Zm-5.082-2.1.353-2.059a.774.774,0,0,0-.222-.684l-1.5-1.458,2.067-.3a.773.773,0,0,0,.581-.423l.924-1.873.924,1.873a.773.773,0,0,0,.581.422l2.067.3-1.5,1.457a.773.773,0,0,0-.222.684l.353,2.058-1.849-.972a.775.775,0,0,0-.718,0Zm0,0" transform="translate(-386.878 -169.193)" fill="#f2f2f3"/>
  <path id="Path_22" data-name="Path 22" d="M411.345,218.3a.773.773,0,1,0,.546.226.777.777,0,0,0-.546-.226Zm0,0" transform="translate(-393.272 -186.789)" fill="#f2f2f3"/>
</svg>
