<svg xmlns="http://www.w3.org/2000/svg" width="11.611" height="16" viewBox="0 0 11.611 16">
  <g id="Icon" opacity="0.5">
    <g id="Group_186" data-name="Group 186" transform="translate(0.037)">
      <path id="Path_11" data-name="Path 11" d="M11.34,2.284,8.663.195A.894.894,0,0,0,7.389.358L1.218,8.194a.725.725,0,0,0-.163.359L.141,12.439a.852.852,0,0,0,.327.914.947.947,0,0,0,.98.1l3.559-1.8a1.278,1.278,0,0,0,.327-.261L11.5,3.59A.964.964,0,0,0,11.34,2.284Zm-7.183,8L2.1,11.329l.522-2.253,3.624-4.6L7.781,5.68Zm4.6-5.877L7.226,3.2,8.238,1.925,9.773,3.133Z" transform="translate(-0.112 0.002)" fill="#fff"/>
    </g>
    <g id="Group_187" data-name="Group 187" transform="translate(0 14.367)">
      <path id="Path_12" data-name="Path 12" d="M10.612,45.633H.816A.808.808,0,0,1,0,44.816H0A.808.808,0,0,1,.816,44h9.8a.808.808,0,0,1,.816.816h0A.808.808,0,0,1,10.612,45.633Z" transform="translate(0 -44)" fill="#fff"/>
    </g>
  </g>
</svg>
