<svg id="Icon_Catalog" xmlns="http://www.w3.org/2000/svg" width="18.261" height="16.739" viewBox="0 0 18.261 16.739">
  <path id="catalog" d="M4.16,9.652l1,7.609c0,.228.333.457.582.457H17.556c.25,0,.582-.228.582-.457l1-7.609a.291.291,0,0,0-.333-.3H4.493c-.25,0-.333.076-.333.3ZM2.5,9.8A1.8,1.8,0,0,1,4.41,7.826H18.8A1.8,1.8,0,0,1,20.718,9.8l-1,7.609a2.259,2.259,0,0,1-2.247,1.826H5.741a2.253,2.253,0,0,1-2.247-1.826L2.5,9.8Zm3.328-3.12a.764.764,0,1,1,0-1.522H17.473a.764.764,0,1,1,0,1.522ZM7.9,4.022A.764.764,0,1,1,7.9,2.5h7.488a.764.764,0,1,1,0,1.522Z" transform="translate(-2.476 -2.5)" fill="#fff" opacity="0.5"/>
</svg>
