<svg xmlns="http://www.w3.org/2000/svg" xmlns:xlink="http://www.w3.org/1999/xlink" width="51.413" height="50.554" viewBox="0 0 51.413 50.554">
  <defs>
    <clipPath id="clip-path">
      <rect width="51.413" height="50.554" fill="none"/>
    </clipPath>
    <linearGradient id="linear-gradient" x1="0.5" y1="0.916" x2="0.5" y2="0.077" gradientUnits="objectBoundingBox">
      <stop offset="0.065" stop-color="#fdffaa"/>
      <stop offset="0.199" stop-color="#fdf498"/>
      <stop offset="0.469" stop-color="#fdd769"/>
      <stop offset="0.846" stop-color="#feaa1f"/>
      <stop offset="0.994" stop-color="#ff9800"/>
    </linearGradient>
    <linearGradient id="linear-gradient-2" x1="0.5" y1="-0.195" x2="0.5" y2="0.817" gradientUnits="objectBoundingBox">
      <stop offset="0" stop-color="#940c22"/>
      <stop offset="0.249" stop-color="#e3051a"/>
      <stop offset="0.316" stop-color="#b91435"/>
      <stop offset="0.432" stop-color="#762c61"/>
      <stop offset="0.529" stop-color="#463e81"/>
      <stop offset="0.603" stop-color="#284995"/>
      <stop offset="0.644" stop-color="#1d4e9d"/>
      <stop offset="1" stop-color="#0096d0"/>
    </linearGradient>
    <linearGradient id="linear-gradient-3" x1="0.5" y1="-0.195" x2="0.5" y2="0.817" gradientUnits="objectBoundingBox">
      <stop offset="0" stop-color="#940c22"/>
      <stop offset="0.368" stop-color="#e3051a"/>
      <stop offset="0.442" stop-color="#be1232"/>
      <stop offset="0.606" stop-color="#63346e"/>
      <stop offset="0.726" stop-color="#1d4e9d"/>
      <stop offset="1" stop-color="#0096d0"/>
    </linearGradient>
    <linearGradient id="linear-gradient-4" x1="0.217" y1="-0.147" x2="0.483" y2="0.481" gradientUnits="objectBoundingBox">
      <stop offset="0" stop-color="#fff"/>
      <stop offset="1" stop-color="#0096d0"/>
    </linearGradient>
    <linearGradient id="linear-gradient-5" x1="0.5" y1="0.008" x2="0.5" y2="0.881" xlink:href="#linear-gradient-4"/>
  </defs>
  <g id="Repeat_Grid_5" data-name="Repeat Grid 5" clip-path="url(#clip-path)">
    <g id="Group_326" data-name="Group 326" transform="translate(0)">
      <path id="Path_911" data-name="Path 911" d="M680.919,937.1c-.621-1.591.228.595,0,0-.953-2.441-3.869-2.687-5.966-2.035.716-1.921-.857-3.792-2.559-4.217-1.864-.464-3.924.359-5.578,1.2,1.282-3.422-2.714-4.581-5.057-4.115-2.654.528-5.287,2.269-7.653,3.583a3.226,3.226,0,0,0-2.008-4.809c-6.295-1.641-20.628,9.581-19,12.758a2.286,2.286,0,0,0,2.47,1.057c-1.927,2.426-8.747,12.563-.891,12.986q-1.4,1.757-2.739,3.564c-.8,1.08-2.045,2.33-2.188,3.768-.324,3.272,3.73,4.61,5.993,3.149-1.314,1.576-3.252,3.873-2.268,6.106a4.072,4.072,0,0,0,5.722,1.635c3.374,5.1,8.722-1.272,11.48-3.53.337,5.472,7.058,3.223,9.55,1.276-.953,2.494-1.026,5.256,1.931,6.042s5.8-1.335,8.013-3.158a75.79,75.79,0,0,1,7.655-5.613,3.359,3.359,0,0,0-1.2-6.1c1.981-2.569,3.774-7.019-.381-8.464,2.3-2.356,2.663-6.25-1.033-7.351C677.462,943.4,682.241,940.54,680.919,937.1Z" transform="translate(-629.734 -926.547)" fill="url(#linear-gradient)"/>
      <g id="Group_313" data-name="Group 313" transform="translate(35.757 0.224)">
        <g id="Group_293" data-name="Group 293">
          <path id="Rectangle_331" data-name="Rectangle 331" d="M6.359,0h0a6.358,6.358,0,0,1,6.358,6.358V40.853a6.358,6.358,0,0,1-6.358,6.358h0A6.358,6.358,0,0,1,0,40.853V6.359A6.359,6.359,0,0,1,6.359,0Z" transform="translate(0.059 0.059)" fill="#e7e7e7"/>
          <path id="Path_912" data-name="Path 912" d="M711.492,974.328H705.84a3.6,3.6,0,0,1-3.591-3.591V930.591A3.6,3.6,0,0,1,705.84,927h5.653a3.6,3.6,0,0,1,3.591,3.591v40.147A3.6,3.6,0,0,1,711.492,974.328Zm-5.653-47.21a3.477,3.477,0,0,0-3.473,3.473v40.147a3.477,3.477,0,0,0,3.473,3.473h5.653a3.477,3.477,0,0,0,3.473-3.473V930.591a3.478,3.478,0,0,0-3.473-3.473Z" transform="translate(-702.249 -927)" fill="#d0d0d0"/>
        </g>
        <path id="Path_913" data-name="Path 913" d="M714.963,970.986a3.314,3.314,0,0,1-3.162,3.447h-5.059a3.313,3.313,0,0,1-3.161-3.447V931.794a3.314,3.314,0,0,1,3.161-3.448H711.8a3.314,3.314,0,0,1,3.162,3.448Z" transform="translate(-702.924 -927.682)" fill="#fff"/>
        <g id="Group_297" data-name="Group 297" transform="translate(1.564 2.506)">
          <g id="Group_294" data-name="Group 294">
            <path id="Path_914" data-name="Path 914" d="M713.042,966.917V934.91a2.708,2.708,0,0,0-5.416,0v32.007a4.794,4.794,0,1,0,5.416,0Z" transform="translate(-705.481 -932.143)" fill="#fff"/>
            <path id="Path_915" data-name="Path 915" d="M710.273,975.665a4.853,4.853,0,0,1-2.767-8.84V934.849a2.767,2.767,0,1,1,5.533,0v31.977a4.853,4.853,0,0,1-2.767,8.84Zm0-43.466a2.652,2.652,0,0,0-2.649,2.649v32.007a.057.057,0,0,1-.025.048,4.736,4.736,0,1,0,5.349,0,.057.057,0,0,1-.025-.048V934.849A2.652,2.652,0,0,0,710.273,932.2Z" transform="translate(-705.42 -932.082)" fill="#d0d0d0"/>
          </g>
          <g id="Group_295" data-name="Group 295" transform="translate(0.683 0.592)">
            <path id="Path_916" data-name="Path 916" d="M713.071,967.909V936.062c0-2.213-.75-2.661-2.034-2.661-1.124,0-2.035.527-2.035,2.532v31.976a4.112,4.112,0,1,0,4.069,0Z" transform="translate(-706.866 -933.342)" fill="#e7e7e7"/>
            <path id="Path_917" data-name="Path 917" d="M710.976,975.591a4.17,4.17,0,0,1-2.094-7.777V935.872c0-1.743.685-2.59,2.094-2.59,1.292,0,2.093.455,2.093,2.72v31.812a4.17,4.17,0,0,1-2.093,7.777Zm0-42.191c-1.348,0-1.976.785-1.976,2.473v32.011l-.029.017a4.052,4.052,0,1,0,4.011,0l-.03-.017V936C712.951,933.825,712.227,933.4,710.976,933.4Z" transform="translate(-706.806 -933.282)" fill="#fff"/>
          </g>
          <g id="Group_296" data-name="Group 296" transform="translate(1.069 3.097)">
            <path id="Path_918" data-name="Path 918" d="M713.277,970.762V938.513l-3.688-.03v32.279a3.725,3.725,0,1,0,3.688,0Z" transform="translate(-707.648 -938.424)" fill="url(#linear-gradient-2)"/>
            <path id="Path_919" data-name="Path 919" d="M711.372,977.722a3.784,3.784,0,0,1-1.9-7.055v-32.3l3.805.031v32.273a3.784,3.784,0,0,1-1.9,7.055Zm-1.785-39.241v32.254l-.03.017a3.667,3.667,0,1,0,3.63,0l-.03-.017V938.511Z" transform="translate(-707.588 -938.363)" fill="#777776"/>
          </g>
          <path id="Path_920" data-name="Path 920" d="M713.277,970.762V938.513l-3.688-.03v32.279a3.725,3.725,0,1,0,3.688,0Z" transform="translate(-706.579 -935.327)" fill="url(#linear-gradient-3)"/>
          <path id="Path_921" data-name="Path 921" d="M714.872,1010.355a3.673,3.673,0,0,1-6.274,1.043,3.784,3.784,0,0,1-.75-1.737,2.738,2.738,0,0,1-.022-1.031,3.725,3.725,0,1,0,7.333.927c0-.025,0-.049,0-.074A4.952,4.952,0,0,1,714.872,1010.355Z" transform="translate(-706.579 -970.885)" fill="#58a6ba" opacity="0.5" style="mix-blend-mode: multiply;isolation: isolate"/>
          <path id="Path_922" data-name="Path 922" d="M712.294,1004.661a2.442,2.442,0,0,0-2.266,2.148s-.03.689.324.595.413-1.1,1.59-1.506,1.733-.335,1.618-.854C713.471,1004.642,712.294,1004.661,712.294,1004.661Z" transform="translate(-707.755 -968.873)" opacity="0.7" fill="url(#linear-gradient-4)" style="mix-blend-mode: screen;isolation: isolate"/>
          <path id="Path_923" data-name="Path 923" d="M713.071,967.909V936.062c0-2.213-.75-2.661-2.034-2.661-1.124,0-2.035.527-2.035,2.532v31.976a4.112,4.112,0,1,0,4.069,0Zm.756,3.373c-.371,1.7-4.96,2.55-5.681-.139-.508-1.893,1.663-2.723,1.663-2.723s-.03-31.671,0-32.848.765-1.381.765-1.381.265-.281,1-.047.824,1.527.824,1.527V968.42A2.332,2.332,0,0,1,713.827,971.282Z" transform="translate(-706.183 -932.751)" fill="#a9aaaa" opacity="0.5" style="mix-blend-mode: multiply;isolation: isolate"/>
        </g>
        <g id="Group_299" data-name="Group 299" transform="translate(8.685 1.386)">
          <g id="Group_298" data-name="Group 298" transform="translate(0.53 0.176)">
            <path id="Path_924" data-name="Path 924" d="M722.355,931.394l.547.166a1,1,0,0,1-.174.384.752.752,0,0,1-.294.233,1.1,1.1,0,0,1-.447.078,1.293,1.293,0,0,1-.538-.1.858.858,0,0,1-.36-.336,1.144,1.144,0,0,1-.152-.617,1.044,1.044,0,0,1,.267-.77,1.212,1.212,0,0,1,1.354-.115.906.906,0,0,1,.325.474l-.552.122a.463.463,0,0,0-.061-.135.361.361,0,0,0-.128-.11.392.392,0,0,0-.495.133.719.719,0,0,0-.085.4.755.755,0,0,0,.1.46.4.4,0,0,0,.557.024A.614.614,0,0,0,722.355,931.394Z" transform="translate(-720.937 -930.167)"/>
          </g>
          <path id="Path_925" data-name="Path 925" d="M720.153,930.39a.29.29,0,1,1,.29-.29A.291.291,0,0,1,720.153,930.39Zm0-.479a.189.189,0,1,0,.189.189A.189.189,0,0,0,720.153,929.912Z" transform="translate(-719.863 -929.811)"/>
        </g>
        <path id="Path_926" data-name="Path 926" d="M714.159,969.706c0,.28-.121.507-.271.507h0c-.149,0-.27-.228-.27-.507V938.285c0-.281.121-.507.27-.507h0c.149,0,.271.227.271.507Z" transform="translate(-708.013 -932.464)" opacity="0.7" fill="url(#linear-gradient-5)" style="mix-blend-mode: screen;isolation: isolate"/>
        <g id="Group_312" data-name="Group 312" transform="translate(8.457 5.407)">
          <g id="Group_300" data-name="Group 300" transform="translate(0 0.281)">
            <path id="Path_927" data-name="Path 927" d="M719.5,1001.566h.718a.134.134,0,0,1,0,.259H719.5a.133.133,0,0,1,0-.259Z" transform="translate(-719.399 -970.486)" fill="#1d1d1b"/>
            <path id="Path_928" data-name="Path 928" d="M720.013,1000.566h-.466a.068.068,0,0,1,0-.133h.466a.068.068,0,0,1,0,.133Z" transform="translate(-719.447 -969.911)" fill="#1d1d1b"/>
            <path id="Path_929" data-name="Path 929" d="M720.013,999.305h-.466a.067.067,0,0,1,0-.132h.466a.067.067,0,0,1,0,.132Z" transform="translate(-719.447 -969.273)" fill="#1d1d1b"/>
            <path id="Path_930" data-name="Path 930" d="M720.013,998.044h-.466a.067.067,0,0,1,0-.132h.466a.067.067,0,0,1,0,.132Z" transform="translate(-719.447 -968.634)" fill="#1d1d1b"/>
            <path id="Path_931" data-name="Path 931" d="M720.013,996.784h-.466a.067.067,0,0,1,0-.132h.466a.067.067,0,0,1,0,.132Z" transform="translate(-719.447 -967.995)" fill="#1d1d1b"/>
            <path id="Path_932" data-name="Path 932" d="M719.5,995.264h.718a.133.133,0,0,1,0,.258H719.5a.133.133,0,0,1,0-.258Z" transform="translate(-719.399 -967.291)" fill="#1d1d1b"/>
            <path id="Path_933" data-name="Path 933" d="M720.013,994.263h-.466a.067.067,0,0,1,0-.132h.466a.067.067,0,0,1,0,.132Z" transform="translate(-719.447 -966.717)" fill="#1d1d1b"/>
            <path id="Path_934" data-name="Path 934" d="M720.013,993h-.466a.067.067,0,0,1,0-.132h.466a.067.067,0,0,1,0,.132Z" transform="translate(-719.447 -966.078)" fill="#1d1d1b"/>
            <path id="Path_935" data-name="Path 935" d="M720.013,991.742h-.466a.068.068,0,0,1,0-.133h.466a.068.068,0,0,1,0,.133Z" transform="translate(-719.447 -965.439)" fill="#1d1d1b"/>
            <path id="Path_936" data-name="Path 936" d="M720.013,990.481h-.466a.061.061,0,0,1-.055-.066.061.061,0,0,1,.055-.067h.466a.061.061,0,0,1,.054.067A.061.061,0,0,1,720.013,990.481Z" transform="translate(-719.447 -964.799)" fill="#1d1d1b"/>
            <path id="Path_937" data-name="Path 937" d="M719.5,988.96h.718a.133.133,0,0,1,0,.258H719.5a.133.133,0,0,1,0-.258Z" transform="translate(-719.399 -964.096)" fill="#1d1d1b"/>
            <path id="Path_938" data-name="Path 938" d="M720.013,987.96h-.466a.067.067,0,0,1,0-.132h.466a.067.067,0,0,1,0,.132Z" transform="translate(-719.447 -963.522)" fill="#1d1d1b"/>
            <path id="Path_939" data-name="Path 939" d="M720.013,986.7h-.466a.067.067,0,0,1,0-.132h.466a.067.067,0,0,1,0,.132Z" transform="translate(-719.447 -962.883)" fill="#1d1d1b"/>
            <path id="Path_940" data-name="Path 940" d="M720.013,985.439h-.466a.068.068,0,0,1,0-.133h.466a.068.068,0,0,1,0,.133Z" transform="translate(-719.447 -962.244)" fill="#1d1d1b"/>
            <path id="Path_941" data-name="Path 941" d="M720.013,984.178h-.466a.061.061,0,0,1-.055-.066.061.061,0,0,1,.055-.066h.466a.061.061,0,0,1,.054.066A.061.061,0,0,1,720.013,984.178Z" transform="translate(-719.447 -961.605)" fill="#1d1d1b"/>
            <path id="Path_942" data-name="Path 942" d="M719.5,982.657h.718a.134.134,0,0,1,0,.259H719.5a.133.133,0,0,1,0-.259Z" transform="translate(-719.399 -960.901)" fill="#1d1d1b"/>
            <path id="Path_943" data-name="Path 943" d="M720.013,981.656h-.466a.068.068,0,0,1,0-.133h.466a.068.068,0,0,1,0,.133Z" transform="translate(-719.447 -960.326)" fill="#1d1d1b"/>
            <path id="Path_944" data-name="Path 944" d="M720.013,980.4h-.466a.061.061,0,0,1-.055-.066.062.062,0,0,1,.055-.067h.466a.062.062,0,0,1,.054.067A.061.061,0,0,1,720.013,980.4Z" transform="translate(-719.447 -959.687)" fill="#1d1d1b"/>
            <path id="Path_945" data-name="Path 945" d="M720.013,979.136h-.466a.067.067,0,0,1,0-.132h.466a.067.067,0,0,1,0,.132Z" transform="translate(-719.447 -959.049)" fill="#1d1d1b"/>
            <path id="Path_946" data-name="Path 946" d="M720.013,977.874h-.466a.067.067,0,0,1,0-.132h.466a.067.067,0,0,1,0,.132Z" transform="translate(-719.447 -958.409)" fill="#1d1d1b"/>
            <path id="Path_947" data-name="Path 947" d="M719.5,976.354h.718a.133.133,0,0,1,0,.258H719.5a.133.133,0,0,1,0-.258Z" transform="translate(-719.399 -957.706)" fill="#1d1d1b"/>
            <path id="Path_948" data-name="Path 948" d="M720.013,975.353h-.466a.068.068,0,0,1,0-.133h.466a.068.068,0,0,1,0,.133Z" transform="translate(-719.447 -957.131)" fill="#1d1d1b"/>
            <path id="Path_949" data-name="Path 949" d="M720.013,974.093h-.466a.067.067,0,0,1,0-.132h.466a.067.067,0,0,1,0,.132Z" transform="translate(-719.447 -956.493)" fill="#1d1d1b"/>
            <path id="Path_950" data-name="Path 950" d="M720.013,972.832h-.466a.067.067,0,0,1,0-.132h.466a.067.067,0,0,1,0,.132Z" transform="translate(-719.447 -955.854)" fill="#1d1d1b"/>
            <path id="Path_951" data-name="Path 951" d="M720.013,971.571h-.466a.067.067,0,0,1,0-.132h.466a.067.067,0,0,1,0,.132Z" transform="translate(-719.447 -955.214)" fill="#1d1d1b"/>
            <path id="Path_952" data-name="Path 952" d="M719.5,970.05h.718a.134.134,0,0,1,0,.259H719.5a.134.134,0,0,1,0-.259Z" transform="translate(-719.399 -954.51)" fill="#1d1d1b"/>
            <path id="Path_953" data-name="Path 953" d="M720.013,969.05h-.466a.067.067,0,0,1,0-.132h.466a.067.067,0,0,1,0,.132Z" transform="translate(-719.447 -953.936)" fill="#1d1d1b"/>
            <path id="Path_954" data-name="Path 954" d="M720.013,967.79h-.466a.068.068,0,0,1,0-.133h.466a.068.068,0,0,1,0,.133Z" transform="translate(-719.447 -953.297)" fill="#1d1d1b"/>
            <path id="Path_955" data-name="Path 955" d="M720.013,966.529h-.466a.068.068,0,0,1,0-.133h.466a.068.068,0,0,1,0,.133Z" transform="translate(-719.447 -952.658)" fill="#1d1d1b"/>
            <path id="Path_956" data-name="Path 956" d="M720.013,965.268h-.466a.068.068,0,0,1,0-.133h.466a.068.068,0,0,1,0,.133Z" transform="translate(-719.447 -952.019)" fill="#1d1d1b"/>
            <path id="Path_957" data-name="Path 957" d="M719.5,963.747h.718a.133.133,0,0,1,0,.258H719.5a.133.133,0,0,1,0-.258Z" transform="translate(-719.399 -951.315)" fill="#1d1d1b"/>
            <path id="Path_958" data-name="Path 958" d="M719.548,962.615h.466a.067.067,0,0,1,0,.132h-.466a.067.067,0,0,1,0-.132Z" transform="translate(-719.447 -950.741)" fill="#1d1d1b"/>
            <path id="Path_959" data-name="Path 959" d="M719.548,961.354h.466a.068.068,0,0,1,0,.133h-.466a.068.068,0,0,1,0-.133Z" transform="translate(-719.447 -950.102)" fill="#1d1d1b"/>
            <path id="Path_960" data-name="Path 960" d="M719.548,960.093h.466a.068.068,0,0,1,0,.133h-.466a.068.068,0,0,1,0-.133Z" transform="translate(-719.447 -949.463)" fill="#1d1d1b"/>
            <path id="Path_961" data-name="Path 961" d="M719.548,958.833h.466a.067.067,0,0,1,0,.132h-.466a.067.067,0,0,1,0-.132Z" transform="translate(-719.447 -948.824)" fill="#1d1d1b"/>
            <path id="Path_962" data-name="Path 962" d="M720.013,956.444h-.466a.068.068,0,0,1,0-.133h.466a.068.068,0,0,1,0,.133Z" transform="translate(-719.447 -947.546)" fill="#1d1d1b"/>
            <path id="Path_963" data-name="Path 963" d="M720.013,955.183h-.466a.067.067,0,0,1,0-.132h.466a.067.067,0,0,1,0,.132Z" transform="translate(-719.447 -946.907)" fill="#1d1d1b"/>
            <path id="Path_964" data-name="Path 964" d="M720.013,953.923h-.466a.068.068,0,0,1,0-.133h.466a.068.068,0,0,1,0,.133Z" transform="translate(-719.447 -946.268)" fill="#1d1d1b"/>
            <path id="Path_965" data-name="Path 965" d="M720.013,952.662h-.466a.067.067,0,0,1,0-.132h.466a.067.067,0,0,1,0,.132Z" transform="translate(-719.447 -945.629)" fill="#1d1d1b"/>
            <path id="Path_966" data-name="Path 966" d="M719.5,951.141h.718a.133.133,0,0,1,0,.258H719.5a.133.133,0,0,1,0-.258Z" transform="translate(-719.399 -944.925)" fill="#1d1d1b"/>
            <path id="Path_967" data-name="Path 967" d="M719.5,957.443h.718a.134.134,0,0,1,0,.259H719.5a.133.133,0,0,1,0-.259Z" transform="translate(-719.399 -948.12)" fill="#1d1d1b"/>
            <path id="Path_968" data-name="Path 968" d="M720.013,950.142h-.466a.061.061,0,0,1-.055-.067.061.061,0,0,1,.055-.066h.466a.061.061,0,0,1,.054.066A.061.061,0,0,1,720.013,950.142Z" transform="translate(-719.447 -944.351)" fill="#1d1d1b"/>
            <path id="Path_969" data-name="Path 969" d="M720.013,948.881h-.466a.068.068,0,0,1,0-.133h.466a.068.068,0,0,1,0,.133Z" transform="translate(-719.447 -943.712)" fill="#1d1d1b"/>
            <path id="Path_970" data-name="Path 970" d="M720.013,947.62h-.466a.068.068,0,0,1,0-.133h.466a.068.068,0,0,1,0,.133Z" transform="translate(-719.447 -943.073)" fill="#1d1d1b"/>
            <path id="Path_971" data-name="Path 971" d="M720.013,946.359h-.466a.061.061,0,0,1-.055-.067.061.061,0,0,1,.055-.066h.466a.061.061,0,0,1,.054.066A.061.061,0,0,1,720.013,946.359Z" transform="translate(-719.447 -942.434)" fill="#1d1d1b"/>
            <path id="Path_972" data-name="Path 972" d="M720.013,942.577h-.466a.061.061,0,0,1-.055-.067.06.06,0,0,1,.055-.066h.466a.06.06,0,0,1,.054.066A.061.061,0,0,1,720.013,942.577Z" transform="translate(-719.447 -940.517)" fill="#1d1d1b"/>
            <path id="Path_973" data-name="Path 973" d="M720.013,940.055h-.466a.067.067,0,0,1,0-.132h.466a.067.067,0,0,1,0,.132Z" transform="translate(-719.447 -939.239)" fill="#1d1d1b"/>
            <path id="Path_974" data-name="Path 974" d="M719.5,944.837h.718a.134.134,0,0,1,0,.259H719.5a.133.133,0,0,1,0-.259Z" transform="translate(-719.399 -941.729)" fill="#1d1d1b"/>
            <path id="Path_975" data-name="Path 975" d="M719.5,938.535h.718a.134.134,0,0,1,0,.259H719.5a.133.133,0,0,1,0-.259Z" transform="translate(-719.399 -938.535)" fill="#1d1d1b"/>
            <path id="Path_976" data-name="Path 976" d="M720.013,943.838h-.466a.068.068,0,0,1,0-.133h.466a.068.068,0,0,1,0,.133Z" transform="translate(-719.447 -941.156)" fill="#1d1d1b"/>
            <path id="Path_977" data-name="Path 977" d="M720.013,941.316h-.466a.061.061,0,0,1-.055-.066.061.061,0,0,1,.055-.067h.466a.061.061,0,0,1,.054.067A.061.061,0,0,1,720.013,941.316Z" transform="translate(-719.447 -939.877)" fill="#1d1d1b"/>
          </g>
          <g id="Group_301" data-name="Group 301" transform="translate(1.884 30.813)">
            <path id="Path_978" data-name="Path 978" d="M723.541,1000.455a.256.256,0,0,1,.153.045.341.341,0,0,1,.1.119.556.556,0,0,1,.053.166,1.1,1.1,0,0,1,.017.189,1.084,1.084,0,0,1-.017.188.557.557,0,0,1-.053.166.328.328,0,0,1-.1.117.287.287,0,0,1-.308,0,.326.326,0,0,1-.1-.117.541.541,0,0,1-.052-.166,1.084,1.084,0,0,1-.015-.188,1.1,1.1,0,0,1,.015-.189.54.54,0,0,1,.052-.166.34.34,0,0,1,.1-.119A.258.258,0,0,1,723.541,1000.455Zm0,.085a.155.155,0,0,0-.109.04.289.289,0,0,0-.068.1.567.567,0,0,0-.035.14,1.143,1.143,0,0,0-.01.151,1.124,1.124,0,0,0,.01.151.542.542,0,0,0,.035.138.277.277,0,0,0,.068.1.168.168,0,0,0,.217,0,.266.266,0,0,0,.068-.1.542.542,0,0,0,.036-.138,1.052,1.052,0,0,0,.011-.151,1.07,1.07,0,0,0-.011-.151.567.567,0,0,0-.036-.14.277.277,0,0,0-.068-.1A.154.154,0,0,0,723.541,1000.54Z" transform="translate(-723.219 -1000.455)"/>
          </g>
          <g id="Group_302" data-name="Group 302" transform="translate(1.728 27.732)">
            <path id="Path_979" data-name="Path 979" d="M723.152,994.964h-.073v-.63l-.131.111-.044-.051.183-.151h.065Z" transform="translate(-722.904 -994.225)"/>
            <path id="Path_980" data-name="Path 980" d="M724.119,994.206a.185.185,0,0,1,.112.033.25.25,0,0,1,.073.086.431.431,0,0,1,.039.122.8.8,0,0,1,.011.138.8.8,0,0,1-.011.139.426.426,0,0,1-.039.121.24.24,0,0,1-.073.086.208.208,0,0,1-.225,0,.235.235,0,0,1-.073-.086.412.412,0,0,1-.038-.121.811.811,0,0,1-.011-.139.8.8,0,0,1,.011-.138.417.417,0,0,1,.038-.122.245.245,0,0,1,.073-.086A.185.185,0,0,1,724.119,994.206Zm0,.062a.115.115,0,0,0-.079.029.209.209,0,0,0-.05.076.417.417,0,0,0-.026.1.955.955,0,0,0-.007.11.94.94,0,0,0,.007.11.417.417,0,0,0,.026.1.208.208,0,0,0,.05.074.122.122,0,0,0,.158,0,.2.2,0,0,0,.05-.074.4.4,0,0,0,.026-.1.779.779,0,0,0,.008-.11.789.789,0,0,0-.008-.11.4.4,0,0,0-.026-.1.2.2,0,0,0-.05-.076A.116.116,0,0,0,724.119,994.268Z" transform="translate(-723.4 -994.206)"/>
          </g>
          <g id="Group_303" data-name="Group 303" transform="translate(1.696 24.651)">
            <path id="Path_981" data-name="Path 981" d="M723.3,988.7h-.461v-.076l.3-.3.032-.035a.374.374,0,0,0,.028-.04.187.187,0,0,0,.019-.043.152.152,0,0,0,0-.1.125.125,0,0,0-.032-.043.128.128,0,0,0-.045-.028.157.157,0,0,0-.055-.01.142.142,0,0,0-.1.036.17.17,0,0,0-.051.093l-.073-.014a.207.207,0,0,1,.028-.07.218.218,0,0,1,.048-.056.239.239,0,0,1,.066-.036.228.228,0,0,1,.079-.013.271.271,0,0,1,.083.012.2.2,0,0,1,.069.038.181.181,0,0,1,.047.062.2.2,0,0,1,.017.086.216.216,0,0,1-.009.064.286.286,0,0,1-.026.056.327.327,0,0,1-.037.05c-.014.016-.03.032-.045.047l-.26.258h.383Z" transform="translate(-722.838 -987.958)"/>
            <path id="Path_982" data-name="Path 982" d="M724.184,987.958a.18.18,0,0,1,.112.033.228.228,0,0,1,.072.086.413.413,0,0,1,.039.122.782.782,0,0,1,0,.277.415.415,0,0,1-.039.121.228.228,0,0,1-.072.086.186.186,0,0,1-.112.033.19.19,0,0,1-.113-.033A.243.243,0,0,1,724,988.6a.436.436,0,0,1-.039-.121.891.891,0,0,1,0-.277.434.434,0,0,1,.039-.122.243.243,0,0,1,.073-.086A.184.184,0,0,1,724.184,987.958Zm0,.062a.11.11,0,0,0-.079.03.205.205,0,0,0-.05.075.421.421,0,0,0-.026.1.857.857,0,0,0-.007.11.844.844,0,0,0,.007.11.414.414,0,0,0,.026.1.2.2,0,0,0,.05.074.111.111,0,0,0,.079.029.109.109,0,0,0,.078-.029.194.194,0,0,0,.051-.074.453.453,0,0,0,.026-.1.762.762,0,0,0,.008-.11.774.774,0,0,0-.008-.11.461.461,0,0,0-.026-.1.2.2,0,0,0-.051-.075A.108.108,0,0,0,724.184,988.02Z" transform="translate(-723.401 -987.958)"/>
          </g>
          <g id="Group_304" data-name="Group 304" transform="translate(1.695 21.569)">
            <path id="Path_983" data-name="Path 983" d="M723,982.038h.032a.311.311,0,0,0,.066-.006.162.162,0,0,0,.053-.023.12.12,0,0,0,.037-.041.131.131,0,0,0,.013-.061.133.133,0,0,0-.011-.056.118.118,0,0,0-.032-.042.123.123,0,0,0-.045-.028.161.161,0,0,0-.136.011.149.149,0,0,0-.056.063l-.062-.032a.216.216,0,0,1,.085-.086.244.244,0,0,1,.118-.029.259.259,0,0,1,.081.013.218.218,0,0,1,.068.037.181.181,0,0,1,.046.06.2.2,0,0,1,.017.084.168.168,0,0,1-.035.107.176.176,0,0,1-.09.058v0a.19.19,0,0,1,.1.059.173.173,0,0,1,.041.12.212.212,0,0,1-.019.092.2.2,0,0,1-.124.111.257.257,0,0,1-.089.015.251.251,0,0,1-.138-.038.243.243,0,0,1-.09-.11l.069-.026a.165.165,0,0,0,.062.081.17.17,0,0,0,.1.029.167.167,0,0,0,.06-.01.152.152,0,0,0,.05-.031.145.145,0,0,0,.035-.049.157.157,0,0,0,.013-.065.149.149,0,0,0-.016-.069.137.137,0,0,0-.042-.045.193.193,0,0,0-.06-.025.323.323,0,0,0-.07-.007H723Z" transform="translate(-722.836 -981.708)"/>
            <path id="Path_984" data-name="Path 984" d="M724.186,981.708a.186.186,0,0,1,.112.033.24.24,0,0,1,.073.087.4.4,0,0,1,.04.121.873.873,0,0,1,.011.139.853.853,0,0,1-.011.138.4.4,0,0,1-.04.121.232.232,0,0,1-.073.086.182.182,0,0,1-.112.033.186.186,0,0,1-.113-.033.228.228,0,0,1-.072-.086.4.4,0,0,1-.039-.121.853.853,0,0,1-.011-.138.873.873,0,0,1,.011-.139.4.4,0,0,1,.039-.121.236.236,0,0,1,.072-.087A.19.19,0,0,1,724.186,981.708Zm0,.062a.112.112,0,0,0-.08.03.2.2,0,0,0-.05.076.4.4,0,0,0-.025.1.849.849,0,0,0-.007.11.839.839,0,0,0,.007.11.387.387,0,0,0,.025.1.2.2,0,0,0,.05.075.113.113,0,0,0,.08.029.112.112,0,0,0,.078-.029.2.2,0,0,0,.05-.075.462.462,0,0,0,.026-.1.839.839,0,0,0,.007-.11.849.849,0,0,0-.007-.11.474.474,0,0,0-.026-.1.208.208,0,0,0-.05-.076A.111.111,0,0,0,724.186,981.77Z" transform="translate(-723.401 -981.708)"/>
          </g>
          <g id="Group_305" data-name="Group 305" transform="translate(1.691 18.488)">
            <path id="Path_985" data-name="Path 985" d="M723.231,975.979h.106v.065h-.106v.174h-.071v-.174h-.33v-.071l.306-.476h.1Zm-.071-.4h0l-.252.4h.254Z" transform="translate(-722.829 -975.479)"/>
            <path id="Path_986" data-name="Path 986" d="M724.193,975.46a.184.184,0,0,1,.112.033.242.242,0,0,1,.073.087.406.406,0,0,1,.039.122.8.8,0,0,1,.012.138.815.815,0,0,1-.012.139.419.419,0,0,1-.039.121.237.237,0,0,1-.073.086.214.214,0,0,1-.225,0,.232.232,0,0,1-.073-.086.39.39,0,0,1-.038-.121.86.86,0,0,1-.012-.139.849.849,0,0,1,.012-.138.38.38,0,0,1,.038-.122.238.238,0,0,1,.073-.087A.184.184,0,0,1,724.193,975.46Zm0,.062a.111.111,0,0,0-.079.03.2.2,0,0,0-.05.075.376.376,0,0,0-.026.1.888.888,0,0,0,0,.221.37.37,0,0,0,.026.1.209.209,0,0,0,.05.074.124.124,0,0,0,.159,0,.209.209,0,0,0,.05-.074.431.431,0,0,0,.026-.1.773.773,0,0,0,0-.221.437.437,0,0,0-.026-.1.2.2,0,0,0-.05-.075A.111.111,0,0,0,724.193,975.522Z" transform="translate(-723.401 -975.46)"/>
          </g>
          <g id="Group_306" data-name="Group 306" transform="translate(1.699 15.407)">
            <path id="Path_987" data-name="Path 987" d="M723.271,969.313h-.3l-.005.223a.288.288,0,0,1,.049-.012.3.3,0,0,1,.05,0,.272.272,0,0,1,.094.016.25.25,0,0,1,.074.046.231.231,0,0,1,.049.072.246.246,0,0,1,.017.092.267.267,0,0,1-.017.1.226.226,0,0,1-.048.076.237.237,0,0,1-.076.051.237.237,0,0,1-.313-.113l.066-.03a.16.16,0,0,0,.059.071.152.152,0,0,0,.087.027.169.169,0,0,0,.068-.013.16.16,0,0,0,.054-.036.173.173,0,0,0,.035-.055.181.181,0,0,0,.013-.068.187.187,0,0,0-.014-.072.179.179,0,0,0-.038-.055.176.176,0,0,0-.056-.034.2.2,0,0,0-.071-.012.272.272,0,0,0-.077.01.343.343,0,0,0-.073.029l.007-.372h.368Z" transform="translate(-722.844 -969.23)"/>
            <path id="Path_988" data-name="Path 988" d="M724.179,969.211a.188.188,0,0,1,.112.033.239.239,0,0,1,.072.086.44.44,0,0,1,.04.122.894.894,0,0,1,0,.277.438.438,0,0,1-.04.121.235.235,0,0,1-.072.086.211.211,0,0,1-.225,0,.231.231,0,0,1-.073-.086.409.409,0,0,1-.039-.121.851.851,0,0,1,0-.277.41.41,0,0,1,.039-.122.235.235,0,0,1,.073-.086A.187.187,0,0,1,724.179,969.211Zm0,.062a.114.114,0,0,0-.08.029.219.219,0,0,0-.05.076.4.4,0,0,0-.025.1.884.884,0,0,0,0,.22.392.392,0,0,0,.025.1.207.207,0,0,0,.05.074.116.116,0,0,0,.08.03.114.114,0,0,0,.079-.03.206.206,0,0,0,.049-.074.432.432,0,0,0,.027-.1.833.833,0,0,0,0-.22.44.44,0,0,0-.027-.1.218.218,0,0,0-.049-.076A.112.112,0,0,0,724.179,969.273Z" transform="translate(-723.401 -969.211)"/>
          </g>
          <g id="Group_307" data-name="Group 307" transform="translate(1.701 12.326)">
            <path id="Path_989" data-name="Path 989" d="M722.992,963.314l0,0a.122.122,0,0,1,.046-.02.257.257,0,0,1,.057-.006.238.238,0,0,1,.087.016.209.209,0,0,1,.07.045.191.191,0,0,1,.046.07.255.255,0,0,1,0,.183.22.22,0,0,1-.048.072.234.234,0,0,1-.075.046.248.248,0,0,1-.093.017.252.252,0,0,1-.094-.017.228.228,0,0,1-.074-.046.214.214,0,0,1-.049-.072.238.238,0,0,1-.017-.093.265.265,0,0,1,.02-.1.627.627,0,0,1,.045-.091l.2-.318h.085Zm-.071.2a.184.184,0,0,0,.011.065.155.155,0,0,0,.084.087.173.173,0,0,0,.131,0,.158.158,0,0,0,.051-.035.154.154,0,0,0,.033-.052.191.191,0,0,0,0-.13.134.134,0,0,0-.031-.052.155.155,0,0,0-.051-.034.188.188,0,0,0-.134,0,.159.159,0,0,0-.051.034.155.155,0,0,0-.032.052A.183.183,0,0,0,722.921,963.512Z" transform="translate(-722.848 -962.981)"/>
            <path id="Path_990" data-name="Path 990" d="M724.174,962.963a.188.188,0,0,1,.113.033.237.237,0,0,1,.073.086.431.431,0,0,1,.039.122.857.857,0,0,1,.011.138.845.845,0,0,1-.011.138.422.422,0,0,1-.039.122.241.241,0,0,1-.073.086.185.185,0,0,1-.113.033.188.188,0,0,1-.113-.033.239.239,0,0,1-.072-.086.392.392,0,0,1-.039-.122.852.852,0,0,1-.011-.138.864.864,0,0,1,.011-.138.4.4,0,0,1,.039-.122.235.235,0,0,1,.072-.086A.191.191,0,0,1,724.174,962.963Zm0,.062a.116.116,0,0,0-.079.03.211.211,0,0,0-.05.076.388.388,0,0,0-.025.1.855.855,0,0,0-.008.111.818.818,0,0,0,.008.11.388.388,0,0,0,.025.1.207.207,0,0,0,.05.074.113.113,0,0,0,.079.03.112.112,0,0,0,.079-.03.2.2,0,0,0,.05-.074.44.44,0,0,0,.026-.1.839.839,0,0,0,.008-.11.879.879,0,0,0-.008-.111.439.439,0,0,0-.026-.1.2.2,0,0,0-.05-.076A.114.114,0,0,0,724.174,963.025Z" transform="translate(-723.401 -962.963)"/>
          </g>
          <g id="Group_308" data-name="Group 308" transform="translate(1.71 9.244)">
            <path id="Path_991" data-name="Path 991" d="M723.295,956.818l-.291.653h-.082l.3-.656h-.354v-.066h.428Z" transform="translate(-722.867 -956.732)"/>
            <path id="Path_992" data-name="Path 992" d="M724.156,956.713a.187.187,0,0,1,.112.033.238.238,0,0,1,.073.087.406.406,0,0,1,.039.121.873.873,0,0,1,.012.139.853.853,0,0,1-.012.138.41.41,0,0,1-.039.121.234.234,0,0,1-.073.086.214.214,0,0,1-.225,0,.24.24,0,0,1-.073-.086.409.409,0,0,1-.038-.121.8.8,0,0,1-.011-.138.819.819,0,0,1,.011-.139.406.406,0,0,1,.038-.121.245.245,0,0,1,.073-.087A.188.188,0,0,1,724.156,956.713Zm0,.063a.11.11,0,0,0-.079.03.2.2,0,0,0-.05.075.384.384,0,0,0-.026.1.842.842,0,0,0-.007.11.816.816,0,0,0,.007.11.364.364,0,0,0,.026.1.2.2,0,0,0,.05.074.124.124,0,0,0,.158,0,.2.2,0,0,0,.05-.074.4.4,0,0,0,.026-.1.753.753,0,0,0,.008-.11.777.777,0,0,0-.008-.11.428.428,0,0,0-.026-.1.2.2,0,0,0-.05-.075A.11.11,0,0,0,724.156,956.776Z" transform="translate(-723.401 -956.713)"/>
          </g>
          <g id="Group_309" data-name="Group 309" transform="translate(1.702 6.163)">
            <path id="Path_993" data-name="Path 993" d="M723.177,950.822a.188.188,0,0,1,.1.068.2.2,0,0,1,.038.125.194.194,0,0,1-.019.086.211.211,0,0,1-.124.107.27.27,0,0,1-.177,0,.221.221,0,0,1-.073-.041.218.218,0,0,1-.051-.066.194.194,0,0,1-.019-.086.227.227,0,0,1,.01-.068.2.2,0,0,1,.029-.056.18.18,0,0,1,.043-.043.217.217,0,0,1,.055-.026v0a.135.135,0,0,1-.044-.024.169.169,0,0,1-.035-.038.19.19,0,0,1-.022-.047.166.166,0,0,1-.008-.054.188.188,0,0,1,.016-.079.182.182,0,0,1,.044-.061.205.205,0,0,1,.065-.039.235.235,0,0,1,.156,0,.2.2,0,0,1,.065.039.181.181,0,0,1,.044.061.188.188,0,0,1,.016.079.178.178,0,0,1-.008.054.188.188,0,0,1-.023.047.156.156,0,0,1-.034.038.147.147,0,0,1-.044.024Zm-.252.184a.17.17,0,0,0,.011.061.146.146,0,0,0,.033.049.156.156,0,0,0,.05.032.169.169,0,0,0,.065.012.171.171,0,0,0,.065-.012.15.15,0,0,0,.05-.032.132.132,0,0,0,.033-.049.17.17,0,0,0,.011-.061.158.158,0,0,0-.011-.06.127.127,0,0,0-.033-.047.138.138,0,0,0-.05-.033.191.191,0,0,0-.065-.011.189.189,0,0,0-.065.011.143.143,0,0,0-.05.033.14.14,0,0,0-.033.047A.158.158,0,0,0,722.925,951.007Zm.026-.346a.13.13,0,0,0,.01.052.118.118,0,0,0,.029.04.135.135,0,0,0,.042.027.127.127,0,0,0,.051.01.125.125,0,0,0,.051-.01.131.131,0,0,0,.042-.027.118.118,0,0,0,.029-.04.129.129,0,0,0,.01-.052.138.138,0,0,0-.01-.053.122.122,0,0,0-.028-.043.127.127,0,0,0-.094-.038.129.129,0,0,0-.094.038.123.123,0,0,0-.028.043A.139.139,0,0,0,722.95,950.661Z" transform="translate(-722.851 -950.465)"/>
            <path id="Path_994" data-name="Path 994" d="M724.172,950.465a.18.18,0,0,1,.111.033.244.244,0,0,1,.073.087.409.409,0,0,1,.038.121.777.777,0,0,1,.012.139.756.756,0,0,1-.012.138.417.417,0,0,1-.038.121.241.241,0,0,1-.073.086.185.185,0,0,1-.111.033.192.192,0,0,1-.114-.033.243.243,0,0,1-.072-.086.43.43,0,0,1-.039-.121.847.847,0,0,1-.011-.138.872.872,0,0,1,.011-.139.422.422,0,0,1,.039-.121.246.246,0,0,1,.072-.087A.187.187,0,0,1,724.172,950.465Zm0,.062a.111.111,0,0,0-.08.03.2.2,0,0,0-.05.075.407.407,0,0,0-.026.1.88.88,0,0,0,0,.22.4.4,0,0,0,.026.1.2.2,0,0,0,.05.074.11.11,0,0,0,.08.029.109.109,0,0,0,.078-.029.2.2,0,0,0,.05-.074.43.43,0,0,0,.026-.1.766.766,0,0,0,0-.22.434.434,0,0,0-.026-.1.2.2,0,0,0-.05-.075A.109.109,0,0,0,724.172,950.527Z" transform="translate(-723.401 -950.465)"/>
          </g>
          <g id="Group_310" data-name="Group 310" transform="translate(1.702 3.082)">
            <path id="Path_995" data-name="Path 995" d="M723.175,944.641l0,0a.132.132,0,0,1-.046.02.253.253,0,0,1-.057.007.212.212,0,0,1-.087-.017.2.2,0,0,1-.07-.045.2.2,0,0,1-.046-.071.234.234,0,0,1-.017-.09.245.245,0,0,1,.017-.092.213.213,0,0,1,.049-.072.232.232,0,0,1,.074-.046.272.272,0,0,1,.188,0,.23.23,0,0,1,.074.046.2.2,0,0,1,.049.072.234.234,0,0,1,.018.092.282.282,0,0,1-.02.1.647.647,0,0,1-.046.091l-.2.317h-.085Zm.07-.2a.181.181,0,0,0-.011-.065.156.156,0,0,0-.033-.052.15.15,0,0,0-.051-.035.162.162,0,0,0-.065-.012.164.164,0,0,0-.065.012.156.156,0,0,0-.051.035.162.162,0,0,0-.033.052.189.189,0,0,0-.011.065.2.2,0,0,0,.011.065.157.157,0,0,0,.032.052.133.133,0,0,0,.051.034.187.187,0,0,0,.134,0,.141.141,0,0,0,.051-.034.166.166,0,0,0,.032-.052A.189.189,0,0,0,723.245,944.443Z" transform="translate(-722.85 -944.216)"/>
            <path id="Path_996" data-name="Path 996" d="M724.173,944.216a.187.187,0,0,1,.112.033.246.246,0,0,1,.073.086.467.467,0,0,1,.039.122.868.868,0,0,1,.012.139.857.857,0,0,1-.012.138.46.46,0,0,1-.039.121.246.246,0,0,1-.073.086.186.186,0,0,1-.112.033.189.189,0,0,1-.114-.033.239.239,0,0,1-.073-.086.411.411,0,0,1-.038-.121.8.8,0,0,1-.011-.138.815.815,0,0,1,.011-.139.417.417,0,0,1,.038-.122.239.239,0,0,1,.073-.086A.19.19,0,0,1,724.173,944.216Zm0,.062a.111.111,0,0,0-.08.03.2.2,0,0,0-.05.075.4.4,0,0,0-.026.1.887.887,0,0,0,0,.221.4.4,0,0,0,.026.1.2.2,0,0,0,.05.074.112.112,0,0,0,.08.029.114.114,0,0,0,.078-.029.2.2,0,0,0,.05-.074.394.394,0,0,0,.026-.1.772.772,0,0,0,0-.221.393.393,0,0,0-.026-.1.2.2,0,0,0-.05-.075A.112.112,0,0,0,724.173,944.278Z" transform="translate(-723.401 -944.216)"/>
          </g>
          <g id="Group_311" data-name="Group 311" transform="translate(1.459)">
            <path id="Path_997" data-name="Path 997" d="M722.6,938.725h-.073v-.63l-.131.111-.044-.051.183-.15h.065Z" transform="translate(-722.357 -937.986)"/>
            <path id="Path_998" data-name="Path 998" d="M723.572,937.966a.181.181,0,0,1,.112.034.239.239,0,0,1,.073.086.417.417,0,0,1,.038.121.729.729,0,0,1,.012.139.709.709,0,0,1-.012.138.418.418,0,0,1-.038.122.237.237,0,0,1-.073.086.186.186,0,0,1-.112.033.19.19,0,0,1-.114-.033.237.237,0,0,1-.072-.086.423.423,0,0,1-.039-.122.859.859,0,0,1-.011-.138.884.884,0,0,1,.011-.139.421.421,0,0,1,.039-.121.239.239,0,0,1,.072-.086A.184.184,0,0,1,723.572,937.966Zm0,.062a.112.112,0,0,0-.08.03.2.2,0,0,0-.05.075.408.408,0,0,0-.026.1.839.839,0,0,0-.007.11.827.827,0,0,0,.007.11.416.416,0,0,0,.026.1.2.2,0,0,0,.05.074.123.123,0,0,0,.159,0,.21.21,0,0,0,.05-.074.421.421,0,0,0,.026-.1.763.763,0,0,0,.008-.11.774.774,0,0,0-.008-.11.413.413,0,0,0-.026-.1.212.212,0,0,0-.05-.075A.112.112,0,0,0,723.572,938.028Z" transform="translate(-722.853 -937.966)"/>
            <path id="Path_999" data-name="Path 999" d="M724.667,937.966a.184.184,0,0,1,.112.034.238.238,0,0,1,.072.086.417.417,0,0,1,.039.121.824.824,0,0,1,.012.139.8.8,0,0,1-.012.138.419.419,0,0,1-.039.122.236.236,0,0,1-.072.086.212.212,0,0,1-.226,0,.242.242,0,0,1-.073-.086.432.432,0,0,1-.039-.122.852.852,0,0,1-.011-.138.877.877,0,0,1,.011-.139.43.43,0,0,1,.039-.121.244.244,0,0,1,.073-.086A.184.184,0,0,1,724.667,937.966Zm0,.062a.113.113,0,0,0-.08.03.206.206,0,0,0-.05.075.433.433,0,0,0-.025.1.837.837,0,0,0-.007.11.826.826,0,0,0,.007.11.442.442,0,0,0,.025.1.2.2,0,0,0,.05.074.112.112,0,0,0,.08.029.109.109,0,0,0,.078-.029.205.205,0,0,0,.05-.074.439.439,0,0,0,.026-.1.752.752,0,0,0,.007-.11.762.762,0,0,0-.007-.11.43.43,0,0,0-.026-.1.207.207,0,0,0-.05-.075A.109.109,0,0,0,724.667,938.028Z" transform="translate(-723.408 -937.966)"/>
          </g>
        </g>
      </g>
      <g id="Group_325" data-name="Group 325" transform="translate(4.712 4.702)">
        <g id="Group_314" data-name="Group 314" transform="translate(7.017 41.978)" opacity="0.5" style="mix-blend-mode: screen;isolation: isolate">
          <path id="Path_1000" data-name="Path 1000" d="M664.332,1025.331a1.811,1.811,0,0,0,2.749-1.019.09.09,0,0,1,.134-.059,9.218,9.218,0,0,0-.545-1.079.634.634,0,0,0-.438-.523,1.082,1.082,0,0,0-.182-.025l-.039,0a3.2,3.2,0,0,0-.9.151l-.155.038c-.008-.011-.017-.023-.027-.034a.811.811,0,0,0-.128-.122,1.749,1.749,0,0,0-.843-.269c-.309-.03-.864-.1-1.107.176a.06.06,0,0,0-.027.016,4.642,4.642,0,0,1-.653.513l-.134-.032-.113-.028a6.359,6.359,0,0,0-2.3-.334.409.409,0,0,0-.315.033c-.175.067-.349.14-.524.211a.245.245,0,0,0-.137-.084,13.768,13.768,0,0,0-2.039-.181c-.836-.072-1.671-.1-2.506-.2q-.291-.033-.581-.072a2.093,2.093,0,0,0,2.4,1.314l-.024-.033c-.076-.1.1-.2.17-.1a6.43,6.43,0,0,0,.728,1,1.953,1.953,0,0,0,1.3.5,4.389,4.389,0,0,0,2.473-.778c.073-.05.142.018.142.089.058-.1.22-.007.167.1-.171.362.256.813.555.946a1.59,1.59,0,0,0,.805.13,4.16,4.16,0,0,0,1.027-.257c.027-.035.054-.069.082-.1.321-.392.63-.8.931-1.2C664.283,1024.454,664.306,1024.893,664.332,1025.331Z" transform="translate(-653.521 -1021.795)" fill="#ea7220"/>
          <path id="Path_1001" data-name="Path 1001" d="M689.267,1022.779c.054-.115.224-.014.17.1-.021.045-.046.085-.069.128.4-.032.818.038,1.223.008a3.624,3.624,0,0,0,1.512-.411,3.075,3.075,0,0,0,.376-.254h-.115c-.942.011-3.358-.146-3.586-.158-.206-.012-.412-.032-.618-.048-.243-.186-.486-.369-.735-.544-.061-.068-.122-.137-.185-.2-.252-.251-.786-.191-1.105-.151a4.268,4.268,0,0,0-1.661.506l0,0a1.653,1.653,0,0,0-.163.117l-.049.04c-.019.016-.038.034-.056.051s-.039.039-.058.06-.027.028-.039.043-.032.041-.048.062h0c-.011.015-.022.03-.032.045l-.024.038c-.016.026-.03.052-.043.078l-.007.016c-.006.013-.012.026-.018.039a1.063,1.063,0,0,0-.05.14c-.017.063.047.1.1.09.369.511.818.995,1.232,1.468.038.044.077.085.115.128C686.849,1024.48,688.607,1024.182,689.267,1022.779Z" transform="translate(-668.91 -1021.213)" fill="#ea7220"/>
        </g>
        <path id="Path_1002" data-name="Path 1002" d="M677.544,971.337a4.312,4.312,0,0,0-1.773.513,6.228,6.228,0,0,0,.658-2.038,9.356,9.356,0,0,0-.009-2.506,6.556,6.556,0,0,0-.3-1.193c-.137-.387-.4-.7-.556-1.07a.133.133,0,0,0-.254.07,1.914,1.914,0,0,1-.189,1.277,5.217,5.217,0,0,1-.291.505,5.634,5.634,0,0,0-.107-1.254,8.682,8.682,0,0,0-1.362-3.466,6.257,6.257,0,0,0-2.838-2.128,7.849,7.849,0,0,1-1.465-.728,4.7,4.7,0,0,1-.91-.9c-.09-.164-.172-.334-.257-.509a.138.138,0,0,0-.252,0,.889.889,0,0,0-.026.4,7.058,7.058,0,0,0,.075,1.015,1.992,1.992,0,0,0,.223.609,13.572,13.572,0,0,1-1.3-.837,4.251,4.251,0,0,1-1.356-2.066,5.045,5.045,0,0,1,.908-4.748.127.127,0,0,0-.15-.193,4.317,4.317,0,0,0-1.285.769,6.011,6.011,0,0,0,.14-3.772.1.1,0,0,0-.182.024,2.58,2.58,0,0,0,.016.3,4.758,4.758,0,0,1-2.556,3.269,12.423,12.423,0,0,1-2.162.813,8.826,8.826,0,0,0-2.02.967,8.733,8.733,0,0,0-3.043,3.118,4.666,4.666,0,0,0-.491,1.422c-.028-.124-.052-.25-.07-.384-.064-.467.129-.907.1-1.357a.054.054,0,0,0-.027-.041.052.052,0,0,0-.06-.009s-.008,0-.012,0l-.017.019a4.475,4.475,0,0,0-.886,5.244,5.249,5.249,0,0,0,.893,1.209c.414.429,1.013.753,1.306,1.283a2.663,2.663,0,0,1,.523,1.584,1.372,1.372,0,0,1-.892,1.2,1.961,1.961,0,0,0-.93-2.744s-.006,0-.009,0l-.006-.013c-.045-.082-.174-.032-.137.058a2.512,2.512,0,0,1-.152,2.387,6.782,6.782,0,0,1-1.763,1.747c-1.207.979-2.549,1.961-2.974,3.551a2.535,2.535,0,0,0,.33,2.157,4.839,4.839,0,0,0,1.009.954,4.071,4.071,0,0,1,1.449,1.683,1.642,1.642,0,0,1,.006,1.263,3.27,3.27,0,0,0-.28-.685,4.624,4.624,0,0,0-1.578-1.426.161.161,0,0,0-.224.226c.317.422.66.754.592,1.33a2.63,2.63,0,0,1-.68,1.491,6.86,6.86,0,0,1-.854.687,2.565,2.565,0,0,0-.9,1.249,3.127,3.127,0,0,0,.932,3.14,2.946,2.946,0,0,0,1.383.7,13.42,13.42,0,0,1,1.9.662,2.92,2.92,0,0,0,2.728.05,3.609,3.609,0,0,1,.386-.027,3.364,3.364,0,0,1,1.478.234,3.257,3.257,0,0,0,1.066.49c.4.063.8-.094,1.2-.067a6.1,6.1,0,0,0,.763.035,1.748,1.748,0,0,0,.2.136,2.958,2.958,0,0,0,.7.171,6.036,6.036,0,0,0,1.654-.017,6.6,6.6,0,0,1,1.094.07,1.258,1.258,0,0,0,.545-.04,1.348,1.348,0,0,0,.508-.319,2.787,2.787,0,0,0,1.573.451,4.262,4.262,0,0,0,1.815-.479c.308-.112.691.005.983-.133.243-.114.467-.247.712-.351a3.228,3.228,0,0,0,.556.355,1.627,1.627,0,0,0,1.441-.213c.226-.139.368-.378.622-.453.132-.039.58-.181.655-.308a.371.371,0,0,0,.07-.31c.067-.013.132-.026.2-.041a7.228,7.228,0,0,0,.887-.392,2.455,2.455,0,0,0,.751-.458,7.116,7.116,0,0,0,2.12-3.713,8.12,8.12,0,0,0,.136-2.371,7.47,7.47,0,0,0-.307-2.168,9.067,9.067,0,0,1-.733-2.328,2.757,2.757,0,0,1,1.406-2.411C677.716,971.505,677.687,971.309,677.544,971.337Z" transform="translate(-643.732 -942.644)" fill="#ed2324"/>
        <path id="Path_1003" data-name="Path 1003" d="M677.521,972.121c-.358.239-.684.519-.907.691-.177.136-.416-.017-.476-.193a1.138,1.138,0,0,1,.06-.876,6.832,6.832,0,0,0,.668-2.071,6.625,6.625,0,0,0-.375-3.032,2.006,2.006,0,0,1-.93,1.635.327.327,0,0,1-.476-.366c.039-.252.086-.5.134-.746a.365.365,0,0,1,.005-.117c.574-2.515-1.847-5.011-3.959-5.907a5.189,5.189,0,0,1-2.161-1.6,2.722,2.722,0,0,0,.5,1.41c.21.293-.181.561-.443.443l-.1-.045c-1.882-.261-3.272-2.323-3.534-4.1-.217-1.471.1-3.64,1.362-4.694a4.5,4.5,0,0,0-1.022.657,6.07,6.07,0,0,0,.215-3.485,3.755,3.755,0,0,1-.584,2.545,6.317,6.317,0,0,1-3.524,2.219,10.013,10.013,0,0,0-4.787,2.817A4.47,4.47,0,0,0,656,959.816a1.072,1.072,0,0,1-.25.714.325.325,0,0,1-.459,0,3.481,3.481,0,0,1-.476-.714,3.125,3.125,0,0,0,.119,1.792,5.692,5.692,0,0,0,1.583,2.068,4.606,4.606,0,0,1,1.5,2.508c.317,1.881-2.389,4.363-1.955,1.306-.5,1.613-1.776,2.518-3,3.551a3.166,3.166,0,0,0-.918,1.144c-.671,1.542.448,2.814,1.23,4.046a2.858,2.858,0,0,1,.29,3.306c-.217.339-.75.045-.576-.295a4.429,4.429,0,0,0-1.517-1.8,1.722,1.722,0,0,1,.367.608,1.747,1.747,0,0,1,.345,1.139c-.09,1.107-.791,1.532-1.449,2.326-1.148,1.388-.248,3.051,1.1,3.865a7.8,7.8,0,0,0,1.35.624,5.256,5.256,0,0,0,3.321-.149,1.135,1.135,0,0,1,.962.262,2.287,2.287,0,0,0,1,.307,2.208,2.208,0,0,1,.5.2,2.672,2.672,0,0,1-.931-2.236,3.961,3.961,0,0,1,.776-1.987c.3-.465.662-1.127.284-1.658a3.456,3.456,0,0,0-1.016-.8.1.1,0,0,1,0-.17,1.583,1.583,0,0,1,1.121-.226,2.817,2.817,0,0,1,.985.511c.43.257.048-.881-.006-.985a7.5,7.5,0,0,0-.846-1.116,2.9,2.9,0,0,1-.742-2.285,3.782,3.782,0,0,1,.143-.571,6.307,6.307,0,0,1,2.12-3.106.1.1,0,0,1,.165.1c-.2.733-.694,1.7-.326,2.439.228-.433.337-.943.557-1.383a6.128,6.128,0,0,1,.825-1.3,5.72,5.72,0,0,1,2.325-1.83.082.082,0,0,1,.1.028.078.078,0,0,1,.076.092,11.727,11.727,0,0,0-.3,1.652,6.169,6.169,0,0,0,.263,1.445,2.778,2.778,0,0,1,1.264-.948c.089-.034.144.075.111.145a2.342,2.342,0,0,0-.25,1.8,5.068,5.068,0,0,0,1.053,1.445,14.769,14.769,0,0,1,1.708,2.582,5.8,5.8,0,0,0,.19-1.138c.009-.088.136-.146.184-.05,1.124,2.25,2.312,5.014,1.177,7.513a5.332,5.332,0,0,1-1.256,1.684.9.9,0,0,1,.774-.107c.685.241.919-.224,1.5-.425.538-.185.917.78,1.425.14a1.569,1.569,0,0,1,1.076-.695,3.6,3.6,0,0,0,1.683-.34,4.715,4.715,0,0,0,.818-.652,6.813,6.813,0,0,0,1.3-2.835c.326-1.914-.612-3.26-1.036-5.037A4.171,4.171,0,0,1,677.521,972.121Zm-20.409,7.836a16.022,16.022,0,0,1-1.315,2.423,4.287,4.287,0,0,0-.609,3.123.1.1,0,0,1-.145.111,3.12,3.12,0,0,1-1.272-2.028,4.718,4.718,0,0,1,.477-2.629,4.52,4.52,0,0,0,.28-3.4,6.718,6.718,0,0,0-.421-1.546c-.122-.19-.519-.276-.539-.508l-.03-.013c-.116-.047-.066-.238.053-.191a4.941,4.941,0,0,1,2.9,3.984,2.693,2.693,0,0,1-.345,1.273,6.764,6.764,0,0,0,.8-.694A.1.1,0,0,1,657.111,979.958Zm1.02-3.236a3.3,3.3,0,0,1-1.035-.914,4.289,4.289,0,0,1-.889-1.329,3.208,3.208,0,0,1,.384-3.046.1.1,0,0,1,.1-.041,2.427,2.427,0,0,1,1.109-.774.1.1,0,0,1,.122.122,8.486,8.486,0,0,0-.5,1.3,5.586,5.586,0,0,0-.025,1.627,9.562,9.562,0,0,0,.842,2.913C658.275,976.645,658.221,976.756,658.132,976.721Zm5.957-20.525a4.6,4.6,0,0,1-.968,1.144,1.379,1.379,0,0,1,1.306.436.1.1,0,0,1-.036.132c-.589.386-1.248.643-1.833,1.04a14.217,14.217,0,0,0-1.821,1.4c-2.142,2.031-2.169,3.463-2.2,3.468a.976.976,0,0,1-.283.151.1.1,0,0,1-.125-.093,8.538,8.538,0,0,1,.49-4.273,5.224,5.224,0,0,1,1.2-1.716c.435-.372.957-.621,1.422-.95a17.886,17.886,0,0,0,1.96-1.835c.339-.376.629-.8.986-1.159.335-.337.7-.637,1.02-.991A14.066,14.066,0,0,1,664.088,956.2Zm5.706,5.482a.081.081,0,0,1,.069-.092,2.166,2.166,0,0,1,1.842.8,8.593,8.593,0,0,1,1.636,1.966c.745,1.3,1.25,3.212.317,4.55a.1.1,0,0,1-.184-.05,10.713,10.713,0,0,0-3.687-7.033A.087.087,0,0,1,669.794,961.679Zm-.785,11.9a.1.1,0,0,1-.145.059,2.916,2.916,0,0,1-.789-1.809,3.434,3.434,0,0,1,.5-2.515.1.1,0,0,1,.128-.033c.238-.327.494-.74.914-.825a.1.1,0,0,1,.111.145,7.043,7.043,0,0,0-.655,2.68c-.024.419-.04.839-.043,1.259A5.333,5.333,0,0,1,669.01,973.575Zm6.259-2.768a10.823,10.823,0,0,0-1.073,1.263,4.3,4.3,0,0,0-.485,1.906,12.76,12.76,0,0,0,.877,3.725c.028.092-.071.142-.145.111a7.265,7.265,0,0,1-1.662-1,7.269,7.269,0,0,1,.66,2.753.1.1,0,0,1-.194.027c-.395-1.254-1.611-1.918-2.4-2.892a4.639,4.639,0,0,1-1.194-2.862,6.521,6.521,0,0,1,3.035-5.479c.063-.035-.845,2.661.025,3.513a2.954,2.954,0,0,1,2.473-1.218A.1.1,0,0,1,675.269,970.807Z" transform="translate(-644.875 -942.997)" fill="#f6842a"/>
        <path id="Path_1004" data-name="Path 1004" d="M659.42,999.316a4.864,4.864,0,0,1-.306-.432,2.693,2.693,0,0,1-.385,1.068.1.1,0,0,1-.17,0,8.031,8.031,0,0,1-.577-1.336,5.081,5.081,0,0,1-.634,2.076.1.1,0,0,1-.18-.024,7.507,7.507,0,0,0-.8-2.082c-.394-.555-.92-.993-1.343-1.524a3.418,3.418,0,0,1-.557-2.538,6.349,6.349,0,0,0-.709,2,.1.1,0,0,1-.18.024,4.828,4.828,0,0,1-.391-3.251,9.147,9.147,0,0,1,.532-1.452c-.218.181-.439.362-.658.547a3.167,3.167,0,0,0-.918,1.144c-.671,1.542.448,2.814,1.23,4.046a2.858,2.858,0,0,1,.29,3.306c-.217.339-.75.045-.576-.295a4.427,4.427,0,0,0-1.517-1.8,1.722,1.722,0,0,1,.367.608,1.746,1.746,0,0,1,.345,1.139c-.09,1.108-.791,1.532-1.449,2.326-1.148,1.388-.248,3.051,1.1,3.865a7.794,7.794,0,0,0,1.35.624,5.257,5.257,0,0,0,3.321-.149,1.135,1.135,0,0,1,.962.262,2.282,2.282,0,0,0,1,.307,2.214,2.214,0,0,1,.5.2,2.672,2.672,0,0,1-.931-2.236,3.96,3.96,0,0,1,.776-1.987c.3-.465.662-1.127.284-1.658a3.456,3.456,0,0,0-1.016-.8.1.1,0,0,1,0-.17,1.582,1.582,0,0,1,1.121-.226,2.816,2.816,0,0,1,.985.511c.43.257.048-.881-.006-.985A7.515,7.515,0,0,0,659.42,999.316Zm-2.309,1.993a16.018,16.018,0,0,1-1.315,2.423,4.287,4.287,0,0,0-.609,3.123.1.1,0,0,1-.145.111,3.121,3.121,0,0,1-1.272-2.028,4.719,4.719,0,0,1,.477-2.629,4.52,4.52,0,0,0,.28-3.4,6.718,6.718,0,0,0-.421-1.546c-.122-.19-.519-.276-.539-.508l-.03-.013c-.116-.047-.066-.238.053-.191a4.941,4.941,0,0,1,2.9,3.984,2.693,2.693,0,0,1-.345,1.273,6.758,6.758,0,0,0,.8-.694A.1.1,0,0,1,657.111,1001.309Z" transform="translate(-644.875 -964.349)" fill="#f05f22"/>
        <path id="Path_1005" data-name="Path 1005" d="M693.139,999.951a4.877,4.877,0,0,1,.006-2.3c-.741,1.9-.264,4.328-.154,6.356.006.106-.132.124-.184.05a10.173,10.173,0,0,1-1.62-3.439c0,.033,0,.065-.007.1.068.206.134.412.2.619.028.092-.071.142-.145.111-.028-.012-.055-.027-.083-.039a6.312,6.312,0,0,0,.085,1.169,22.611,22.611,0,0,1,.427,2.665.1.1,0,0,1-.184.05,21.878,21.878,0,0,1-1.535-3.828c.02.067.037.134.056.2a4.824,4.824,0,0,1-.619,4.268.1.1,0,0,1-.184-.05,13.247,13.247,0,0,0-1.3-4.932,12.071,12.071,0,0,1-.18,2.887c-.022.112-.192.082-.194-.026a5.326,5.326,0,0,0-1.166-3.123.089.089,0,0,1-.088-.046c-.041-.079-.083-.158-.126-.237-.408-.521-.865-1.02-1.318-1.526a3.769,3.769,0,0,1-1-1.811,3.639,3.639,0,0,1-.047-.72,8.766,8.766,0,0,0-.338,2.775c.054.061.107.122.16.185a14.766,14.766,0,0,1,1.708,2.582,5.806,5.806,0,0,0,.19-1.138c.009-.088.136-.146.184-.05,1.124,2.25,2.312,5.014,1.177,7.513a5.335,5.335,0,0,1-1.256,1.684.9.9,0,0,1,.774-.107c.685.241.919-.224,1.5-.425.538-.185.917.78,1.425.14a1.569,1.569,0,0,1,1.076-.695,3.6,3.6,0,0,0,1.683-.34,4.718,4.718,0,0,0,.818-.652,6.814,6.814,0,0,0,1.3-2.835C694.5,1003.074,693.563,1001.728,693.139,999.951Z" transform="translate(-661.663 -966.633)" fill="#f05f22"/>
        <g id="Group_315" data-name="Group 315" transform="translate(6.867 10.957)">
          <path id="Path_1006" data-name="Path 1006" d="M664.57,967.694c.1.205.112.543.264.7a.137.137,0,0,0,.24-.065,12.417,12.417,0,0,0,.175-1.238,6.957,6.957,0,0,1,1.735-2.55,9.014,9.014,0,0,1,3.139-2.189c.138-.049.083-.229-.034-.258a2.685,2.685,0,0,0-1.387.22,3.636,3.636,0,0,0-.481.215,2.315,2.315,0,0,1,.189-.137,5.628,5.628,0,0,0,1.141-.993,5.437,5.437,0,0,0,.754-1.348c.252-.521.488-1.047.789-1.543.085-.139-.106-.295-.2-.157a5.976,5.976,0,0,1-2,1.577c-.677.361-1.375.68-2.019,1.1a4.467,4.467,0,0,0-1.38,1.534,2.648,2.648,0,0,0-.312.9,3.617,3.617,0,0,1,.142-1.616c.03-.106-.087-.238-.19-.145a8.378,8.378,0,0,0-1.152,1.375,3.667,3.667,0,0,0-.593,1.939,2.647,2.647,0,0,0,.6,1.77A5.427,5.427,0,0,1,664.57,967.694Z" transform="translate(-658.367 -958.302)" fill="#ffcc05"/>
          <path id="Path_1007" data-name="Path 1007" d="M671.048,958.346a6.912,6.912,0,0,1-.952,1.7,7.312,7.312,0,0,1-1.546,1.552,11.017,11.017,0,0,0-1.621,1.153,1.712,1.712,0,0,1,1.35-.017.1.1,0,0,1-.024.18,5.239,5.239,0,0,0-3.458,4.025.1.1,0,0,1-.165.044,3.108,3.108,0,0,1-.753-2.726,5.141,5.141,0,0,1,.409-1.439c.055-.124.113-.249.177-.37-.173.215-.337.437-.489.655a3.666,3.666,0,0,0-.593,1.939,2.647,2.647,0,0,0,.6,1.77,5.43,5.43,0,0,1,.584.9c.1.205.112.543.264.7a.137.137,0,0,0,.24-.065,12.415,12.415,0,0,0,.175-1.238,6.956,6.956,0,0,1,1.735-2.55,9.015,9.015,0,0,1,3.139-2.189c.138-.049.083-.229-.034-.258a2.684,2.684,0,0,0-1.387.22,3.637,3.637,0,0,0-.481.215,2.316,2.316,0,0,1,.189-.137,5.628,5.628,0,0,0,1.141-.993,5.438,5.438,0,0,0,.754-1.348c.252-.521.488-1.047.789-1.543A.137.137,0,0,0,671.048,958.346Z" transform="translate(-658.367 -958.324)" fill="#fac510" opacity="0.5" style="mix-blend-mode: multiply;isolation: isolate"/>
          <path id="Path_1008" data-name="Path 1008" d="M691.356,974.3a14.887,14.887,0,0,1,2.373,3.262,8.677,8.677,0,0,1,.672,3.525c0,.1.1.221.207.159a2.734,2.734,0,0,0,1.034-1.745,3.4,3.4,0,0,0-.44-2.384,9.539,9.539,0,0,0-1.641-1.984,6.48,6.48,0,0,0-1.821-1,1.348,1.348,0,0,0-.22-.1l-.041-.019v0c-.013,0-.026-.011-.039-.014C691.255,973.951,691.206,974.228,691.356,974.3Z" transform="translate(-672.505 -966.256)" fill="#ffcc05"/>
          <path id="Path_1009" data-name="Path 1009" d="M663.489,998.488c-.148-.32-.375-.6-.55-.907a7.736,7.736,0,0,1-.607-1.457,4.718,4.718,0,0,1-.193-1.81,3.183,3.183,0,0,1,.416-1.232.155.155,0,0,0-.237-.181c-.042.034-.081.071-.119.109a2.765,2.765,0,0,0-1.322,2.88,3.845,3.845,0,0,0,2.415,2.8A.152.152,0,0,0,663.489,998.488Z" transform="translate(-657.09 -975.824)" fill="#ffcc05"/>
          <path id="Path_1010" data-name="Path 1010" d="M686.312,993.291a.147.147,0,0,0,.152-.087c.077-.142-.031-.28-.064-.42a10.288,10.288,0,0,1-.269-1.388,4.1,4.1,0,0,1,.547-2.839.155.155,0,0,0,.026-.074.073.073,0,0,0-.027-.11.136.136,0,0,0-.184-.055,1.9,1.9,0,0,0-.3.194,2.477,2.477,0,0,0-1.361,2.311,2.984,2.984,0,0,0,.555,1.6C685.569,992.708,685.94,993.229,686.312,993.291Z" transform="translate(-669.245 -973.509)" fill="#ffcc05"/>
          <path id="Path_1011" data-name="Path 1011" d="M695.922,996.96a5.675,5.675,0,0,0-.708-1.233,6.3,6.3,0,0,1-.783-1.617,3.346,3.346,0,0,1-.089-1.691,8.888,8.888,0,0,1,.565-1.343.118.118,0,0,0-.153-.153,3.054,3.054,0,0,0-1.127,1.016,3.761,3.761,0,0,0-.646,1.055,4.7,4.7,0,0,1-.489-1.672,6.311,6.311,0,0,1,.562-3.079c.027-.056-.045-.1-.091-.07a.961.961,0,0,0-.255.3,1.7,1.7,0,0,0-.177.156,3.935,3.935,0,0,0-.481.668,8.112,8.112,0,0,0-.657,1.449,6.225,6.225,0,0,0-.4,3.119,6.451,6.451,0,0,0,1.221,2.788c.314.444.75.769,1.059,1.219a3.963,3.963,0,0,1,.408.786c.1.25.047.494.125.739a.144.144,0,0,0,.221.057c.325-.264.28-.944.278-1.318,0-.027,0-.053,0-.079.192.333.377.668.545,1a3.9,3.9,0,0,1,.353,1.487,5.2,5.2,0,0,1-.173,1.49.149.149,0,0,0,.237.137,2.324,2.324,0,0,0,.61-.891,11.531,11.531,0,0,0,.521-1.479A4.848,4.848,0,0,0,695.922,996.96Z" transform="translate(-672.335 -973.438)" fill="#ffcc05"/>
          <path id="Path_1012" data-name="Path 1012" d="M695.922,999.493a5.676,5.676,0,0,0-.708-1.233,6.3,6.3,0,0,1-.783-1.617,3.346,3.346,0,0,1-.089-1.691,3.524,3.524,0,0,1,.415-.993,2.915,2.915,0,0,0-.567,3.122c.588,1.4,1.6,2.853,1.345,4.45a.1.1,0,0,1-.18.023c-.326-.625-.471-1.329-.806-1.949a8.782,8.782,0,0,0-1.086-1.533c.124.464.274.919.4,1.383.02.079-.071.163-.145.111a6.433,6.433,0,0,1-2.276-6.41c-.015.04-.031.081-.046.121a6.225,6.225,0,0,0-.4,3.119,6.45,6.45,0,0,0,1.221,2.788c.314.444.75.769,1.059,1.219a3.966,3.966,0,0,1,.408.786c.1.25.047.494.125.739a.145.145,0,0,0,.221.057c.325-.264.28-.944.278-1.318,0-.027,0-.053,0-.079.192.333.377.668.545,1a3.9,3.9,0,0,1,.353,1.487,5.2,5.2,0,0,1-.173,1.49.149.149,0,0,0,.237.137,2.324,2.324,0,0,0,.61-.891,11.524,11.524,0,0,0,.521-1.479A4.847,4.847,0,0,0,695.922,999.493Z" transform="translate(-672.335 -975.97)" fill="#fac510" opacity="0.5" style="mix-blend-mode: multiply;isolation: isolate"/>
          <path id="Path_1013" data-name="Path 1013" d="M656.653,1007.414a3.372,3.372,0,0,0,.575-2.091,4.121,4.121,0,0,0-.747-2.07,8.507,8.507,0,0,0-1.5-1.59.06.06,0,0,0-.078,0,.055.055,0,0,0-.054.084c.135.217.325.4.478.609a3.684,3.684,0,0,1,.6,1.386,3.222,3.222,0,0,1-.365,2.153c-.282.633-.769,1.145-1.013,1.8a2.706,2.706,0,0,0-.2.91,3.424,3.424,0,0,1-.129-.359,2.2,2.2,0,0,1-.151-.72.719.719,0,0,0-.035-.32.143.143,0,0,0-.243-.031,3.769,3.769,0,0,0-.5,1.213,2.048,2.048,0,0,0,.221,1.6,4.606,4.606,0,0,0,2.61,1.7.425.425,0,0,0,.283.139.132.132,0,0,0,.135-.091.1.1,0,0,0-.022-.154l-.009,0c-.072-.17-.186-.318-.248-.5a2.244,2.244,0,0,1-.044-1.272,8.4,8.4,0,0,1,.818-1.813c.055-.1-.118-.2-.177-.1,0,.007-.008.015-.013.023a3.3,3.3,0,0,1-.581.709,5.251,5.251,0,0,1-.453.46,3.028,3.028,0,0,1,.222-.632C656.211,1008.1,656.453,1007.761,656.653,1007.414Z" transform="translate(-653.217 -980.275)" fill="#ffcc05"/>
          <path id="Path_1014" data-name="Path 1014" d="M656.516,1011.634l-.009,0c-.072-.17-.186-.319-.248-.5a2.244,2.244,0,0,1-.044-1.272,4.765,4.765,0,0,1,.5-1.211,1.708,1.708,0,0,0-.162.2,2.931,2.931,0,0,0-.554,2.139.1.1,0,0,1-.125.1c-.991-.418-2.2-1.35-1.992-2.563a.1.1,0,0,1,.18-.024c.309.5.558,1.149,1.09,1.448a3.16,3.16,0,0,1-.067-1.871c.258-.778.873-1.388,1.109-2.165a4.08,4.08,0,0,0-.21-2.427,4.617,4.617,0,0,0-1.141-1.734.054.054,0,0,0,0,.052c.135.217.325.4.478.609a3.685,3.685,0,0,1,.6,1.386,3.222,3.222,0,0,1-.365,2.153c-.282.633-.769,1.145-1.013,1.8a2.706,2.706,0,0,0-.2.91,3.432,3.432,0,0,1-.129-.359,2.2,2.2,0,0,1-.151-.72.719.719,0,0,0-.035-.321.143.143,0,0,0-.243-.031,3.769,3.769,0,0,0-.5,1.213,2.048,2.048,0,0,0,.221,1.6,4.606,4.606,0,0,0,2.61,1.7.425.425,0,0,0,.283.139.132.132,0,0,0,.135-.091A.1.1,0,0,0,656.516,1011.634Z" transform="translate(-653.217 -980.324)" fill="#fac510" opacity="0.5" style="mix-blend-mode: multiply;isolation: isolate"/>
          <path id="Path_1015" data-name="Path 1015" d="M676.958,1000.324c-.009-.017-.014-.036-.024-.054-.031-.052-.11-.02-.118.032a4.54,4.54,0,0,0,.016.634,3.192,3.192,0,0,1-.251,1,2.887,2.887,0,0,1-.589.917,5.165,5.165,0,0,0,.117-2.624,5.94,5.94,0,0,0-1.353-2.735c-.346-.427-.775-.772-1.144-1.177a1.444,1.444,0,0,1-.47-.869c-.02-.227.009-.456-.016-.682l.008-.017a.072.072,0,0,0-.079-.1.067.067,0,0,0-.065.038,2.193,2.193,0,0,0-.579,1.132,1.733,1.733,0,0,0-.041.291,6.276,6.276,0,0,1-.4-1.688,6.678,6.678,0,0,1,.126-1.972,4.326,4.326,0,0,1,.289-.926,1.09,1.09,0,0,0,.146-.455.056.056,0,0,0,0-.039v-.006a.073.073,0,0,0-.13-.034l-.012.019c-1.983,1.337-3.912,3.709-3.868,6.218a2.4,2.4,0,0,1-.346-.559,2.856,2.856,0,0,1-.2-1.711.068.068,0,0,0-.071-.074.06.06,0,0,0-.055,0,2.363,2.363,0,0,0-1.034,1.444,2.776,2.776,0,0,0,.358,2.093c.4.641,1.122.918,1.588,1.487a1.739,1.739,0,0,1,.177,1.592,3.235,3.235,0,0,1-.443.836,1.393,1.393,0,0,0-.291-.574,1.7,1.7,0,0,0-1.024-.55.084.084,0,0,0-.044.159l.019.01c.64.536.3,1.325-.122,1.874a4.328,4.328,0,0,0-.9,1.277c-.331.972.407,1.85,1.03,2.506a4.755,4.755,0,0,0,2.777,1.483,4.464,4.464,0,0,0,1.569-.036,6.392,6.392,0,0,0,4.751-1.484,4.934,4.934,0,0,0,1.4-3.035,5.435,5.435,0,0,0-.111-1.821A4.467,4.467,0,0,0,676.958,1000.324Z" transform="translate(-659.721 -974.86)" fill="#ffcc05"/>
          <path id="Path_1016" data-name="Path 1016" d="M677.543,1002.24a4.467,4.467,0,0,0-.584-1.826c-.009-.017-.014-.036-.024-.054-.031-.052-.11-.02-.118.032a4.542,4.542,0,0,0,.016.634,3.192,3.192,0,0,1-.251,1,2.888,2.888,0,0,1-.589.917,5.165,5.165,0,0,0,.117-2.624,5.939,5.939,0,0,0-1.353-2.735c-.346-.427-.775-.772-1.144-1.177a1.445,1.445,0,0,1-.47-.869c-.02-.227.009-.456-.016-.682l.008-.017a.071.071,0,0,0-.079-.1.067.067,0,0,0-.065.038,2.193,2.193,0,0,0-.579,1.132,1.735,1.735,0,0,0-.041.291,6.273,6.273,0,0,1-.4-1.688,6.679,6.679,0,0,1,.126-1.972,4.325,4.325,0,0,1,.289-.926,1.09,1.09,0,0,0,.146-.455.042.042,0,0,0,0-.02,3.745,3.745,0,0,0-1.167,1.349,6.685,6.685,0,0,0-.848,2.216,6.786,6.786,0,0,0,.107,3.068,3.08,3.08,0,0,0,.862,1.76c.509-.938.642-2.042,1.6-2.673.087-.058.179.053.135.135a3.425,3.425,0,0,0-.113,2.573c.272.773.893,1.332,1.234,2.068a3.11,3.11,0,0,1-.2,3.363,3.443,3.443,0,0,1-3.046,1.333c-.054-.01-.107-.022-.16-.036l-.074.009a3.481,3.481,0,0,1-3.009-1.139,1.23,1.23,0,0,1-.209-1.158,2.454,2.454,0,0,0,.229-.9c-.016-.248-.067-.495-.1-.742-.013-.108.134-.121.184-.05a8.307,8.307,0,0,1,.572,1.284,11.246,11.246,0,0,0,1.3-2.384c.307-1.193-.481-1.972-1.377-2.612a2.519,2.519,0,0,1-1.276-1.885,2.846,2.846,0,0,1,.425-1.586,2.579,2.579,0,0,0-.788,1.281,2.776,2.776,0,0,0,.358,2.093c.4.642,1.122.918,1.588,1.487a1.739,1.739,0,0,1,.177,1.592,3.233,3.233,0,0,1-.443.836,1.4,1.4,0,0,0-.291-.574,1.7,1.7,0,0,0-1.024-.55.084.084,0,0,0-.044.159l.019.01c.64.536.3,1.325-.122,1.874a4.328,4.328,0,0,0-.9,1.277c-.331.972.407,1.85,1.03,2.506a4.754,4.754,0,0,0,2.777,1.483,4.464,4.464,0,0,0,1.569-.036,6.392,6.392,0,0,0,4.751-1.484,4.933,4.933,0,0,0,1.4-3.034A5.435,5.435,0,0,0,677.543,1002.24Z" transform="translate(-659.721 -974.949)" fill="#fac510" opacity="0.5" style="mix-blend-mode: multiply;isolation: isolate"/>
        </g>
        <g id="Group_324" data-name="Group 324">
          <g id="Group_316" data-name="Group 316" transform="translate(1.628 32.33)">
            <path id="Path_1017" data-name="Path 1017" d="M644.231,1006.991c.173.122.349.24.532.354a.2.2,0,0,0,.064.026c-.328-1.206.266-2.656-.444-3.8a10.089,10.089,0,0,1-1.339-1.919A4.474,4.474,0,0,0,644.231,1006.991Z" transform="translate(-642.591 -1001.648)" fill="#ed2324"/>
            <path id="Path_1018" data-name="Path 1018" d="M644.885,1005.083a1.688,1.688,0,0,0-.22-.445,8.916,8.916,0,0,0-1.047-1.022,1.98,1.98,0,0,1-.382-.509,4.214,4.214,0,0,0-.158,2.2,4.656,4.656,0,0,0,1.734,2.671c.053.034.1.07.156.1a.207.207,0,0,0,.064.026C644.775,1007.163,645.083,1006.067,644.885,1005.083Z" transform="translate(-642.797 -1002.388)" fill="#f6842a"/>
            <path id="Path_1019" data-name="Path 1019" d="M645.475,1009.077a9.215,9.215,0,0,1-.049-1.975,2.336,2.336,0,0,0-.942-1.578,5.253,5.253,0,0,1-.579-.51A5.068,5.068,0,0,0,645.475,1009.077Z" transform="translate(-643.24 -1003.354)" fill="#ffcc05"/>
          </g>
          <g id="Group_317" data-name="Group 317" transform="translate(9.365)">
            <path id="Path_1020" data-name="Path 1020" d="M658.56,938.945c.061.094.125.187.192.279a.109.109,0,0,0,.027.025c.076-.658.654-1.254.53-1.959a5.345,5.345,0,0,1-.281-1.208A2.372,2.372,0,0,0,658.56,938.945Z" transform="translate(-658.282 -936.082)" fill="#ed2324"/>
            <path id="Path_1021" data-name="Path 1021" d="M659.359,938.091a.909.909,0,0,0-.021-.262,4.727,4.727,0,0,0-.314-.709,1.066,1.066,0,0,1-.088-.325,2.233,2.233,0,0,0-.512,1.053,2.473,2.473,0,0,0,.328,1.656c.019.026.036.055.056.081a.107.107,0,0,0,.027.025C658.9,939.094,659.263,938.614,659.359,938.091Z" transform="translate(-658.339 -936.443)" fill="#f6842a"/>
            <path id="Path_1022" data-name="Path 1022" d="M659.036,940.131a4.916,4.916,0,0,1,.365-.981,1.24,1.24,0,0,0-.152-.962,2.784,2.784,0,0,1-.185-.365A2.685,2.685,0,0,0,659.036,940.131Z" transform="translate(-658.539 -936.964)" fill="#ffcc05"/>
          </g>
          <g id="Group_318" data-name="Group 318" transform="translate(5.553 20.317)">
            <path id="Path_1023" data-name="Path 1023" d="M652.72,980.151a21.543,21.543,0,0,0-.8-2.866,2.1,2.1,0,0,1-.37,1,4.386,4.386,0,0,0-.918,1.508,3.217,3.217,0,0,0,.709,2.785.191.191,0,0,0,.089-.032,2.176,2.176,0,0,1,.416-.833C652.207,981.238,652.77,980.815,652.72,980.151Z" transform="translate(-650.552 -977.285)" fill="#ed2324"/>
            <path id="Path_1024" data-name="Path 1024" d="M652.446,980.315a12.719,12.719,0,0,1-.459-1.505,3.736,3.736,0,0,1-.6.933,2.544,2.544,0,0,0-.7,2.186,3.914,3.914,0,0,0,.425,1.036,4.384,4.384,0,0,0,.274.391.193.193,0,0,0,.089-.033,2.173,2.173,0,0,1,.416-.833c.176-.235.4-.456.577-.7A2.284,2.284,0,0,0,652.446,980.315Z" transform="translate(-650.594 -978.058)" fill="#f6842a"/>
            <path id="Path_1025" data-name="Path 1025" d="M652.127,979.9c-.234.458-.682.833-.9,1.293a2.514,2.514,0,0,0,.373,2.7.179.179,0,0,0,.052-.02c0-.023.013-.044.019-.066a1.324,1.324,0,0,1,.067-.4c.187-.579.749-.887.778-1.553A9.31,9.31,0,0,0,652.127,979.9Z" transform="translate(-650.768 -978.61)" fill="#ffcc05"/>
          </g>
          <g id="Group_319" data-name="Group 319" transform="translate(26.285 11.092)">
            <path id="Path_1026" data-name="Path 1026" d="M693.941,958.576a3.445,3.445,0,0,0-1.254,3.356A4.847,4.847,0,0,0,693.77,964a4.049,4.049,0,0,0,.327.307c0-.01-.01-.019-.015-.03-.345-.8.353-1.419.283-2.2-.082-.909-.86-1.74-.739-2.672A2.041,2.041,0,0,1,693.941,958.576Z" transform="translate(-692.596 -958.576)" fill="#ed2324"/>
            <path id="Path_1027" data-name="Path 1027" d="M694.714,963.606c-.235-.506-.689-.975-.932-1.482a1.752,1.752,0,0,1-.176-.685,3.917,3.917,0,0,0-.25.836,5.115,5.115,0,0,0,.115,2.254,4.211,4.211,0,0,0,.646.927,4.038,4.038,0,0,0,.327.307c0-.01-.01-.019-.015-.03C694.1,964.961,694.736,964.355,694.714,963.606Z" transform="translate(-692.944 -960.027)" fill="#f6842a"/>
            <path id="Path_1028" data-name="Path 1028" d="M694.657,966.295l-.014-.029a2,2,0,0,1,.178-1.51,7.241,7.241,0,0,0-.75-1.528,2.612,2.612,0,0,1-.258-.74A4.529,4.529,0,0,0,694.657,966.295Z" transform="translate(-693.157 -960.559)" fill="#ffcc05"/>
          </g>
          <g id="Group_320" data-name="Group 320" transform="translate(12.493 4.874)">
            <path id="Path_1029" data-name="Path 1029" d="M665.971,945.966a3.445,3.445,0,0,0-1.254,3.356A4.835,4.835,0,0,0,665.8,951.4a4.092,4.092,0,0,0,.327.307c-.005-.01-.01-.019-.015-.03-.345-.8.353-1.419.283-2.2-.082-.909-.86-1.74-.739-2.672A2.044,2.044,0,0,1,665.971,945.966Z" transform="translate(-664.626 -945.966)" fill="#ed2324"/>
            <path id="Path_1030" data-name="Path 1030" d="M666.744,951c-.235-.505-.69-.975-.932-1.482a1.743,1.743,0,0,1-.176-.685,3.879,3.879,0,0,0-.25.836,5.1,5.1,0,0,0,.115,2.254,4.181,4.181,0,0,0,.645.927,4.072,4.072,0,0,0,.327.307c-.005-.01-.01-.019-.015-.03C666.125,952.351,666.765,951.746,666.744,951Z" transform="translate(-664.973 -947.418)" fill="#f6842a"/>
            <path id="Path_1031" data-name="Path 1031" d="M666.687,953.686l-.014-.029a2,2,0,0,1,.178-1.51,7.245,7.245,0,0,0-.751-1.528,2.63,2.63,0,0,1-.258-.74A4.531,4.531,0,0,0,666.687,953.686Z" transform="translate(-665.187 -947.95)" fill="#ffcc05"/>
          </g>
          <g id="Group_321" data-name="Group 321" transform="translate(3.926 11.528)">
            <path id="Path_1032" data-name="Path 1032" d="M648.536,959.461c-.71,1.077-1.857,2.334-.946,3.589a5.292,5.292,0,0,0,.953.794,3.335,3.335,0,0,0,.345-2.838A4.872,4.872,0,0,1,648.536,959.461Z" transform="translate(-647.253 -959.461)" fill="#ed2324"/>
            <path id="Path_1033" data-name="Path 1033" d="M648.73,961.471a1.662,1.662,0,0,1-.187-.991,13.784,13.784,0,0,0-.814,1.211,2.583,2.583,0,0,0-.251,1.491,1.823,1.823,0,0,0,.212.385,5.3,5.3,0,0,0,.953.794,3.4,3.4,0,0,0,.514-1.688A4.32,4.32,0,0,0,648.73,961.471Z" transform="translate(-647.353 -959.978)" fill="#f6842a"/>
            <path id="Path_1034" data-name="Path 1034" d="M648.665,962.281a1.324,1.324,0,0,1-.115-.633,3.778,3.778,0,0,0-.723,2.446c.014.022.025.043.04.065a5.293,5.293,0,0,0,.953.794,3.49,3.49,0,0,0,.468-1.225A9.384,9.384,0,0,0,648.665,962.281Z" transform="translate(-647.529 -960.57)" fill="#ffcc05"/>
          </g>
          <g id="Group_322" data-name="Group 322" transform="translate(22.432 4.65)">
            <path id="Path_1035" data-name="Path 1035" d="M686.031,948.206c.393-.433.165-.862.25-1.365a1.855,1.855,0,0,1,1.047-1.328,2.745,2.745,0,0,0-1.3.313c-.612.407-.438,1.042-.492,1.655a1.715,1.715,0,0,1-.755,1.182.185.185,0,0,0,.024.07A1.839,1.839,0,0,0,686.031,948.206Z" transform="translate(-684.783 -945.512)" fill="#ed2324"/>
            <path id="Path_1036" data-name="Path 1036" d="M686.6,947.174a1.512,1.512,0,0,1,.092-1.018,1.357,1.357,0,0,1,.486-.515,1.244,1.244,0,0,0-.966.794,14.961,14.961,0,0,1-.148,1.528,1.507,1.507,0,0,1-.61.788,1.654,1.654,0,0,0,.918-.481C686.693,947.917,686.6,947.565,686.6,947.174Z" transform="translate(-685.123 -945.577)" fill="#f6842a"/>
            <path id="Path_1037" data-name="Path 1037" d="M686.992,947.147a1.387,1.387,0,0,1,.048-.163,1.807,1.807,0,0,0-.191,1.027,1.755,1.755,0,0,1-.212,1.094.945.945,0,0,1-.107.141,1.382,1.382,0,0,0,.387-.293.867.867,0,0,0,.229-.5c-.027-.185-.076-.377-.126-.593A1.638,1.638,0,0,1,686.992,947.147Z" transform="translate(-685.669 -946.258)" fill="#ffcc05"/>
          </g>
          <g id="Group_323" data-name="Group 323" transform="translate(0 24.337)">
            <path id="Path_1038" data-name="Path 1038" d="M641.107,986.844c.068.709-.469.959-.753,1.511a2.26,2.26,0,0,0,.051,2.058,3.338,3.338,0,0,1-1.037-1.251c-.3-.843.334-1.334.728-1.971a2.088,2.088,0,0,0,.127-1.7.229.229,0,0,1,.073-.051A2.239,2.239,0,0,1,641.107,986.844Z" transform="translate(-639.29 -985.438)" fill="#ed2324"/>
            <path id="Path_1039" data-name="Path 1039" d="M640.777,988.355a1.842,1.842,0,0,0-.653,1.059,1.66,1.66,0,0,0,.1.857,1.512,1.512,0,0,1-.361-1.479,18.256,18.256,0,0,0,.969-1.6,1.83,1.83,0,0,0-.02-1.213,2.014,2.014,0,0,1,.544,1.138C641.409,987.7,641.061,987.973,640.777,988.355Z" transform="translate(-639.537 -985.714)" fill="#f6842a"/>
            <path id="Path_1040" data-name="Path 1040" d="M640.378,989.518a1.78,1.78,0,0,0-.072.194,2.2,2.2,0,0,1,.563-1.14,2.136,2.136,0,0,0,.591-1.22,1.2,1.2,0,0,0,0-.214,1.714,1.714,0,0,1,.162.568,1.06,1.06,0,0,1-.143.656c-.161.16-.349.312-.555.485A2,2,0,0,0,640.378,989.518Z" transform="translate(-639.805 -986.3)" fill="#ffcc05"/>
          </g>
        </g>
      </g>
    </g>
  </g>
</svg>
